<svg viewBox="0 0 1033 400" xmlns="http://www.w3.org/2000/svg"><g><g><g><g><g><line x1="41.171875" y1="347.11055650623473" x2="36.171875" y2="347.11055650623473" style="visibility: inherit;" fill="rgb(0, 0, 0)" stroke="rgb(204, 204, 204)" stroke-width="1px"></line><line x1="41.171875" y1="263.18194969271934" x2="36.171875" y2="263.18194969271934" style="visibility: inherit;" fill="rgb(0, 0, 0)" stroke="rgb(204, 204, 204)" stroke-width="1px"></line><line x1="41.171875" y1="203.63365549113357" x2="36.171875" y2="203.63365549113357" style="visibility: inherit;" fill="rgb(0, 0, 0)" stroke="rgb(204, 204, 204)" stroke-width="1px"></line><line x1="41.171875" y1="157.44441008699937" x2="36.171875" y2="157.44441008699937" style="visibility: inherit;" fill="rgb(0, 0, 0)" stroke="rgb(204, 204, 204)" stroke-width="1px"></line><line x1="41.171875" y1="119.70504867761824" x2="36.171875" y2="119.70504867761824" style="visibility: inherit;" fill="rgb(0, 0, 0)" stroke="rgb(204, 204, 204)" stroke-width="1px"></line><line x1="41.171875" y1="87.79687325501988" x2="36.171875" y2="87.79687325501988" style="visibility: inherit;" fill="rgb(0, 0, 0)" stroke="rgb(204, 204, 204)" stroke-width="1px"></line><line x1="41.171875" y1="60.15675447603245" x2="36.171875" y2="60.15675447603245" style="visibility: inherit;" fill="rgb(0, 0, 0)" stroke="rgb(204, 204, 204)" stroke-width="1px"></line><line x1="41.171875" y1="35.77644186410283" x2="36.171875" y2="35.77644186410283" style="visibility: inherit;" fill="rgb(0, 0, 0)" stroke="rgb(204, 204, 204)" stroke-width="1px"></line><line x1="41.171875" y1="13.967509071898105" x2="36.171875" y2="13.967509071898105" style="visibility: inherit;" fill="rgb(0, 0, 0)" stroke="rgb(204, 204, 204)" stroke-width="1px"></line></g><g transform="translate(31.171875, 0)"><text x="0" y="347.11055650623473" dx="0em" dy="0.3em" style="text-anchor: end; visibility: inherit; font-family: Roboto, sans-serif; font-size: 12px; font-weight: 200;" fill="rgb(33, 33, 33)" stroke="none" stroke-width="1px">20</text><text x="0" y="263.18194969271934" dx="0em" dy="0.3em" style="text-anchor: end; visibility: hidden; font-family: Roboto, sans-serif; font-size: 12px; font-weight: 200;" fill="rgb(33, 33, 33)" stroke="none" stroke-width="1px">30</text><text x="0" y="203.63365549113357" dx="0em" dy="0.3em" style="text-anchor: end; visibility: inherit; font-family: Roboto, sans-serif; font-size: 12px; font-weight: 200;" fill="rgb(33, 33, 33)" stroke="none" stroke-width="1px">40</text><text x="0" y="157.44441008699937" dx="0em" dy="0.3em" style="text-anchor: end; visibility: hidden; font-family: Roboto, sans-serif; font-size: 12px; font-weight: 200;" fill="rgb(33, 33, 33)" stroke="none" stroke-width="1px">50</text><text x="0" y="119.70504867761824" dx="0em" dy="0.3em" style="text-anchor: end; visibility: inherit; font-family: Roboto, sans-serif; font-size: 12px; font-weight: 200;" fill="rgb(33, 33, 33)" stroke="none" stroke-width="1px">60</text><text x="0" y="87.79687325501988" dx="0em" dy="0.3em" style="text-anchor: end; visibility: hidden; font-family: Roboto, sans-serif; font-size: 12px; font-weight: 200;" fill="rgb(33, 33, 33)" stroke="none" stroke-width="1px">70</text><text x="0" y="60.15675447603245" dx="0em" dy="0.3em" style="text-anchor: end; visibility: inherit; font-family: Roboto, sans-serif; font-size: 12px; font-weight: 200;" fill="rgb(33, 33, 33)" stroke="none" stroke-width="1px">80</text><text x="0" y="35.77644186410283" dx="0em" dy="0.3em" style="text-anchor: end; visibility: hidden; font-family: Roboto, sans-serif; font-size: 12px; font-weight: 200;" fill="rgb(33, 33, 33)" stroke="none" stroke-width="1px">90</text><text x="0" y="13.967509071898105" dx="0em" dy="0.3em" style="text-anchor: end; visibility: inherit; font-family: Roboto, sans-serif; font-size: 12px; font-weight: 200;" fill="rgb(33, 33, 33)" stroke="none" stroke-width="1px">100</text></g><line x1="41.171875" y1="0" x2="41.171875" y2="377" fill="rgb(0, 0, 0)" stroke="rgb(204, 204, 204)" stroke-width="1px"></line></g></g><g transform="translate(41, 0)" clip-path="url(#clip_0)"><clipPath id="clip_0"><rect width="991" height="377"></rect></clipPath><g><g><g><line x1="0" y1="0" x2="0" y2="377" fill="rgb(0, 0, 0)" stroke="rgb(66, 66, 66)" stroke-width="1px" opacity="0.25"></line><line x1="90.16619318181819" y1="0" x2="90.16619318181819" y2="377" fill="rgb(0, 0, 0)" stroke="rgb(66, 66, 66)" stroke-width="1px" opacity="0.25"></line><line x1="180.33238636363637" y1="0" x2="180.33238636363637" y2="377" fill="rgb(0, 0, 0)" stroke="rgb(66, 66, 66)" stroke-width="1px" opacity="0.25"></line><line x1="270.4985795454545" y1="0" x2="270.4985795454545" y2="377" fill="rgb(0, 0, 0)" stroke="rgb(66, 66, 66)" stroke-width="1px" opacity="0.25"></line><line x1="360.66477272727275" y1="0" x2="360.66477272727275" y2="377" fill="rgb(0, 0, 0)" stroke="rgb(66, 66, 66)" stroke-width="1px" opacity="0.25"></line><line x1="450.8309659090909" y1="0" x2="450.8309659090909" y2="377" fill="rgb(0, 0, 0)" stroke="rgb(66, 66, 66)" stroke-width="1px" opacity="0.25"></line><line x1="540.997159090909" y1="0" x2="540.997159090909" y2="377" fill="rgb(0, 0, 0)" stroke="rgb(66, 66, 66)" stroke-width="1px" opacity="0.25"></line><line x1="631.1633522727273" y1="0" x2="631.1633522727273" y2="377" fill="rgb(0, 0, 0)" stroke="rgb(66, 66, 66)" stroke-width="1px" opacity="0.25"></line><line x1="721.3295454545455" y1="0" x2="721.3295454545455" y2="377" fill="rgb(0, 0, 0)" stroke="rgb(66, 66, 66)" stroke-width="1px" opacity="0.25"></line><line x1="811.4957386363637" y1="0" x2="811.4957386363637" y2="377" fill="rgb(0, 0, 0)" stroke="rgb(66, 66, 66)" stroke-width="1px" opacity="0.25"></line><line x1="901.6619318181818" y1="0" x2="901.6619318181818" y2="377" fill="rgb(0, 0, 0)" stroke="rgb(66, 66, 66)" stroke-width="1px" opacity="0.25"></line><line x1="991.828125" y1="0" x2="991.828125" y2="377" fill="rgb(0, 0, 0)" stroke="rgb(66, 66, 66)" stroke-width="1px" opacity="0.25"></line></g><g><line x1="0" y1="347.11055650623473" x2="991.828125" y2="347.11055650623473" fill="rgb(0, 0, 0)" stroke="rgb(66, 66, 66)" stroke-width="1px" opacity="0.25"></line><line x1="0" y1="263.18194969271934" x2="991.828125" y2="263.18194969271934" fill="rgb(0, 0, 0)" stroke="rgb(66, 66, 66)" stroke-width="1px" opacity="0.25"></line><line x1="0" y1="203.63365549113357" x2="991.828125" y2="203.63365549113357" fill="rgb(0, 0, 0)" stroke="rgb(66, 66, 66)" stroke-width="1px" opacity="0.25"></line><line x1="0" y1="157.44441008699937" x2="991.828125" y2="157.44441008699937" fill="rgb(0, 0, 0)" stroke="rgb(66, 66, 66)" stroke-width="1px" opacity="0.25"></line><line x1="0" y1="119.70504867761824" x2="991.828125" y2="119.70504867761824" fill="rgb(0, 0, 0)" stroke="rgb(66, 66, 66)" stroke-width="1px" opacity="0.25"></line><line x1="0" y1="87.79687325501988" x2="991.828125" y2="87.79687325501988" fill="rgb(0, 0, 0)" stroke="rgb(66, 66, 66)" stroke-width="1px" opacity="0.25"></line><line x1="0" y1="60.15675447603245" x2="991.828125" y2="60.15675447603245" fill="rgb(0, 0, 0)" stroke="rgb(66, 66, 66)" stroke-width="1px" opacity="0.25"></line><line x1="0" y1="35.77644186410283" x2="991.828125" y2="35.77644186410283" fill="rgb(0, 0, 0)" stroke="rgb(66, 66, 66)" stroke-width="1px" opacity="0.25"></line><line x1="0" y1="13.967509071898105" x2="991.828125" y2="13.967509071898105" fill="rgb(0, 0, 0)" stroke="rgb(66, 66, 66)" stroke-width="1px" opacity="0.25"></line></g></g></g><g><g><line x1="90.16619318181819" y1="0" x2="90.16619318181819" y2="377" fill="rgb(0, 0, 0)" stroke="rgb(153, 153, 153)" stroke-width="1.5px"></line></g></g><g><g><g><g><g><path stroke="rgb(0, 119, 187)" stroke-width="2px" d="M90.16619318181819,-5.134300544965983L94.6745028409091,27.57495395213761L99.18281250000001,48.05383791120824L103.69112215909091,61.76230404573674L108.19943181818181,71.2915619339217L112.70774147727272,78.30298388555175L117.21605113636363,83.67640227686302L121.72436079545454,88.00076111055834L126.23267045454544,91.81022609143467L130.74098011363634,95.08364924469073L135.24928977272725,98.11813326480622L139.75759943181816,100.43055974198701L144.26590909090908,102.5558248102673L148.77421875,104.49870668025353L153.2825284090909,106.15451486286744L157.7908380681818,107.67234245359447L162.29914772727273,109.22123054365515L166.80745738636364,110.53709713524553L171.31576704545455,111.58034592875353L175.82407670454546,112.77565494338559L180.33238636363637,113.90201620260936L184.8406960227273,114.83709725068078L189.3490056818182,115.82856191953582L193.8573153409091,116.71932189411724L198.36562500000002,117.69841856397898L202.87393465909093,118.6732226475114L207.38224431818182,119.6455966069987L211.8905539772727,120.50544422894649L216.39886363636361,121.32589279553022L220.90717329545453,122.42774928939531L225.41548295454544,123.3602625455247L229.92379261363635,124.75146055545584L234.43210227272726,125.7399555839307L238.94041193181818,127.01297992848365L243.4487215909091,128.39259161122982L247.95703125,129.74500353111247L252.46534090909088,131.29138232240075L256.9736505681818,132.72853414408604L261.4819602272727,134.51468078148832L265.99026988636365,136.30052031040978L270.4985795454545,138.22536066866743L275.0068892045455,140.0269261770505L279.51519886363633,141.936157689173L284.0235085227273,144.04564124085655L288.53181818181815,146.2486880032118L293.0401278409091,148.53161548843786L297.5484375,150.71826673949482L302.05674715909095,153.39600784901754L306.5650568181818,155.9893404839445L311.07336647727277,158.70306795565935L315.5816761363636,161.44664204754508L320.0899857954546,164.21165735776842L324.59829545454545,167.07495839788444L329.10660511363636,169.89802751460695L333.6149147727273,172.91185304109845L338.12322443181813,175.89082147780033L342.6315340909091,179.05012346825765L347.13984374999995,182.1815695915144L351.6481534090909,185.35993429780348L356.1564630681818,188.4480056301502L360.66477272727275,191.75804865265624L365.1730823863636,195.08142633272598L369.6813920454546,198.3755026155809L374.1897017045454,201.4872944283048L378.6980113636364,204.9778540241154L383.20632102272725,208.20003804133452L387.7146306818182,211.47034925519492L392.2229403409091,214.91327296181896L396.73125000000005,218.17248864800487L401.2395596590909,221.52708849205803L405.74786931818187,224.5890814722342L410.2561789772727,227.85604733211244L414.76448863636364,230.95968950205045L419.27279829545455,234.17895371295205L423.7811079545454,237.46285573016533L428.2894176136364,240.4883001832885L432.79772727272723,243.49045080377144L437.3060369318182,246.71587495249472L441.81434659090905,249.74743816092354L446.32265625,252.8077246946704L450.8309659090909,255.42603386373156L455.33927556818185,258.50170217510214L459.8475852272727,261.85851661796625L464.35589488636367,264.92788175128265L468.8642045454545,267.53899861595096L473.3725142045455,270.23843593094125L477.88082386363635,272.8065220319783L482.3891335227273,275.6486946963432L486.8974431818182,278.53856983642567L491.40575284090914,281.02519307984267L495.9140625,283.75877800791125L500.42237215909086,286.2156945053021L504.93068181818177,288.6642476534665L509.43899147727274,291.4188561249112L513.9473011363636,293.8321292160165L518.4556107954545,296.31640567218824L522.9639204545454,298.69233637511604L527.4722301136364,301.1832256555162L531.9805397727273,303.63818751081146L536.4888494318182,306.05880707615944L540.997159090909,308.5111205095648L545.5054687500001,310.81076772301645L550.013778409091,312.81850673278956L554.5220880681818,315.0377106569197L559.0303977272727,316.92991802605644L563.5387073863637,318.9208772589821L568.0470170454546,320.84350172510653L572.5553267045455,323.1428571428572L577.0636363636363,324.84164599146055L581.5719460227273,326.71138549402633L586.0802556818182,328.78482270637505L590.5885653409091,330.80572926647193L595.096875,332.7206914257217L599.6051846590908,334.70567229312263L604.1134943181819,336.450144331845L608.6218039772727,338.24483760861045L613.1301136363636,340.0376539363014L617.6384232954545,341.84599057295185L622.1467329545455,343.7002142485756L626.6550426136364,345.6071235220474L631.1633522727273,347.17634127216604L635.6716619318181,348.7529396048169L640.1799715909092,350.44822629106784L644.68828125,352.01033900413995" style="fill: none;" fill="none"></path></g><g><path stroke="rgb(255, 112, 67)" stroke-width="2px" d="M121.72436079545454,-6.342159894833548L126.23267045454544,6.61053219510983L130.74098011363634,18.301000056535393L135.24928977272725,29.06950002978323L139.75759943181816,38.16457443749782L144.26590909090908,46.65190502470362L148.77421875,53.857142857142875L153.2825284090909,60.45973186053978L157.7908380681818,66.61177125653134L162.29914772727273,72.11856042292939L166.80745738636364,77.0799647893834L171.31576704545455,81.52969456497091L175.82407670454546,85.51650953054013L180.33238636363637,89.09454025502508L184.8406960227273,92.36026119777314L189.3490056818182,95.42421116016278L193.8573153409091,97.89694499308987L198.36562500000002,100.31316535778163L202.87393465909093,102.60606633702453L207.38224431818182,104.59508651947729L211.8905539772727,106.32895868437448L216.39886363636361,108.00054094380368L220.90717329545453,109.49645157436312L225.41548295454544,110.80305787186172L229.92379261363635,111.99754971555569L234.43210227272726,113.03836098320865L238.94041193181818,114.16299566130195L243.4487215909091,114.95391160554802L247.95703125,115.81145142518255L252.46534090909088,116.61959332776787L256.9736505681818,117.48630339205255L261.4819602272727,118.27975960402706L265.99026988636365,119.03779335366258L270.4985795454545,119.4704010946203L275.0068892045455,120.08622928986537L279.51519886363633,120.57960646099065L284.0235085227273,121.00806560164652L288.53181818181815,121.56465041284834L293.0401278409091,121.72310621993849L297.5484375,122.05734638168454L302.05674715909095,122.3931560348799L306.5650568181818,122.73267644770449L311.07336647727277,122.89698112635115L315.5816761363636,123.12876139245992L320.0899857954546,123.27719629215473L324.59829545454545,123.51860418527563L329.10660511363636,123.86219044251712L333.6149147727273,124.18310179698415L338.12322443181813,124.3568103805983L342.6315340909091,124.47510416493773L347.13984374999995,124.6449007722943L351.6481534090909,124.8082212431482L356.1564630681818,125.03835498438711L360.66477272727275,125.17232739055856L365.1730823863636,125.2615614785323L369.6813920454546,125.36370120297383L374.1897017045454,125.47893815306948L378.6980113636364,125.6263130682518L383.20632102272725,125.71251468855893L387.7146306818182,125.75590425900141L392.2229403409091,125.9162696825525L396.73125000000005,126.05847418342854L401.2395596590909,126.13032301517343L405.74786931818187,126.21494918997419L410.2561789772727,126.31751287651637L414.76448863636364,126.49072959125134L419.27279829545455,126.66676941308768L423.7811079545454,126.64825212762106L428.2894176136364,126.62209230550141L432.79772727272723,126.70563249598094L437.3060369318182,126.89119685541093L441.81434659090905,127.02681107032859L446.32265625,127.021691606266L450.8309659090909,127.09442035916267L455.33927556818185,127.16616322934466L459.8475852272727,127.26429884725793L464.35589488636367,127.2624675075392L468.8642045454545,127.31901632513568L473.3725142045455,127.49524328511225L477.88082386363635,127.56800188758513L482.3891335227273,127.70967133736079L486.8974431818182,127.72988844368231L491.40575284090914,127.72006553326119L495.9140625,127.79006061387736L500.42237215909086,127.72394391981818L504.93068181818177,127.75178698386905L509.43899147727274,127.87844734294674L513.9473011363636,127.86209063291116L518.4556107954545,127.98585520369654L522.9639204545454,128.04186468911695L527.4722301136364,128.0681972271926L531.9805397727273,128.13465739533922L536.4888494318182,128.19662562422894L540.997159090909,128.09730915118897L545.5054687500001,128.13577075282998L550.013778409091,128.24400282181227L554.5220880681818,128.3153377799711L559.0303977272727,128.37006948820522L563.5387073863637,128.25066461246698L568.0470170454546,128.36253390181696L572.5553267045455,128.48530976860988L577.0636363636363,128.57482797830713L581.5719460227273,128.70234216171116L586.0802556818182,128.76384984697984L590.5885653409091,128.8236280346394L595.096875,128.81957090218884L599.6051846590908,128.85831590931406L604.1134943181819,128.8107546792374L608.6218039772727,128.85953090911624L613.1301136363636,128.89255798062996L617.6384232954545,128.89677428666934L622.1467329545455,128.96119877118497L626.6550426136364,128.9951392283091L631.1633522727273,129.0188193672437L635.6716619318181,129.10054219925416L640.1799715909092,129.1750903102673L644.68828125,129.2177422072898L649.1965909090909,129.36978526345982L653.7049005681818,129.3974583480524L658.2132102272727,129.4448318808565L662.7215198863637,129.47811339034124L667.2298295454545,129.5247937822871L671.7381392045454,129.54445850008096L676.2464488636363,129.54015095594676L680.7547585227273,129.56260808169296L685.2630681818182,129.58031224559653L689.771377840909,129.56381758946932L694.2796874999999,129.67992157979222L698.787997159091,129.6949231332869L703.2963068181818,129.6927907271678L707.8046164772727,129.74801398705662L712.3129261363636,129.80219861315487L716.8212357954546,129.81434199765258L721.3295454545455,129.90855227096415L725.8378551136364,129.91958824563048L730.3461647727272,129.9890684558681L734.8544744318183,130.00044057842035L739.3627840909091,129.93417158146232L743.87109375,130.02267373222392L748.3794034090909,129.98695605516644L752.8877130681817,130.00627728641248L757.3960227272728,130.03160277257916L761.9043323863636,130.05288043174608L766.4126420454545,130.09876396657734L770.9209517045454,130.06965993568846L775.4292613636364,130.06261068102242L779.9375710227273,130.0627359022026L784.4458806818182,130.1158548993323L788.954190340909,130.1580472717198L793.4625000000001,130.1618098557663L797.970809659091,130.2602132069131L802.4791193181818,130.22660537193167L806.9874289772727,130.28271197534195L811.4957386363637,130.28206319779983L816.0040482954546,130.24225606406898L820.5123579545455,130.32631416313066L825.0206676136363,130.32685071973148L829.5289772727273,130.2958063257404L834.0372869318182,130.31144805787625L838.5455965909091,130.27342257480225L843.05390625,130.27940460979514L847.5622159090908,130.2768098466137L852.0705255681819,130.34857824645317L856.5788352272727,130.41876333648864L861.0871448863636,130.39989659259123L865.5954545454545,130.39966092007933L870.1037642045455,130.42709645668148L874.6120738636364,130.47651645513412L879.1203835227273,130.49389828112228L883.6286931818181,130.4992647136269L888.1370028409092,130.39613714269868L892.6453125,130.43507402984477L897.1536221590909,130.50440303285626L901.6619318181818,130.4490741687319L906.1702414772727,130.44338378501405L910.6785511363637,130.47956508595817L915.1868607954545,130.45443076611326L919.6951704545454,130.45238918701173L924.2034801136363,130.43594277765732L928.7117897727273,130.47685287947328L933.2200994318182,130.51342856054612L937.728409090909,130.44279926398204L942.2367187499999,130.53098895103003" style="fill: none;" fill="none"></path></g></g></g></g><g opacity="0.2"><g><g><g><path stroke="rgb(0, 119, 187)" stroke-width="2px" d="M90.16619318181819,-5.134300544965983L94.6745028409091,61.33135957549776L99.18281250000001,87.0626148264952L103.69112215909091,97.75044330044341L108.19943181818181,102.01444519291897L112.70774147727272,104.51654569121634L117.21605113636363,106.16002989128494L121.72436079545454,107.79161874009952L126.23267045454544,110.61547768540943L130.74098011363634,112.23536909132312L135.24928977272725,114.86977407947653L139.75759943181816,113.64779740901947L144.26590909090908,115.14811001656852L148.77421875,116.36080770579524L153.2825284090909,116.50044904988465L157.7908380681818,117.36341569596247L162.29914772727273,119.32342336268447L166.80745738636364,119.23632343285794L171.31576704545455,118.54853526310924L175.82407670454546,120.8898848228914L180.33238636363637,121.62702870433128L184.8406960227273,121.29117368786889L189.3490056818182,122.73945291131147L193.8573153409091,122.96347782369038L198.36562500000002,124.61961748046977L202.87393465909093,125.6036879876024L207.38224431818182,126.59369734405287L211.8905539772727,126.66304322125636L216.39886363636361,127.21958980737548L220.90717329545453,130.41500878134116L225.41548295454544,130.11709949279796L229.92379261363635,134.9530319061371L234.43210227272726,132.94589219699307L238.94041193181818,136.36594774474636L243.4487215909091,138.56898037829222L247.95703125,139.73077424287135L252.46534090909088,142.77100078318784L256.9736505681818,143.38603504943643L261.4819602272727,147.87105822106557L265.99026988636365,149.66702697168262L270.4985795454545,152.68632703612062L275.0068892045455,153.53644830988034L279.51519886363633,156.29465750783112L284.0235085227273,159.98647823292993L288.53181818181815,162.93797496002153L293.0401278409091,165.86309010374433L297.5484375,167.2910583284128L302.05674715909095,173.91313975989215L306.5650568181818,175.82933186994939L311.07336647727277,179.52379668431198L315.5816761363636,182.5148603084082L320.0899857954546,185.45872130526382L324.59829545454545,189.12838724923105L329.10660511363636,191.62589740109829L333.6149147727273,196.20812345541867L338.12322443181813,198.9028336046969L342.6315340909091,203.5548074917173L347.13984374999995,206.4575509327298L351.6481534090909,210.02720302036792L356.1564630681818,212.36856536590255L360.66477272727275,217.52578163286998L365.1730823863636,220.9620779021058L369.6813920454546,224.01256363755004L374.1897017045454,225.6093085053346L378.6980113636364,232.2653780645064L383.20632102272725,233.24054959516286L387.7146306818182,236.91272071703406L392.2229403409091,241.80220789872462L396.73125000000005,243.52353841075785L401.2395596590909,247.67587784823965L405.74786931818187,248.3034689875245L410.2561789772727,253.2730923376493L414.76448863636364,255.01939511285525L419.27279829545455,259.1990735402974L423.7811079545454,263.0221796853107L428.2894176136364,263.9022136425596L432.79772727272723,266.7123912215357L437.3060369318182,271.7881628861782L441.81434659090905,273.21236296563126L446.32265625,276.51007588073475L450.8309659090909,275.51044003736826L455.33927556818185,282.33147130573485L459.8475852272727,288.02895333896106L464.35589488636367,288.70568105545874L468.8642045454545,287.56539118648647L473.3725142045455,290.98200893186396L477.88082386363635,292.4846223473235L482.3891335227273,297.55724817757357L486.8974431818182,300.83811796104163L491.40575284090914,300.0456485167752L495.9140625,304.78054931766064L500.42237215909086,304.9969219086971L504.93068181818177,307.3781869250845L509.43899147727274,312.61206802829355L513.9473011363636,312.26244047184804L518.4556107954545,315.31805848087697L522.9639204545454,316.8229055389003L527.4722301136364,320.2382006037767L531.9805397727273,322.40377542758205L536.4888494318182,324.54819948947056L540.997159090909,327.25540780306955L545.5054687500001,328.3305212392761L550.013778409091,328.01931691631205L554.5220880681818,331.9154987695326L559.0303977272727,331.2209617062962L563.5387073863637,333.9892819892422L568.0470170454546,335.37363838324814L572.5553267045455,340.6602996320407L577.0636363636363,337.61961044652753L581.5719460227273,340.8260348159502L586.0802556818182,344.50502124906416L590.5885653409091,346.11053724292947L595.096875,347.1905799364063L599.6051846590908,349.72693582631086L604.1134943181819,349.5843653530078L608.6218039772727,351.77149831875175L613.1301136363636,353.5496332885724L617.6384232954545,355.4794095596788L622.1467329545455,357.693148811531L626.6550426136364,360.0137089742945L631.1633522727273,358.94763147643016L635.6716619318181,360.5814242411428L640.1799715909092,363.1989182647566L644.68828125,363.72658791913244" style="fill: none;" fill="none"></path></g><g><path stroke="rgb(255, 112, 67)" stroke-width="2px" d="M99.18281250000001,-62.28969242307291L103.69112215909091,1.918892933542995L108.19943181818181,35.053678837785235L112.70774147727272,51.739898066197085L117.21605113636363,65.33020667118632L121.72436079545454,77.51990878067946L126.23267045454544,81.00943579166388L130.74098011363634,89.15476649213883L135.24928977272725,97.38676092190687L139.75759943181816,96.97758168029353L144.26590909090908,103.2864037199234L148.77421875,102.4408082080528L153.2825284090909,105.80990305566222L157.7908380681818,109.5874075305957L162.29914772727273,110.93224217222875L166.80745738636364,112.32189572143672L171.31576704545455,113.31889045484088L175.82407670454546,114.12603023772378L180.33238636363637,114.86472156371141L184.8406960227273,115.97583140244227L189.3490056818182,117.68983796618978L193.8573153409091,115.78867995564421L198.36562500000002,117.89546708604482L202.87393465909093,119.34816001546815L207.38224431818182,119.10289471285917L211.8905539772727,118.96675876640947L216.39886363636361,120.21691871486034L220.90717329545453,120.42737279862796L225.41548295454544,120.34256616577747L229.92379261363635,120.72156701244177L234.43210227272726,120.63373148282585L238.94041193181818,122.40070959998853L243.4487215909091,120.71826077028192L247.95703125,122.07950530225085L252.46534090909088,122.52869063931499L256.9736505681818,123.83876868522918L261.4819602272727,124.09275154695318L265.99026988636365,124.59238329490965L270.4985795454545,122.62213902737474L275.0068892045455,124.5926123651494L279.51519886363633,124.18325095812258L284.0235085227273,124.13515267364768L288.53181818181815,125.63933019640301L293.0401278409091,122.8743652765182L297.5484375,124.49523994138728L302.05674715909095,124.84336716889023L306.5650568181818,125.21085240306887L311.07336647727277,124.09233483833313L315.5816761363636,124.81766829339657L320.0899857954546,124.35719457811233L324.59829545454545,125.27864139464299L329.10660511363636,126.3727103452864L333.6149147727273,126.5271765300905L338.12322443181813,125.6220500004616L342.6315340909091,125.33585013577537L347.13984374999995,125.88178418230173L351.6481534090909,125.99786744580616L356.1564630681818,126.71704186141874L360.66477272727275,126.1477503120877L365.1730823863636,125.91070736014026L369.6813920454546,126.1069574179698L374.1897017045454,126.31775520490854L378.6980113636364,126.69979397862778L383.20632102272725,126.33965941221051L387.7146306818182,126.07131603231669L392.2229403409091,127.08477577904918L396.73125000000005,127.09429528097084L401.2395596590909,126.65294471153605L405.74786931818187,126.83067966191159L410.2561789772727,127.06403350963153L414.76448863636364,127.75330869339479L419.27279829545455,127.9500133207013L423.7811079545454,126.5137933299663L428.2894176136364,126.43216638480284L432.79772727272723,127.31348762116615L437.3060369318182,128.2441731677488L441.81434659090905,128.01460933734478L446.32265625,126.98450664820614L450.8309659090909,127.62350665671576L455.33927556818185,127.68806923426783L459.8475852272727,127.97858320315115L464.35589488636367,127.24916459316216L468.8642045454545,127.73026938763743L473.3725142045455,128.77993885310883L477.88082386363635,128.09731508629588L482.3891335227273,128.74173088738368L486.8974431818182,127.87681243449339L491.40575284090914,127.64872209382466L495.9140625,128.2992443853251L500.42237215909086,127.24427838884593L504.93068181818177,127.95416296776001L509.43899147727274,128.80089504673904L513.9473011363636,127.74330734961093L518.4556107954545,128.88716229902352L522.9639204545454,128.4491973806129L527.4722301136364,128.25958888870707L531.9805397727273,128.6180948643997L536.4888494318182,128.64734798722458L540.997159090909,127.37725703945252L545.5054687500001,128.41538774706817L550.013778409091,129.03195255050963L554.5220880681818,128.83428633164257L559.0303977272727,128.7681003665946L563.5387073863637,127.38531495922007L568.0470170454546,129.17702324681755L572.5553267045455,129.37940234926944L577.0636363636363,129.22629383808479L581.5719460227273,129.63102904655028L586.0802556818182,129.2112193191944L590.5885653409091,129.25840319129097L595.096875,128.79010041694883L599.6051846590908,129.13999535408246L604.1134943181819,128.4655756928256L608.6218039772727,129.21420933300985L613.1301136363636,129.13264015503933L617.6384232954545,128.92740605486918L622.1467329545455,129.42981081184968L626.6550426136364,129.24186556330008L631.1633522727273,129.19092419186174L635.6716619318181,129.6951850995332L640.1799715909092,129.71744966024667L644.68828125,129.52784938903685L649.1965909090909,130.47766153503275L653.7049005681818,129.5985995559739L658.2132102272727,129.78930096811212L662.7215198863637,129.72004642748706L667.2298295454545,129.86421810974363L671.7381392045454,129.68736821012592L676.2464488636363,129.508861653987L680.7547585227273,129.7258202075602L685.2630681818182,129.70896895587074L689.771377840909,129.444032217919L694.2796874999999,130.52531527373966L698.787997159091,129.8039340065331L703.2963068181818,129.67730060199253L707.8046164772727,130.14962416592658L712.3129261363636,130.19624716331882L716.8212357954546,129.90257855286424L721.3295454545455,130.59422947530152L725.8378551136364,129.99977633955902L730.3461647727272,130.4945061622967L734.8544744318183,130.0830716991943L739.3627840909091,129.45339874064595L743.87109375,130.6667327281806L748.3794034090909,129.72767116636302L752.8877130681817,130.1466898154693L757.3960227272728,130.21567189674263L761.9043323863636,130.2075168864428L766.4126420454545,130.43238886143254L770.9209517045454,129.85835753654328L775.4292613636364,130.01140883794372L779.9375710227273,130.06364556908068L784.4458806818182,130.5021456179035L788.954190340909,130.46481063014042L793.4625000000001,130.1891450608564L797.970809659091,130.97646842822428L802.4791193181818,129.98262616694058L806.9874289772727,130.69075346998508L811.4957386363637,130.27735023851795L816.0040482954546,129.95330819508703L820.5123579545455,130.9379779420147L825.0206676136363,130.33074855695205L829.5289772727273,130.07042513673076L834.0372869318182,130.42511233452524L838.5455965909091,129.99739735976544L843.05390625,130.32286607083313L847.5622159090908,130.2579612623233L852.0705255681819,130.87068542249455L856.5788352272727,130.9293359359089L861.0871448863636,130.26289142979306L865.5954545454545,130.39794889393593L870.1037642045455,130.62651012565104L874.6120738636364,130.83588082486045L879.1203835227273,130.6202117435746L883.6286931818181,130.53825313994176L888.1370028409092,129.64850911679653L892.6453125,130.71814967670917L897.1536221590909,131.00873925380606L901.6619318181818,130.04758303079888L906.1702414772727,130.40205089931223L910.6785511363637,130.7425928183612L915.1868607954545,130.27193499166688L919.6951704545454,130.43755881598173L924.2034801136363,130.31650765840493L928.7117897727273,130.77428575407433L933.2200994318182,130.77932541964833L937.728409090909,129.93043752867936L942.2367187499999,131.1727700376048" style="fill: none;" fill="none"></path></g></g></g></g></g></g><g transform="translate(41, 377)" clip-path="url(#clip_1)"><clipPath id="clip_1"><rect width="991" height="23"></rect></clipPath><g><g><line x1="0" y1="0" x2="0" y2="5" style="visibility: inherit;" fill="rgb(0, 0, 0)" stroke="rgb(204, 204, 204)" stroke-width="1px"></line><line x1="90.16619318181819" y1="0" x2="90.16619318181819" y2="5" style="visibility: inherit;" fill="rgb(0, 0, 0)" stroke="rgb(204, 204, 204)" stroke-width="1px"></line><line x1="180.33238636363637" y1="0" x2="180.33238636363637" y2="5" style="visibility: inherit;" fill="rgb(0, 0, 0)" stroke="rgb(204, 204, 204)" stroke-width="1px"></line><line x1="270.4985795454545" y1="0" x2="270.4985795454545" y2="5" style="visibility: inherit;" fill="rgb(0, 0, 0)" stroke="rgb(204, 204, 204)" stroke-width="1px"></line><line x1="360.66477272727275" y1="0" x2="360.66477272727275" y2="5" style="visibility: inherit;" fill="rgb(0, 0, 0)" stroke="rgb(204, 204, 204)" stroke-width="1px"></line><line x1="450.8309659090909" y1="0" x2="450.8309659090909" y2="5" style="visibility: inherit;" fill="rgb(0, 0, 0)" stroke="rgb(204, 204, 204)" stroke-width="1px"></line><line x1="540.997159090909" y1="0" x2="540.997159090909" y2="5" style="visibility: inherit;" fill="rgb(0, 0, 0)" stroke="rgb(204, 204, 204)" stroke-width="1px"></line><line x1="631.1633522727273" y1="0" x2="631.1633522727273" y2="5" style="visibility: inherit;" fill="rgb(0, 0, 0)" stroke="rgb(204, 204, 204)" stroke-width="1px"></line><line x1="721.3295454545455" y1="0" x2="721.3295454545455" y2="5" style="visibility: inherit;" fill="rgb(0, 0, 0)" stroke="rgb(204, 204, 204)" stroke-width="1px"></line><line x1="811.4957386363637" y1="0" x2="811.4957386363637" y2="5" style="visibility: inherit;" fill="rgb(0, 0, 0)" stroke="rgb(204, 204, 204)" stroke-width="1px"></line><line x1="901.6619318181818" y1="0" x2="901.6619318181818" y2="5" style="visibility: inherit;" fill="rgb(0, 0, 0)" stroke="rgb(204, 204, 204)" stroke-width="1px"></line><line x1="991.828125" y1="0" x2="991.828125" y2="5" style="visibility: inherit;" fill="rgb(0, 0, 0)" stroke="rgb(204, 204, 204)" stroke-width="1px"></line></g><g transform="translate(0, 8)"><text x="0" y="0" dx="0em" dy="0.95em" style="text-anchor: middle; visibility: hidden; font-family: Roboto, sans-serif; font-size: 12px; font-weight: 200;" fill="rgb(33, 33, 33)" stroke="none" stroke-width="1px">-20</text><text x="90.16619318181819" y="0" dx="0em" dy="0.95em" style="text-anchor: middle; visibility: inherit; font-family: Roboto, sans-serif; font-size: 12px; font-weight: 200;" fill="rgb(33, 33, 33)" stroke="none" stroke-width="1px">0</text><text x="180.33238636363637" y="0" dx="0em" dy="0.95em" style="text-anchor: middle; visibility: inherit; font-family: Roboto, sans-serif; font-size: 12px; font-weight: 200;" fill="rgb(33, 33, 33)" stroke="none" stroke-width="1px">20</text><text x="270.4985795454545" y="0" dx="0em" dy="0.95em" style="text-anchor: middle; visibility: inherit; font-family: Roboto, sans-serif; font-size: 12px; font-weight: 200;" fill="rgb(33, 33, 33)" stroke="none" stroke-width="1px">40</text><text x="360.66477272727275" y="0" dx="0em" dy="0.95em" style="text-anchor: middle; visibility: inherit; font-family: Roboto, sans-serif; font-size: 12px; font-weight: 200;" fill="rgb(33, 33, 33)" stroke="none" stroke-width="1px">60</text><text x="450.8309659090909" y="0" dx="0em" dy="0.95em" style="text-anchor: middle; visibility: inherit; font-family: Roboto, sans-serif; font-size: 12px; font-weight: 200;" fill="rgb(33, 33, 33)" stroke="none" stroke-width="1px">80</text><text x="540.997159090909" y="0" dx="0em" dy="0.95em" style="text-anchor: middle; visibility: inherit; font-family: Roboto, sans-serif; font-size: 12px; font-weight: 200;" fill="rgb(33, 33, 33)" stroke="none" stroke-width="1px">100</text><text x="631.1633522727273" y="0" dx="0em" dy="0.95em" style="text-anchor: middle; visibility: inherit; font-family: Roboto, sans-serif; font-size: 12px; font-weight: 200;" fill="rgb(33, 33, 33)" stroke="none" stroke-width="1px">120</text><text x="721.3295454545455" y="0" dx="0em" dy="0.95em" style="text-anchor: middle; visibility: inherit; font-family: Roboto, sans-serif; font-size: 12px; font-weight: 200;" fill="rgb(33, 33, 33)" stroke="none" stroke-width="1px">140</text><text x="811.4957386363637" y="0" dx="0em" dy="0.95em" style="text-anchor: middle; visibility: inherit; font-family: Roboto, sans-serif; font-size: 12px; font-weight: 200;" fill="rgb(33, 33, 33)" stroke="none" stroke-width="1px">160</text><text x="901.6619318181818" y="0" dx="0em" dy="0.95em" style="text-anchor: middle; visibility: inherit; font-family: Roboto, sans-serif; font-size: 12px; font-weight: 200;" fill="rgb(33, 33, 33)" stroke="none" stroke-width="1px">180</text><text x="991.828125" y="0" dx="0em" dy="0.95em" style="text-anchor: middle; visibility: hidden; font-family: Roboto, sans-serif; font-size: 12px; font-weight: 200;" fill="rgb(33, 33, 33)" stroke="none" stroke-width="1px">200</text></g><line x1="0" y1="0" x2="991.828125" y2="0" fill="rgb(0, 0, 0)" stroke="rgb(204, 204, 204)" stroke-width="1px"></line></g></g></g></g></svg>