<svg viewBox="0 0 1033 400" xmlns="http://www.w3.org/2000/svg"><g><g><g><g><g><line x1="41.171875" y1="343.7383689186522" x2="36.171875" y2="343.7383689186522" style="visibility: inherit;" fill="rgb(0, 0, 0)" stroke="rgb(204, 204, 204)" stroke-width="1px"></line><line x1="41.171875" y1="305.6186903003328" x2="36.171875" y2="305.6186903003328" style="visibility: inherit;" fill="rgb(0, 0, 0)" stroke="rgb(204, 204, 204)" stroke-width="1px"></line><line x1="41.171875" y1="273.3889612592882" x2="36.171875" y2="273.3889612592882" style="visibility: inherit;" fill="rgb(0, 0, 0)" stroke="rgb(204, 204, 204)" stroke-width="1px"></line><line x1="41.171875" y1="245.4703000663283" x2="36.171875" y2="245.4703000663283" style="visibility: inherit;" fill="rgb(0, 0, 0)" stroke="rgb(204, 204, 204)" stroke-width="1px"></line><line x1="41.171875" y1="220.84429563293318" x2="36.171875" y2="220.84429563293318" style="visibility: inherit;" fill="rgb(0, 0, 0)" stroke="rgb(204, 204, 204)" stroke-width="1px"></line><line x1="41.171875" y1="198.8155840172481" x2="36.171875" y2="198.8155840172481" style="visibility: inherit;" fill="rgb(0, 0, 0)" stroke="rgb(204, 204, 204)" stroke-width="1px"></line><line x1="41.171875" y1="53.8927991158443" x2="36.171875" y2="53.8927991158443" style="visibility: inherit;" fill="rgb(0, 0, 0)" stroke="rgb(204, 204, 204)" stroke-width="1px"></line></g><g transform="translate(31.171875, 0)"><text x="0" y="343.7383689186522" dx="0em" dy="0.3em" style="text-anchor: end; visibility: inherit; font-family: Roboto, sans-serif; font-size: 12px; font-weight: 200;" fill="rgb(33, 33, 33)" stroke="none" stroke-width="1px">50</text><text x="0" y="305.6186903003328" dx="0em" dy="0.3em" style="text-anchor: end; visibility: hidden; font-family: Roboto, sans-serif; font-size: 12px; font-weight: 200;" fill="rgb(33, 33, 33)" stroke="none" stroke-width="1px">60</text><text x="0" y="273.3889612592882" dx="0em" dy="0.3em" style="text-anchor: end; visibility: inherit; font-family: Roboto, sans-serif; font-size: 12px; font-weight: 200;" fill="rgb(33, 33, 33)" stroke="none" stroke-width="1px">70</text><text x="0" y="245.4703000663283" dx="0em" dy="0.3em" style="text-anchor: end; visibility: hidden; font-family: Roboto, sans-serif; font-size: 12px; font-weight: 200;" fill="rgb(33, 33, 33)" stroke="none" stroke-width="1px">80</text><text x="0" y="220.84429563293318" dx="0em" dy="0.3em" style="text-anchor: end; visibility: inherit; font-family: Roboto, sans-serif; font-size: 12px; font-weight: 200;" fill="rgb(33, 33, 33)" stroke="none" stroke-width="1px">90</text><text x="0" y="198.8155840172481" dx="0em" dy="0.3em" style="text-anchor: end; visibility: hidden; font-family: Roboto, sans-serif; font-size: 12px; font-weight: 200;" fill="rgb(33, 33, 33)" stroke="none" stroke-width="1px">100</text><text x="0" y="53.8927991158443" dx="0em" dy="0.3em" style="text-anchor: end; visibility: inherit; font-family: Roboto, sans-serif; font-size: 12px; font-weight: 200;" fill="rgb(33, 33, 33)" stroke="none" stroke-width="1px">200</text></g><line x1="41.171875" y1="0" x2="41.171875" y2="377" fill="rgb(0, 0, 0)" stroke="rgb(204, 204, 204)" stroke-width="1px"></line></g></g><g transform="translate(41, 0)" clip-path="url(#clip_0)"><clipPath id="clip_0"><rect width="991" height="377"></rect></clipPath><g><g><g><line x1="0" y1="0" x2="0" y2="377" fill="rgb(0, 0, 0)" stroke="rgb(66, 66, 66)" stroke-width="1px" opacity="0.25"></line><line x1="90.16619318181819" y1="0" x2="90.16619318181819" y2="377" fill="rgb(0, 0, 0)" stroke="rgb(66, 66, 66)" stroke-width="1px" opacity="0.25"></line><line x1="180.33238636363637" y1="0" x2="180.33238636363637" y2="377" fill="rgb(0, 0, 0)" stroke="rgb(66, 66, 66)" stroke-width="1px" opacity="0.25"></line><line x1="270.4985795454545" y1="0" x2="270.4985795454545" y2="377" fill="rgb(0, 0, 0)" stroke="rgb(66, 66, 66)" stroke-width="1px" opacity="0.25"></line><line x1="360.66477272727275" y1="0" x2="360.66477272727275" y2="377" fill="rgb(0, 0, 0)" stroke="rgb(66, 66, 66)" stroke-width="1px" opacity="0.25"></line><line x1="450.8309659090909" y1="0" x2="450.8309659090909" y2="377" fill="rgb(0, 0, 0)" stroke="rgb(66, 66, 66)" stroke-width="1px" opacity="0.25"></line><line x1="540.997159090909" y1="0" x2="540.997159090909" y2="377" fill="rgb(0, 0, 0)" stroke="rgb(66, 66, 66)" stroke-width="1px" opacity="0.25"></line><line x1="631.1633522727273" y1="0" x2="631.1633522727273" y2="377" fill="rgb(0, 0, 0)" stroke="rgb(66, 66, 66)" stroke-width="1px" opacity="0.25"></line><line x1="721.3295454545455" y1="0" x2="721.3295454545455" y2="377" fill="rgb(0, 0, 0)" stroke="rgb(66, 66, 66)" stroke-width="1px" opacity="0.25"></line><line x1="811.4957386363637" y1="0" x2="811.4957386363637" y2="377" fill="rgb(0, 0, 0)" stroke="rgb(66, 66, 66)" stroke-width="1px" opacity="0.25"></line><line x1="901.6619318181818" y1="0" x2="901.6619318181818" y2="377" fill="rgb(0, 0, 0)" stroke="rgb(66, 66, 66)" stroke-width="1px" opacity="0.25"></line><line x1="991.828125" y1="0" x2="991.828125" y2="377" fill="rgb(0, 0, 0)" stroke="rgb(66, 66, 66)" stroke-width="1px" opacity="0.25"></line></g><g><line x1="0" y1="343.7383689186522" x2="991.828125" y2="343.7383689186522" fill="rgb(0, 0, 0)" stroke="rgb(66, 66, 66)" stroke-width="1px" opacity="0.25"></line><line x1="0" y1="305.6186903003328" x2="991.828125" y2="305.6186903003328" fill="rgb(0, 0, 0)" stroke="rgb(66, 66, 66)" stroke-width="1px" opacity="0.25"></line><line x1="0" y1="273.3889612592882" x2="991.828125" y2="273.3889612592882" fill="rgb(0, 0, 0)" stroke="rgb(66, 66, 66)" stroke-width="1px" opacity="0.25"></line><line x1="0" y1="245.4703000663283" x2="991.828125" y2="245.4703000663283" fill="rgb(0, 0, 0)" stroke="rgb(66, 66, 66)" stroke-width="1px" opacity="0.25"></line><line x1="0" y1="220.84429563293318" x2="991.828125" y2="220.84429563293318" fill="rgb(0, 0, 0)" stroke="rgb(66, 66, 66)" stroke-width="1px" opacity="0.25"></line><line x1="0" y1="198.8155840172481" x2="991.828125" y2="198.8155840172481" fill="rgb(0, 0, 0)" stroke="rgb(66, 66, 66)" stroke-width="1px" opacity="0.25"></line><line x1="0" y1="53.8927991158443" x2="991.828125" y2="53.8927991158443" fill="rgb(0, 0, 0)" stroke="rgb(66, 66, 66)" stroke-width="1px" opacity="0.25"></line></g></g></g><g><g><line x1="90.16619318181819" y1="0" x2="90.16619318181819" y2="377" fill="rgb(0, 0, 0)" stroke="rgb(153, 153, 153)" stroke-width="1.5px"></line></g></g><g><g><g><g><g><path stroke="rgb(0, 119, 187)" stroke-width="2px" d="M90.16619318181819,-6.447893588341619L94.6745028409091,27.113831239459508L99.18281250000001,47.91073329779453L103.69112215909091,61.20558804541347L108.19943181818181,70.68028829296205L112.70774147727272,77.55756806502235L117.21605113636363,82.81740638254408L121.72436079545454,86.83367546573943L126.23267045454544,90.42625623569339L130.74098011363634,93.36278296875395L135.24928977272725,96.1606685922914L139.75759943181816,98.21742002867124L144.26590909090908,100.07938296661133L148.77421875,101.81480927514916L153.2825284090909,103.12400552647749L157.7908380681818,104.39793381084161L162.29914772727273,105.75947604801962L166.80745738636364,106.90955065355185L171.31576704545455,107.81434313466127L175.82407670454546,108.88860904727757L180.33238636363637,109.9478758550887L184.8406960227273,110.93099218031232L189.3490056818182,111.8451805765788L193.8573153409091,112.63393979457419L198.36562500000002,113.53414739201583L202.87393465909093,114.47059955782764L207.38224431818182,115.39442577097265L211.8905539772727,116.27036055448966L216.39886363636361,117.11469135065911L220.90717329545453,118.2687112313463L225.41548295454544,119.20290335126057L229.92379261363635,120.62683394716785L234.43210227272726,121.52261087524504L238.94041193181818,122.86872091294981L243.4487215909091,124.32198546112807L247.95703125,125.67613865606971L252.46534090909088,127.20367257608814L256.9736505681818,128.65005464752875L261.4819602272727,130.48349951836897L265.99026988636365,132.2552377890065L270.4985795454545,134.2706857860767L275.0068892045455,136.15227117870177L279.51519886363633,138.13557699430712L284.0235085227273,140.17489856217992L288.53181818181815,142.3542340253416L293.0401278409091,144.5279422718687L297.5484375,146.69171777502538L302.05674715909095,149.3523603455099L306.5650568181818,151.83377173105168L311.07336647727277,154.59874132728064L315.5816761363636,157.2473517524323L320.0899857954546,159.88682751256346L324.59829545454545,162.7803379786413L329.10660511363636,165.56694741177122L333.6149147727273,168.70414937543111L338.12322443181813,171.57508936292092L342.6315340909091,174.69072547298518L347.13984374999995,177.80343481492085L351.6481534090909,180.95444224821986L356.1564630681818,183.9847120442913L360.66477272727275,187.51067976419657L365.1730823863636,190.77733399468957L369.6813920454546,194.0163321539379L374.1897017045454,197.18288218528033L378.6980113636364,200.68911021936628L383.20632102272725,203.93451911597418L387.7146306818182,207.36604190770782L392.2229403409091,210.92678223619274L396.73125000000005,214.2620240905449L401.2395596590909,217.67392351394034L405.74786931818187,220.90383117105483L410.2561789772727,224.29286058382937L414.76448863636364,227.50081996580388L419.27279829545455,230.94333273397012L423.7811079545454,234.32226487804257L428.2894176136364,237.54180441315017L432.79772727272723,240.59747273425427L437.3060369318182,243.846365064058L441.81434659090905,246.85822054900885L446.32265625,250.00881787582307L450.8309659090909,252.54772136763935L455.33927556818185,255.8194088210516L459.8475852272727,259.33424428300384L464.35589488636367,262.4636304026242L468.8642045454545,265.1876612220679L473.3725142045455,267.96837789054445L477.88082386363635,270.5153425616133L482.3891335227273,273.59453271792415L486.8974431818182,276.45805192421807L491.40575284090914,279.04699058072634L495.9140625,281.9157464444322L500.42237215909086,284.50645901514724L504.93068181818177,287.06526935306766L509.43899147727274,290.00998593123336L513.9473011363636,292.6491657993947L518.4556107954545,295.2003224531715L522.9639204545454,297.65779912754294L527.4722301136364,300.1138366509642L531.9805397727273,302.7282418962319L536.4888494318182,305.3015613848611L540.997159090909,308.0685855424373L545.5054687500001,310.4891315021106L550.013778409091,312.45307862890877L554.5220880681818,314.76535392733336L559.0303977272727,316.7900706308476L563.5387073863637,318.78898376351873L568.0470170454546,320.6766341826759L572.5553267045455,323.142857142857L577.0636363636363,324.97789832379283L581.5719460227273,326.77799559434993L586.0802556818182,329.0888492597732L590.5885653409091,331.29071147942295L595.096875,333.2614170969594L599.6051846590908,335.47559651637914L604.1134943181819,337.239697572746L608.6218039772727,338.85028556413937L613.1301136363636,340.66513000125417L617.6384232954545,342.5843342894708L622.1467329545455,344.39453121083096L626.6550426136364,346.31032727234134L631.1633522727273,347.98719461186886L635.6716619318181,349.43832256484166L640.1799715909092,351.18144242775065L644.68828125,352.8931458625293" style="fill: none;" fill="none"></path></g><g><path stroke="rgb(255, 112, 67)" stroke-width="2px" d="M121.72436079545454,-2.7925653227700225L126.23267045454544,9.440017085427009L130.74098011363634,20.49598509783842L135.24928977272725,30.70637134202512L139.75759943181816,39.195453498415404L144.26590909090908,47.091704569236214L148.77421875,53.85714285714292L153.2825284090909,60.03120074611487L157.7908380681818,65.72617162778744L162.29914772727273,70.92547682003323L166.80745738636364,75.45462621569759L171.31576704545455,79.54642766725618L175.82407670454546,83.13175949627585L180.33238636363637,86.33073601041323L184.8406960227273,89.37578635558008L189.3490056818182,92.2128329335675L193.8573153409091,94.39920845889442L198.36562500000002,96.59103759099763L202.87393465909093,98.62065391967671L207.38224431818182,100.4136920036244L211.8905539772727,101.89161634616494L216.39886363636361,103.3501015354906L220.90717329545453,104.66954319496085L225.41548295454544,105.79616763982095L229.92379261363635,106.89406144504842L234.43210227272726,107.96920918208134L238.94041193181818,109.08570787308975L243.4487215909091,109.74724161013762L247.95703125,110.50514502914032L252.46534090909088,111.2259745989609L256.9736505681818,112.0351976389703L261.4819602272727,112.77010397299443L265.99026988636365,113.42495230734993L270.4985795454545,113.7504224719776L275.0068892045455,114.26236560760412L279.51519886363633,114.67390951181031L284.0235085227273,115.0530692841898L288.53181818181815,115.50587372438933L293.0401278409091,115.66470894600167L297.5484375,115.98235601972742L302.05674715909095,116.34998584134992L306.5650568181818,116.68680553385761L311.07336647727277,116.77598389647865L315.5816761363636,117.00805231869514L320.0899857954546,117.15453293672988L324.59829545454545,117.28637382945857L329.10660511363636,117.51099464184306L333.6149147727273,117.82347841245495L338.12322443181813,117.97805240195048L342.6315340909091,118.01136850759173L347.13984374999995,118.2477516023341L351.6481534090909,118.34115082232536L356.1564630681818,118.50327491509358L360.66477272727275,118.61967427894574L365.1730823863636,118.71012027001771L369.6813920454546,118.84892872941133L374.1897017045454,118.8666488782769L378.6980113636364,119.0997941346994L383.20632102272725,119.19037575143786L387.7146306818182,119.19887281801284L392.2229403409091,119.35398476405389L396.73125000000005,119.50076605247614L401.2395596590909,119.55163584103272L405.74786931818187,119.63139353392874L410.2561789772727,119.69420161821165L414.76448863636364,119.83919990228048L419.27279829545455,119.92898928484261L423.7811079545454,119.87742759858486L428.2894176136364,119.92778568815302L432.79772727272723,120.06656640315498L437.3060369318182,120.24695967133029L441.81434659090905,120.34878438860444L446.32265625,120.33895525657474L450.8309659090909,120.36027698211042L455.33927556818185,120.36304600185927L459.8475852272727,120.4280854158613L464.35589488636367,120.4450442636361L468.8642045454545,120.48670401996046L473.3725142045455,120.69190794885417L477.88082386363635,120.89241812385457L482.3891335227273,121.03637295832051L486.8974431818182,121.02710915611102L491.40575284090914,121.03101007227288L495.9140625,121.07868653576831L500.42237215909086,121.00122342469622L504.93068181818177,120.97801366049495L509.43899147727274,121.09644210883208L513.9473011363636,121.15513530775105L518.4556107954545,121.28628782809027L522.9639204545454,121.37600400718942L527.4722301136364,121.43961830646433L531.9805397727273,121.3868783081149L536.4888494318182,121.4582986986369L540.997159090909,121.4338511825068L545.5054687500001,121.40777629260772L550.013778409091,121.39195753302974L554.5220880681818,121.43465107378269L559.0303977272727,121.54632578160833L563.5387073863637,121.42276101396465L568.0470170454546,121.4411349941345L572.5553267045455,121.470363637426L577.0636363636363,121.59558297165627L581.5719460227273,121.70425778338773L586.0802556818182,121.69989070423136L590.5885653409091,121.7719938295408L595.096875,121.79354395751824L599.6051846590908,121.79620679398772L604.1134943181819,121.78861504127788L608.6218039772727,121.88218473248938L613.1301136363636,121.86323125461692L617.6384232954545,121.95232523839081L622.1467329545455,121.9589885274124L626.6550426136364,121.96337029253446L631.1633522727273,121.98234330846441L635.6716619318181,122.08800991969933L640.1799715909092,122.1999036992501L644.68828125,122.2182247155046L649.1965909090909,122.35395743729947L653.7049005681818,122.28216987099756L658.2132102272727,122.35758335971386L662.7215198863637,122.37011121245784L667.2298295454545,122.44657676709308L671.7381392045454,122.412067255212L676.2464488636363,122.49014403088344L680.7547585227273,122.47822617581092L685.2630681818182,122.54336772932113L689.771377840909,122.55776760506738L694.2796874999999,122.65489188127724L698.787997159091,122.63911569583954L703.2963068181818,122.60903582422807L707.8046164772727,122.6663942371123L712.3129261363636,122.7625783233482L716.8212357954546,122.79398246249124L721.3295454545455,122.87314900716879L725.8378551136364,122.8565655544325L730.3461647727272,122.97766639932262L734.8544744318183,123.04692186838054L739.3627840909091,122.90570199193478L743.87109375,122.94214883346874L748.3794034090909,123.00372111016763L752.8877130681817,122.96649865068548L757.3960227272728,122.91526839853628L761.9043323863636,122.94982062513944L766.4126420454545,122.93356898344985L770.9209517045454,122.98295648497108L775.4292613636364,122.95886309294266L779.9375710227273,122.9676689723478L784.4458806818182,123.00577012362287L788.954190340909,123.00698879961777L793.4625000000001,122.97436336448504L797.970809659091,123.038429188527L802.4791193181818,123.0020244507873L806.9874289772727,123.05263429815412L811.4957386363637,123.02523543575617L816.0040482954546,123.08406170221178L820.5123579545455,123.19940029565426L825.0206676136363,123.18319264200125L829.5289772727273,123.17375397181134L834.0372869318182,123.14715926000345L838.5455965909091,123.18323370801774L843.05390625,123.17417988693454L847.5622159090908,123.2061767249542L852.0705255681819,123.25292406475643L856.5788352272727,123.27342225311524L861.0871448863636,123.3592953676842L865.5954545454545,123.35242819437913L870.1037642045455,123.32319481325773L874.6120738636364,123.34942550423987L879.1203835227273,123.32180949759336L883.6286931818181,123.34503540264916L888.1370028409092,123.24124154686832L892.6453125,123.3087640995911L897.1536221590909,123.35178241961574L901.6619318181818,123.33924335685626L906.1702414772727,123.3673764480012L910.6785511363637,123.43767315659343L915.1868607954545,123.41087801241349L919.6951704545454,123.43103686647893L924.2034801136363,123.46118181048291L928.7117897727273,123.58166499465739L933.2200994318182,123.60901182455554L937.728409090909,123.48112119807163L942.2367187499999,123.54278590859218" style="fill: none;" fill="none"></path></g></g></g></g><g opacity="0.2"><g><g><g><path stroke="rgb(0, 119, 187)" stroke-width="2px" d="M90.16619318181819,-6.447893588341619L94.6745028409091,61.84577006935636L99.18281250000001,87.55861663722344L103.69112215909091,95.92988268579423L108.19943181818181,101.17813039387104L112.70774147727272,103.20716318418822L117.21605113636363,104.77823575546935L121.72436079545454,105.12572465376306L126.23267045454544,108.09470528894221L130.74098011363634,108.66232937359725L135.24928977272725,111.5402526089598L139.75759943181816,109.91967726050203L144.26590909090908,111.05872697048945L148.77421875,112.36877821809759L153.2825284090909,111.25217795398281L157.7908380681818,112.49410286133569L162.29914772727273,114.60691329841757L166.80745738636364,114.48766941912756L171.31576704545455,113.84106204440327L175.82407670454546,116.16287471007038L180.33238636363637,117.20189515977042L184.8406960227273,117.72162720898325L189.3490056818182,118.20672170483748L193.8573153409091,118.15122905477027L198.36562500000002,119.88667636725566L202.87393465909093,121.12211031124708L207.38224431818182,121.98804608404562L211.8905539772727,122.54408256631478L216.39886363636361,123.18181956960333L220.90717329545453,126.64097539865752L225.41548295454544,125.97086291001617L229.92379261363635,131.07239621933184L234.43210227272726,128.03922656030954L238.94041193181818,132.77076069004204L243.4487215909091,135.054735249499L247.95703125,135.67234264866082L252.46534090909088,138.53538031791138L256.9736505681818,139.37484964332975L261.4819602272727,144.20190208297825L265.99026988636365,145.50736942385458L270.4985795454545,149.43491890084366L275.0068892045455,150.28003307501473L279.51519886363633,153.06826631639188L284.0235085227273,155.55597642504674L288.53181818181815,158.84791447730808L293.0401278409091,160.98421460264746L297.5484375,163.07560105112L302.05674715909095,169.71921552008303L306.5650568181818,170.76162219855726L311.07336647727277,175.82352429257682L315.5816761363636,177.53282990322344L320.0899857954546,180.10245681261264L324.59829545454545,185.0670955427234L329.10660511363636,186.9841953347292L333.6149147727273,193.0032439842582L338.12322443181813,193.68637640737518L342.6315340909091,198.81693989838138L347.13984374999995,201.90770671846897L351.6481534090909,205.37768753642482L356.1564630681818,207.41214343584258L360.66477272727275,215.0699721754247L365.1730823863636,216.16594141292956L369.6813920454546,219.1759918537909L374.1897017045454,221.74191364650534L378.6980113636364,228.08730797985095L383.20632102272725,229.15041053127194L387.7146306818182,234.13800777708315L392.2229403409091,238.7869970059157L396.73125000000005,240.22902779881827L401.2395596590909,244.28311747929638L405.74786931818187,245.99366498172657L410.2561789772727,250.71126200987163L414.76448863636364,252.40891693346003L419.27279829545455,257.81097396399576L423.7811079545454,260.6570536292626L428.2894176136364,262.5469396164097L432.79772727272723,264.2453431291013L437.3060369318182,269.0960798320168L441.81434659090905,270.14513422590306L446.32265625,274.4423121479434L450.8309659090909,271.9789205526853L455.33927556818185,281.25951772913857L459.8475852272727,286.8118167424249L464.35589488636367,286.721784768922L468.8642045454545,286.118992126238L473.3725142045455,289.36144590719084L477.88082386363635,290.0119633613294L482.3891335227273,297.4377055008047L486.8974431818182,298.5277079724595L491.40575284090914,298.8828392545025L495.9140625,304.02832898222425L500.42237215909086,304.35670262285595L504.93068181818177,306.65770253156893L509.43899147727274,312.7455192626384L513.9473011363636,312.8918562172003L518.4556107954545,314.7309986246504L522.9639204545454,316.4336819541367L527.4722301136364,318.8781576738929L531.9805397727273,322.7702985535986L536.4888494318182,325.0112981352929L540.997159090909,329.35036073673695L545.5054687500001,328.96833189802135L550.013778409091,327.3023370399145L554.5220880681818,332.3773773085626L559.0303977272727,332.11837782416075L563.5387073863637,333.91373507880985L568.0470170454546,334.9262093989937L572.5553267045455,341.9891444119056L577.0636363636363,338.81509325450514L581.5719460227273,340.3417858641492L586.0802556818182,346.68953161328386L590.5885653409091,348.0225559122523L595.096875,348.16391273714964L599.6051846590908,352.30542809644186L604.1134943181819,350.52227439275583L608.6218039772727,350.9383177829101L613.1301136363636,354.34426165785146L617.6384232954545,357.0817022575983L622.1467329545455,358.0373087865929L626.6550426136364,360.7809168082149L631.1633522727273,360.59003009103424L635.6716619318181,360.29364068447387L640.1799715909092,364.3003049004962L644.68828125,365.7671337059807" style="fill: none;" fill="none"></path></g><g><path stroke="rgb(255, 112, 67)" stroke-width="2px" d="M99.18281250000001,-56.152340128511675L103.69112215909091,1.3894306607960762L108.19943181818181,35.32582914149214L112.70774147727272,51.25122492225213L117.21605113636363,65.05994763868102L121.72436079545454,75.44333598374011L126.23267045454544,78.62164616766806L130.74098011363634,86.55485612844852L135.24928977272725,94.64012214137449L139.75759943181816,93.3437434607914L144.26590909090908,99.07120496261102L148.77421875,99.00983685968993L153.2825284090909,102.01550810069712L157.7908380681818,105.08932772891592L162.29914772727273,107.30043690177784L166.80745738636364,107.31036339030817L171.31576704545455,108.53867918120245L175.82407670454546,108.62933225793759L180.33238636363637,109.17671667231652L184.8406960227273,111.28183444186621L189.3490056818182,112.72107292402892L193.8573153409091,110.11971626517305L198.36562500000002,112.46005220769045L202.87393465909093,113.35421440310598L207.38224431818182,113.43487052326579L211.8905539772727,112.60461041178357L216.39886363636361,113.95966122530581L220.90717329545453,114.27376378388965L225.41548295454544,113.98972553978808L229.92379261363635,114.89505921009838L234.43210227272726,115.81891578801576L238.94041193181818,117.26061374054677L243.4487215909091,114.55541667209283L247.95703125,116.03290585469598L252.46534090909088,116.4865691096879L256.9736505681818,117.95842093426799L261.4819602272727,118.14695599388918L265.99026988636365,118.21277515610535L270.4985795454545,116.11636359771484L275.0068892045455,118.00031496626046L279.51519886363633,117.67463823583664L284.0235085227273,117.81739099967054L288.53181818181815,118.81354533347461L293.0401278409091,116.81869681046406L297.5484375,118.29830159567022L302.05674715909095,119.03389139515147L306.5650568181818,119.14496885157195L311.07336647727277,117.42379067584885L315.5816761363636,118.69899010577751L320.0899857954546,118.22023915091798L324.59829545454545,118.24545380147607L329.10660511363636,119.14825980570218L333.6149147727273,120.10546384557593L338.12322443181813,119.10345497140615L342.6315340909091,118.25337469370922L347.13984374999995,119.97190579719117L351.6481534090909,119.02051727509647L356.1564630681818,119.68422080194024L360.66477272727275,119.4668338735948L365.1730823863636,119.3680863858537L369.6813920454546,119.85973219515132L374.1897017045454,118.99538321432773L378.6980113636364,120.80087422814012L383.20632102272725,119.84943221560927L387.7146306818182,119.26059739745165L392.2229403409091,120.48405714076391L396.73125000000005,120.56999129426643L401.2395596590909,119.92149897970164L405.74786931818187,120.21163571282443L410.2561789772727,120.15098762904849L414.76448863636364,120.8954658044845L419.27279829545455,120.58236766878035L423.7811079545454,119.50326765175514L428.2894176136364,120.29395162633877L432.79772727272723,121.07745244292896L437.3060369318182,121.56204879663402L441.81434659090905,121.08994688543083L446.32265625,120.26756844347405L450.8309659090909,120.51522804751237L455.33927556818185,120.38316195942333L459.8475852272727,120.90115804482043L464.35589488636367,120.5682797256682L468.8642045454545,120.78958322673462L473.3725142045455,122.18865482548424L477.88082386363635,122.35479559198605L482.3891335227273,122.08509935097732L486.8974431818182,120.95982572018151L491.40575284090914,121.05935002426943L495.9140625,121.42535401148645L500.42237215909086,120.43935989719269L504.93068181818177,120.80948567408758L509.43899147727274,121.9587754243368L513.9473011363636,121.58200286542687L518.4556107954545,122.24151353190017L522.9639204545454,122.02889931160398L527.4722301136364,121.9023222393183L531.9805397727273,121.004150623965L536.4888494318182,121.97786163872321L540.997159090909,121.2563393151241L545.5054687500001,121.21845419464812L550.013778409091,121.2770788777042L554.5220880681818,121.74505815969594L559.0303977272727,122.3593768414316L563.5387073863637,120.52731597608921L568.0470170454546,121.57466042861257L572.5553267045455,121.68281656005131L577.0636363636363,122.50749158492874L581.5719460227273,122.49542150965246L586.0802556818182,121.66816897985997L590.5885653409091,122.2965317416284L595.096875,121.95016068993172L599.6051846590908,121.81555187953458L604.1134943181819,121.73347333207394L608.6218039772727,122.56317798196251L613.1301136363636,121.72559601592872L617.6384232954545,122.60068716427091L622.1467329545455,122.00740010646776L626.6550426136364,121.99520421233325L631.1633522727273,122.12022375840152L635.6716619318181,122.85722823467393L640.1799715909092,123.01455435735004L644.68828125,122.35136525353515L649.1965909090909,123.34263668095596L653.7049005681818,121.76141040884781L658.2132102272727,122.90623985880178L662.7215198863637,122.46114186636437L667.2298295454545,123.00289897651187L671.7381392045454,122.16154504216085L676.2464488636363,123.05820675672852L680.7547585227273,122.39166975145032L685.2630681818182,123.01719633400457L689.771377840909,122.66240474486176L694.2796874999999,123.36180517210421L698.787997159091,122.52454590658039L703.2963068181818,122.39065153008838L707.8046164772727,123.08354531523501L712.3129261363636,123.46263545996399L716.8212357954546,123.02225836572867L721.3295454545455,123.44915301566664L725.8378551136364,122.73613514860953L730.3461647727272,123.85951088537244L734.8544744318183,123.55071545444049L739.3627840909091,121.88266879990596L743.87109375,123.2071064488089L748.3794034090909,123.45155576385709L752.8877130681817,122.69629622047835L757.3960227272728,122.54348447821523L761.9043323863636,123.20099554311004L766.4126420454545,122.81554744228244L770.9209517045454,123.34208077646035L775.4292613636364,122.78392083715174L779.9375710227273,123.0316500913117L784.4458806818182,123.2827631428265L788.954190340909,123.01584203928019L793.4625000000001,122.73750980470504L797.970809659091,123.50442321120592L802.4791193181818,122.73775369624656L806.9874289772727,123.42065585830996L811.4957386363637,122.82630512693947L816.0040482954546,123.51190049487418L820.5123579545455,124.03918865765765L825.0206676136363,123.06549044503332L829.5289772727273,123.10519989112377L834.0372869318182,122.9540644455284L838.5455965909091,123.44548220369308L843.05390625,123.10842050681231L847.5622159090908,123.43876367234131L852.0705255681819,123.59283249475074L856.5788352272727,123.42239093717232L861.0871448863636,123.98417841593943L865.5954545454545,123.3025486388462L870.1037642045455,123.11095261191231L874.6120738636364,123.54007623374869L879.1203835227273,123.12130346568581L883.6286931818181,123.51383662083735L888.1370028409092,122.48877772885385L892.6453125,123.79993486691271L897.1536221590909,123.66455338413235L901.6619318181818,123.24817636869493L906.1702414772727,123.57186195647347L910.6785511363637,123.94905171002472L915.1868607954545,123.21632869920245L919.6951704545454,123.57753848692349L924.2034801136363,123.68029920111641L928.7117897727273,124.45900099694457L933.2200994318182,123.80777929803014L937.728409090909,122.5544053934775L942.2367187499999,123.9912936865533" style="fill: none;" fill="none"></path></g></g></g></g></g></g><g transform="translate(41, 377)" clip-path="url(#clip_1)"><clipPath id="clip_1"><rect width="991" height="23"></rect></clipPath><g><g><line x1="0" y1="0" x2="0" y2="5" style="visibility: inherit;" fill="rgb(0, 0, 0)" stroke="rgb(204, 204, 204)" stroke-width="1px"></line><line x1="90.16619318181819" y1="0" x2="90.16619318181819" y2="5" style="visibility: inherit;" fill="rgb(0, 0, 0)" stroke="rgb(204, 204, 204)" stroke-width="1px"></line><line x1="180.33238636363637" y1="0" x2="180.33238636363637" y2="5" style="visibility: inherit;" fill="rgb(0, 0, 0)" stroke="rgb(204, 204, 204)" stroke-width="1px"></line><line x1="270.4985795454545" y1="0" x2="270.4985795454545" y2="5" style="visibility: inherit;" fill="rgb(0, 0, 0)" stroke="rgb(204, 204, 204)" stroke-width="1px"></line><line x1="360.66477272727275" y1="0" x2="360.66477272727275" y2="5" style="visibility: inherit;" fill="rgb(0, 0, 0)" stroke="rgb(204, 204, 204)" stroke-width="1px"></line><line x1="450.8309659090909" y1="0" x2="450.8309659090909" y2="5" style="visibility: inherit;" fill="rgb(0, 0, 0)" stroke="rgb(204, 204, 204)" stroke-width="1px"></line><line x1="540.997159090909" y1="0" x2="540.997159090909" y2="5" style="visibility: inherit;" fill="rgb(0, 0, 0)" stroke="rgb(204, 204, 204)" stroke-width="1px"></line><line x1="631.1633522727273" y1="0" x2="631.1633522727273" y2="5" style="visibility: inherit;" fill="rgb(0, 0, 0)" stroke="rgb(204, 204, 204)" stroke-width="1px"></line><line x1="721.3295454545455" y1="0" x2="721.3295454545455" y2="5" style="visibility: inherit;" fill="rgb(0, 0, 0)" stroke="rgb(204, 204, 204)" stroke-width="1px"></line><line x1="811.4957386363637" y1="0" x2="811.4957386363637" y2="5" style="visibility: inherit;" fill="rgb(0, 0, 0)" stroke="rgb(204, 204, 204)" stroke-width="1px"></line><line x1="901.6619318181818" y1="0" x2="901.6619318181818" y2="5" style="visibility: inherit;" fill="rgb(0, 0, 0)" stroke="rgb(204, 204, 204)" stroke-width="1px"></line><line x1="991.828125" y1="0" x2="991.828125" y2="5" style="visibility: inherit;" fill="rgb(0, 0, 0)" stroke="rgb(204, 204, 204)" stroke-width="1px"></line></g><g transform="translate(0, 8)"><text x="0" y="0" dx="0em" dy="0.95em" style="text-anchor: middle; visibility: hidden; font-family: Roboto, sans-serif; font-size: 12px; font-weight: 200;" fill="rgb(33, 33, 33)" stroke="none" stroke-width="1px">-20</text><text x="90.16619318181819" y="0" dx="0em" dy="0.95em" style="text-anchor: middle; visibility: inherit; font-family: Roboto, sans-serif; font-size: 12px; font-weight: 200;" fill="rgb(33, 33, 33)" stroke="none" stroke-width="1px">0</text><text x="180.33238636363637" y="0" dx="0em" dy="0.95em" style="text-anchor: middle; visibility: inherit; font-family: Roboto, sans-serif; font-size: 12px; font-weight: 200;" fill="rgb(33, 33, 33)" stroke="none" stroke-width="1px">20</text><text x="270.4985795454545" y="0" dx="0em" dy="0.95em" style="text-anchor: middle; visibility: inherit; font-family: Roboto, sans-serif; font-size: 12px; font-weight: 200;" fill="rgb(33, 33, 33)" stroke="none" stroke-width="1px">40</text><text x="360.66477272727275" y="0" dx="0em" dy="0.95em" style="text-anchor: middle; visibility: inherit; font-family: Roboto, sans-serif; font-size: 12px; font-weight: 200;" fill="rgb(33, 33, 33)" stroke="none" stroke-width="1px">60</text><text x="450.8309659090909" y="0" dx="0em" dy="0.95em" style="text-anchor: middle; visibility: inherit; font-family: Roboto, sans-serif; font-size: 12px; font-weight: 200;" fill="rgb(33, 33, 33)" stroke="none" stroke-width="1px">80</text><text x="540.997159090909" y="0" dx="0em" dy="0.95em" style="text-anchor: middle; visibility: inherit; font-family: Roboto, sans-serif; font-size: 12px; font-weight: 200;" fill="rgb(33, 33, 33)" stroke="none" stroke-width="1px">100</text><text x="631.1633522727273" y="0" dx="0em" dy="0.95em" style="text-anchor: middle; visibility: inherit; font-family: Roboto, sans-serif; font-size: 12px; font-weight: 200;" fill="rgb(33, 33, 33)" stroke="none" stroke-width="1px">120</text><text x="721.3295454545455" y="0" dx="0em" dy="0.95em" style="text-anchor: middle; visibility: inherit; font-family: Roboto, sans-serif; font-size: 12px; font-weight: 200;" fill="rgb(33, 33, 33)" stroke="none" stroke-width="1px">140</text><text x="811.4957386363637" y="0" dx="0em" dy="0.95em" style="text-anchor: middle; visibility: inherit; font-family: Roboto, sans-serif; font-size: 12px; font-weight: 200;" fill="rgb(33, 33, 33)" stroke="none" stroke-width="1px">160</text><text x="901.6619318181818" y="0" dx="0em" dy="0.95em" style="text-anchor: middle; visibility: inherit; font-family: Roboto, sans-serif; font-size: 12px; font-weight: 200;" fill="rgb(33, 33, 33)" stroke="none" stroke-width="1px">180</text><text x="991.828125" y="0" dx="0em" dy="0.95em" style="text-anchor: middle; visibility: hidden; font-family: Roboto, sans-serif; font-size: 12px; font-weight: 200;" fill="rgb(33, 33, 33)" stroke="none" stroke-width="1px">200</text></g><line x1="0" y1="0" x2="991.828125" y2="0" fill="rgb(0, 0, 0)" stroke="rgb(204, 204, 204)" stroke-width="1px"></line></g></g></g></g></svg>