<svg viewBox="0 0 1033 400" xmlns="http://www.w3.org/2000/svg"><g><g><g><g><g><line x1="72.34375" y1="377" x2="67.34375" y2="377" style="visibility: inherit;" fill="rgb(0, 0, 0)" stroke="rgb(204, 204, 204)" stroke-width="1px"></line><line x1="72.34375" y1="342.7272727272727" x2="67.34375" y2="342.7272727272727" style="visibility: inherit;" fill="rgb(0, 0, 0)" stroke="rgb(204, 204, 204)" stroke-width="1px"></line><line x1="72.34375" y1="308.45454545454544" x2="67.34375" y2="308.45454545454544" style="visibility: inherit;" fill="rgb(0, 0, 0)" stroke="rgb(204, 204, 204)" stroke-width="1px"></line><line x1="72.34375" y1="274.1818181818182" x2="67.34375" y2="274.1818181818182" style="visibility: inherit;" fill="rgb(0, 0, 0)" stroke="rgb(204, 204, 204)" stroke-width="1px"></line><line x1="72.34375" y1="239.9090909090909" x2="67.34375" y2="239.9090909090909" style="visibility: inherit;" fill="rgb(0, 0, 0)" stroke="rgb(204, 204, 204)" stroke-width="1px"></line><line x1="72.34375" y1="205.63636363636363" x2="67.34375" y2="205.63636363636363" style="visibility: inherit;" fill="rgb(0, 0, 0)" stroke="rgb(204, 204, 204)" stroke-width="1px"></line><line x1="72.34375" y1="171.36363636363637" x2="67.34375" y2="171.36363636363637" style="visibility: inherit;" fill="rgb(0, 0, 0)" stroke="rgb(204, 204, 204)" stroke-width="1px"></line><line x1="72.34375" y1="137.09090909090915" x2="67.34375" y2="137.09090909090915" style="visibility: inherit;" fill="rgb(0, 0, 0)" stroke="rgb(204, 204, 204)" stroke-width="1px"></line><line x1="72.34375" y1="102.81818181818181" x2="67.34375" y2="102.81818181818181" style="visibility: inherit;" fill="rgb(0, 0, 0)" stroke="rgb(204, 204, 204)" stroke-width="1px"></line><line x1="72.34375" y1="68.54545454545453" x2="67.34375" y2="68.54545454545453" style="visibility: inherit;" fill="rgb(0, 0, 0)" stroke="rgb(204, 204, 204)" stroke-width="1px"></line><line x1="72.34375" y1="34.27272727272729" x2="67.34375" y2="34.27272727272729" style="visibility: inherit;" fill="rgb(0, 0, 0)" stroke="rgb(204, 204, 204)" stroke-width="1px"></line><line x1="72.34375" y1="0" x2="67.34375" y2="0" style="visibility: inherit;" fill="rgb(0, 0, 0)" stroke="rgb(204, 204, 204)" stroke-width="1px"></line></g><g transform="translate(62.34375, 0)"><text x="0" y="377" dx="0em" dy="0.3em" style="text-anchor: end; visibility: hidden; font-family: Roboto, sans-serif; font-size: 12px; font-weight: 200;" fill="rgb(33, 33, 33)" stroke="none" stroke-width="1px">0</text><text x="0" y="342.7272727272727" dx="0em" dy="0.3em" style="text-anchor: end; visibility: inherit; font-family: Roboto, sans-serif; font-size: 12px; font-weight: 200;" fill="rgb(33, 33, 33)" stroke="none" stroke-width="1px">1e-5</text><text x="0" y="308.45454545454544" dx="0em" dy="0.3em" style="text-anchor: end; visibility: inherit; font-family: Roboto, sans-serif; font-size: 12px; font-weight: 200;" fill="rgb(33, 33, 33)" stroke="none" stroke-width="1px">2e-5</text><text x="0" y="274.1818181818182" dx="0em" dy="0.3em" style="text-anchor: end; visibility: inherit; font-family: Roboto, sans-serif; font-size: 12px; font-weight: 200;" fill="rgb(33, 33, 33)" stroke="none" stroke-width="1px">3e-5</text><text x="0" y="239.9090909090909" dx="0em" dy="0.3em" style="text-anchor: end; visibility: inherit; font-family: Roboto, sans-serif; font-size: 12px; font-weight: 200;" fill="rgb(33, 33, 33)" stroke="none" stroke-width="1px">4e-5</text><text x="0" y="205.63636363636363" dx="0em" dy="0.3em" style="text-anchor: end; visibility: inherit; font-family: Roboto, sans-serif; font-size: 12px; font-weight: 200;" fill="rgb(33, 33, 33)" stroke="none" stroke-width="1px">5e-5</text><text x="0" y="171.36363636363637" dx="0em" dy="0.3em" style="text-anchor: end; visibility: inherit; font-family: Roboto, sans-serif; font-size: 12px; font-weight: 200;" fill="rgb(33, 33, 33)" stroke="none" stroke-width="1px">6e-5</text><text x="0" y="137.09090909090915" dx="0em" dy="0.3em" style="text-anchor: end; visibility: inherit; font-family: Roboto, sans-serif; font-size: 12px; font-weight: 200;" fill="rgb(33, 33, 33)" stroke="none" stroke-width="1px">7e-5</text><text x="0" y="102.81818181818181" dx="0em" dy="0.3em" style="text-anchor: end; visibility: inherit; font-family: Roboto, sans-serif; font-size: 12px; font-weight: 200;" fill="rgb(33, 33, 33)" stroke="none" stroke-width="1px">8e-5</text><text x="0" y="68.54545454545453" dx="0em" dy="0.3em" style="text-anchor: end; visibility: inherit; font-family: Roboto, sans-serif; font-size: 12px; font-weight: 200;" fill="rgb(33, 33, 33)" stroke="none" stroke-width="1px">9e-5</text><text x="0" y="34.27272727272729" dx="0em" dy="0.3em" style="text-anchor: end; visibility: inherit; font-family: Roboto, sans-serif; font-size: 12px; font-weight: 200;" fill="rgb(33, 33, 33)" stroke="none" stroke-width="1px">1e-4</text><text x="0" y="0" dx="0em" dy="0.3em" style="text-anchor: end; visibility: hidden; font-family: Roboto, sans-serif; font-size: 12px; font-weight: 200;" fill="rgb(33, 33, 33)" stroke="none" stroke-width="1px">1.1e-4</text></g><line x1="72.34375" y1="0" x2="72.34375" y2="377" fill="rgb(0, 0, 0)" stroke="rgb(204, 204, 204)" stroke-width="1px"></line></g></g><g transform="translate(72, 0)" clip-path="url(#clip_0)"><clipPath id="clip_0"><rect width="960" height="377"></rect></clipPath><g><g><g><line x1="0" y1="0" x2="0" y2="377" fill="rgb(0, 0, 0)" stroke="rgb(66, 66, 66)" stroke-width="1px" opacity="0.25"></line><line x1="87.33238636363636" y1="0" x2="87.33238636363636" y2="377" fill="rgb(0, 0, 0)" stroke="rgb(66, 66, 66)" stroke-width="1px" opacity="0.25"></line><line x1="174.66477272727272" y1="0" x2="174.66477272727272" y2="377" fill="rgb(0, 0, 0)" stroke="rgb(66, 66, 66)" stroke-width="1px" opacity="0.25"></line><line x1="261.99715909090907" y1="0" x2="261.99715909090907" y2="377" fill="rgb(0, 0, 0)" stroke="rgb(66, 66, 66)" stroke-width="1px" opacity="0.25"></line><line x1="349.32954545454544" y1="0" x2="349.32954545454544" y2="377" fill="rgb(0, 0, 0)" stroke="rgb(66, 66, 66)" stroke-width="1px" opacity="0.25"></line><line x1="436.6619318181818" y1="0" x2="436.6619318181818" y2="377" fill="rgb(0, 0, 0)" stroke="rgb(66, 66, 66)" stroke-width="1px" opacity="0.25"></line><line x1="523.9943181818181" y1="0" x2="523.9943181818181" y2="377" fill="rgb(0, 0, 0)" stroke="rgb(66, 66, 66)" stroke-width="1px" opacity="0.25"></line><line x1="611.3267045454545" y1="0" x2="611.3267045454545" y2="377" fill="rgb(0, 0, 0)" stroke="rgb(66, 66, 66)" stroke-width="1px" opacity="0.25"></line><line x1="698.6590909090909" y1="0" x2="698.6590909090909" y2="377" fill="rgb(0, 0, 0)" stroke="rgb(66, 66, 66)" stroke-width="1px" opacity="0.25"></line><line x1="785.9914772727274" y1="0" x2="785.9914772727274" y2="377" fill="rgb(0, 0, 0)" stroke="rgb(66, 66, 66)" stroke-width="1px" opacity="0.25"></line><line x1="873.3238636363636" y1="0" x2="873.3238636363636" y2="377" fill="rgb(0, 0, 0)" stroke="rgb(66, 66, 66)" stroke-width="1px" opacity="0.25"></line><line x1="960.65625" y1="0" x2="960.65625" y2="377" fill="rgb(0, 0, 0)" stroke="rgb(66, 66, 66)" stroke-width="1px" opacity="0.25"></line></g><g><line x1="0" y1="377" x2="960.65625" y2="377" fill="rgb(0, 0, 0)" stroke="rgb(66, 66, 66)" stroke-width="1px" opacity="0.25"></line><line x1="0" y1="342.7272727272727" x2="960.65625" y2="342.7272727272727" fill="rgb(0, 0, 0)" stroke="rgb(66, 66, 66)" stroke-width="1px" opacity="0.25"></line><line x1="0" y1="308.45454545454544" x2="960.65625" y2="308.45454545454544" fill="rgb(0, 0, 0)" stroke="rgb(66, 66, 66)" stroke-width="1px" opacity="0.25"></line><line x1="0" y1="274.1818181818182" x2="960.65625" y2="274.1818181818182" fill="rgb(0, 0, 0)" stroke="rgb(66, 66, 66)" stroke-width="1px" opacity="0.25"></line><line x1="0" y1="239.9090909090909" x2="960.65625" y2="239.9090909090909" fill="rgb(0, 0, 0)" stroke="rgb(66, 66, 66)" stroke-width="1px" opacity="0.25"></line><line x1="0" y1="205.63636363636363" x2="960.65625" y2="205.63636363636363" fill="rgb(0, 0, 0)" stroke="rgb(66, 66, 66)" stroke-width="1px" opacity="0.25"></line><line x1="0" y1="171.36363636363637" x2="960.65625" y2="171.36363636363637" fill="rgb(0, 0, 0)" stroke="rgb(66, 66, 66)" stroke-width="1px" opacity="0.25"></line><line x1="0" y1="137.09090909090915" x2="960.65625" y2="137.09090909090915" fill="rgb(0, 0, 0)" stroke="rgb(66, 66, 66)" stroke-width="1px" opacity="0.25"></line><line x1="0" y1="102.81818181818181" x2="960.65625" y2="102.81818181818181" fill="rgb(0, 0, 0)" stroke="rgb(66, 66, 66)" stroke-width="1px" opacity="0.25"></line><line x1="0" y1="68.54545454545453" x2="960.65625" y2="68.54545454545453" fill="rgb(0, 0, 0)" stroke="rgb(66, 66, 66)" stroke-width="1px" opacity="0.25"></line><line x1="0" y1="34.27272727272729" x2="960.65625" y2="34.27272727272729" fill="rgb(0, 0, 0)" stroke="rgb(66, 66, 66)" stroke-width="1px" opacity="0.25"></line><line x1="0" y1="0" x2="960.65625" y2="0" fill="rgb(0, 0, 0)" stroke="rgb(66, 66, 66)" stroke-width="1px" opacity="0.25"></line></g></g></g><g><g><line x1="0" y1="377" x2="960.65625" y2="377" fill="rgb(0, 0, 0)" stroke="rgb(153, 153, 153)" stroke-width="1.5px"></line></g></g><g><g><line x1="87.33238636363636" y1="0" x2="87.33238636363636" y2="377" fill="rgb(0, 0, 0)" stroke="rgb(153, 153, 153)" stroke-width="1.5px"></line></g></g><g><g><g><g><g><path stroke="rgb(0, 119, 187)" stroke-width="2px" d="M87.33238636363636,35.98391661043704L91.69900568181819,36.895917361958666L96.06562500000001,37.84448963701609L100.43224431818182,38.829337956580176L104.79886363636363,39.85005198678384L109.16548295454545,40.90609459029336L113.53210227272727,41.99683789004739L117.89872159090909,43.12154402719808L122.2653409090909,44.279396215198396L126.63196022727271,45.46949057435793L130.99857954545453,46.690847602876204L135.36519886363635,47.942430622793765L139.73181818181817,49.22315416551511L144.0984375,50.53188219876053L148.4650568181818,51.867454049123054L152.83167613636363,53.22867832285567L157.19829545454544,54.614353893623246L161.56491477272726,56.02327770920711L165.93153409090908,57.45424235320891L170.2981534090909,58.90606108563294L174.66477272727272,60.37755012506545L179.03139204545454,61.86755617209448L183.39801136363639,63.37495720368747L187.7646306818182,64.89865697971452L192.13125000000002,66.43760237683409L196.49786931818184,67.99077290979623L200.86448863636363,69.55719340155386L205.23110795454545,71.13593521023257L209.59772727272727,72.72610770132813L213.9643465909091,74.32687212366008L218.3309659090909,75.93742860345812L222.69758522727273,77.55702598773725L227.06420454545454,79.18496079328439L231.43082386363636,80.82056675515598L235.79744318181818,82.46322672421837L240.1640625,84.11236133550915L244.5306818181818,85.76742792750134L248.89730113636364,87.42792839297036L253.26392045454543,89.09339447410149L257.6305397727273,90.76339891239056L261.99715909090907,92.43754067708981L266.3637784090909,94.11545301765376L270.7303977272727,95.79680120521046L275.09701704545455,97.48127430111784L279.46363636363634,99.16858381464256L283.8302556818182,100.85847143523016L288.196875,102.55069449337753L292.5634943181818,104.24503726126389L296.9301136363636,105.94129656372645L301.29673295454546,107.63929019687725L305.66335227272725,109.3388551545594L310.0299715909091,111.03983692165107L314.3965909090909,112.74210113891593L318.76321022727274,114.44551961511601L323.1298295454545,116.14997911910574L327.4964488636363,117.8553799881464L331.86306818181816,119.56162579895991L336.22968749999995,121.26863538339981L340.5963068181818,122.97632919546115L344.9629261363636,124.6846414482936L349.32954545454544,126.39350961860274L353.69616477272723,128.1028742525771L358.0627840909091,129.8126878261158L362.4294034090909,131.52290138312384L366.79602272727277,133.23347390104152L371.16264204545456,134.94437145117018L375.5292613636364,136.65556041067506L379.8958806818182,138.36700751976167L384.26250000000005,140.07868897385757L388.62911931818184,141.7905772808786L392.9957386363637,143.50265384256596L397.3623579545455,145.21489586377385L401.72897727272726,146.9272889806156L406.0955965909091,148.63981421336854L410.4622159090909,150.3524576162794L414.82883522727275,152.06520970209604L419.19545454545454,153.77805587975828L423.5620738636364,155.49098765944845L427.9286931818182,157.20399590229562L432.2953125,158.91707242790488L436.6619318181818,160.63020991617242L441.02855113636366,162.34340031012718L445.39517045454545,164.0566394449846L449.7617897727273,165.76992206314603L454.1284090909091,167.48324497448272L458.49502840909093,169.19660228943226L462.8616477272727,170.9099902799559L467.2282670454546,172.62340561652104L471.59488636363636,174.33684532624036L475.9615056818182,176.05030675530685L480.328125,177.7637890439812L484.6947443181818,179.47728838778124L489.0613636363636,181.19080292364566L493.4279829545455,182.9043294809977L497.7946022727273,184.61786826892506L502.16122159090907,186.33141794378344L506.52784090909086,188.04497730802507L510.89446022727276,189.75854529451556L515.2610795454545,191.47212095250626L519.6276988636364,193.18570192641928L523.9943181818181,194.89928915320755L528.3609375000001,196.61288193912688L532.7275568181818,198.3264796667715L537.0941761363637,200.04008178675699L541.4607954545454,201.75368630162674L545.8274147727274,203.46729748513883L550.1940340909091,205.18091154602675L554.560653409091,206.89452816512082L558.9272727272727,208.60814554969187L563.2938920454545,210.32176513818965L567.6605113636364,212.0353866836296L572.0271306818182,213.74900996653002L576.39375,215.462634791872L580.7603693181818,217.17625947772297L585.1269886363636,218.88988556138665L589.4936079545455,220.60351288406054L593.8602272727272,222.31714130490678L598.2268465909091,224.03077220770007L602.5934659090909,225.7444037904721L606.9600852272728,227.45803597711378L611.3267045454545,229.17166869997894L615.6933238636364,230.88530189895047L620.0599431818182,232.59893552060885L624.4265625,234.3125680088213" style="fill: none;" fill="none"></path></g><g><path stroke="rgb(255, 112, 67)" stroke-width="2px" d="M87.33238636363636,359.88819320309403L91.69900568181819,350.7682520441608L96.06562500000001,341.28251367322497L100.43224431818182,331.4339852983393L104.79886363636363,321.2268499304081L109.16548295454545,310.666399136778L113.53210227272727,299.75897411775003L117.89872159090909,288.51189986442466L122.2653409090909,276.9333901496268L126.63196022727271,265.0324768749511L130.99857954545453,252.8189128205421L135.36519886363635,240.3030684989268L139.73181818181817,227.49584562237263L144.0984375,214.40855401800465L148.4650568181818,201.05284726043067L152.83167613636363,187.4405936680239L157.19829545454544,173.5838151854957L161.56491477272726,159.4945777254043L165.93153409090908,145.18491536910437L170.2981534090909,130.6667633653821L174.66477272727272,118.1736338223792L179.03139204545454,107.40330313706319L183.39801136363639,98.10405602469687L187.7646306818182,90.06717569147706L192.13125000000002,83.11845314155262L196.49786931818184,77.11158738843992L200.86448863636363,71.92308724678603L205.23110795454545,67.44820372897841L209.59772727272727,63.59772080848596L213.9643465909091,60.29537766618392L218.3309659090909,57.47575944507964L222.69758522727273,55.0825962886296L227.06420454545454,53.067350164564346L231.43082386363636,51.388066730311174L235.79744318181818,50.00838980023552L240.1640625,48.89676957069686L244.5306818181818,48.025760802244704L248.89730113636364,47.37146282241803L253.26392045454543,46.91302363611465L257.6305397727273,46.63222969748975L261.99715909090907,46.513152545943306L266.3637784090909,46.54183999840844L270.7303977272727,46.706047721938596L275.09701704545455,46.9950321525389L279.46363636363634,47.399341713938234L283.8302556818182,47.910657251709765L288.196875,48.52163572189112L292.5634943181818,49.22579863108532L296.9301136363636,50.017411028828704L301.29673295454546,50.89139728828524L305.66335227272725,51.84323458130627L310.0299715909091,52.868908189157345L314.3965909090909,53.96483337865611L318.76321022727274,55.127805217780896L323.1298295454545,56.35494869272184L327.4964488636363,57.643669034557426L331.86306818181816,58.99163539798151L336.22968749999995,60.39672134638802L340.5963068181818,61.85699491289029L344.9629261363636,63.37069182069003L349.32954545454544,64.93619804081409L353.69616477272723,66.55200733969752L358.0627840909091,68.21673833270617L362.4294034090909,69.92908611241859L366.79602272727277,71.6878461540606L371.16264204545456,73.49186894243266L375.5292613636364,75.34006537434713L379.8958806818182,77.23140547807392L384.26250000000005,79.16489616909045L388.62911931818184,81.13958584523625L392.9957386363637,83.15454730438626L397.3623579545455,85.20888989078544L401.72897727272726,87.30173697838268L406.0955965909091,89.43223333867103L410.4622159090909,91.59953954656102L414.82883522727275,93.80282404577915L419.19545454545454,96.04126824426476L423.5620738636364,98.31405590497123L427.9286931818182,100.62038795976072L432.2953125,102.95945026814636L436.6619318181818,105.33044864334022L441.02855113636366,107.7325732554676L445.39517045454545,110.16503070758523L449.7617897727273,112.6270209334639L454.1284090909091,115.11773499482517L458.49502840909093,117.63637124881448L462.8616477272727,120.18211938463091L467.2282670454546,122.75416751297534L471.59488636363636,125.35169632760697L475.9615056818182,127.97389207712192L480.328125,130.61993081034066L484.6947443181818,133.2889765971418L489.0613636363636,135.98020410306583L493.4279829545455,138.69277317160063L497.7946022727273,141.42584570740945L502.16122159090907,144.17857637751626L506.52784090909086,146.95011348947017L510.89446022727276,149.7396027803577L515.2610795454545,152.54618471242287L519.6276988636364,155.36899662174648L523.9943181818181,158.20717611542702L528.3609375000001,161.05984746213628L532.7275568181818,163.92613678539587L537.0941761363637,166.80516278823282L541.4607954545454,169.69605273879492L545.8274147727274,172.59791427877983L550.1940340909091,175.50986495514292L554.560653409091,178.43101744423691L558.9272727272727,181.3604710897771L563.2938920454545,184.29733765540723L567.6605113636364,187.24071870100667L572.0271306818182,190.18971586983196L576.39375,193.14343087883745L580.7603693181818,196.10096249278104L585.1269886363636,199.0614068817648L589.4936079545455,202.02385793547793L593.8602272727272,204.98741810007547L598.2268465909091,207.95118376504104L602.5934659090909,210.91424750491842L606.9600852272728,213.8757106104607L611.3267045454545,216.8346639300875L615.6933238636364,219.79021025493103L620.0599431818182,222.74145080453286L624.4265625,225.68748390844854L628.7931818181818,228.62740988204507L633.1598011363636,231.56033380364573L637.5264204545455,234.4853649382899L641.8930397727273,237.40161019652953L646.259659090909,240.3081789453931L650.6262784090909,243.20419025455558L654.9928977272726,246.08875814433657L659.3595170454546,248.9610042660739L663.7261363636363,251.82005547013785L668.0927556818182,254.66503789653646L672.4593749999999,257.4950838499133L676.8259943181819,260.30933859700116L681.1926136363636,263.10693541384944L685.5592329545455,265.88703098178854L689.9258522727272,268.64877238201177L694.2924715909091,271.39131862424995L698.6590909090909,274.1138392034327L703.0257102272727,276.81550227030215L707.3923295454545,279.49548233741996L711.7589488636364,282.1529662984104L716.1255681818182,284.787136843162L720.4921875,287.39720012254355L724.8588068181818,289.98236103392L729.2254261363636,292.54182789884055L733.5920454545455,295.07482487241197L737.9586647727273,297.58057267773853L742.3252840909091,300.0583154229206L746.6919034090909,302.50729891310084L751.0585227272728,304.9267727081292L755.4251420454545,307.3160032462749L759.7917613636364,309.6742604869158L764.1583806818181,312.00082351916615L768.5250000000001,314.294989640701L772.8916193181818,316.5560563134889L777.2582386363637,318.7833377392821L781.6248579545454,320.97615189624713L785.9914772727274,323.133830642709L790.3580965909091,325.2557203006572L794.724715909091,327.3411723622942L799.0913352272727,329.3895504077897L803.4579545454545,331.4002335458137L807.8245738636364,333.37260736840693L812.1911931818182,335.30607410434993L816.5578125,337.2000432513523L820.9244318181818,339.05393277093367L825.2910511363636,340.8671839053362L829.6576704545455,342.63924138802184L834.0242897727272,344.3695675421819L838.3909090909091,346.057636946457L842.7575284090909,347.70292797442966L847.1241477272728,349.30494628556966L851.4907670454545,350.8632011565997L855.8573863636364,352.37721956475474L860.2240056818182,353.8465394257188L864.590625,355.27071109882843L868.9572443181818,356.649303519032L873.3238636363636,357.98189704606386L877.6904829545455,359.26808425075785L882.0571022727273,360.5074738121411L886.423721590909,361.6996860224615L890.7903409090909,362.84436104690496L895.1569602272726,363.94115048429006L899.5235795454546,364.989717162247L903.8901988636363,365.98974495211723L908.2568181818182,366.9409250019328L912.6234374999999,367.8429711448559" style="fill: none;" fill="none"></path></g></g></g></g><g opacity="0.2"><g><g><g><path stroke="rgb(0, 119, 187)" stroke-width="2px" d="M87.33238636363636,35.98391661043704L91.69900568181819,37.69756602254611L96.06562500000001,39.411190497964135L100.43224431818182,41.124814973382115L104.79886363636363,42.83846438549123L109.16548295454545,44.552088860909215L113.53210227272727,46.26573827301832L117.89872159090909,47.97936274843631L122.2653409090909,49.69301216054538L126.63196022727271,51.40666157265449L130.99857954545453,53.12028604807247L135.36519886363635,54.833910523490495L139.73181818181817,56.547559935599566L144.0984375,58.26118441101759L148.4650568181818,59.97483382312666L152.83167613636363,61.68845829854468L157.19829545454544,63.40208277396267L161.56491477272726,65.11573218607174L165.93153409090908,66.82935666148975L170.2981534090909,68.54303101028997L174.66477272727272,70.25665548570794L179.03139204545454,71.97027996112593L183.39801136363639,73.68392937323503L187.7646306818182,75.39755384865302L192.13125000000002,77.11120326076214L196.49786931818184,78.82482773618011L200.86448863636363,80.5384522115981L205.23110795454545,82.2521016237072L209.59772727272727,83.96572609912519L213.9643465909091,85.6793755112343L218.3309659090909,87.39299998665228L222.69758522727273,89.10662446207031L227.06420454545454,90.82027387417938L231.43082386363636,92.53389834959741L235.79744318181818,94.24754776170647L240.1640625,95.96119717381559L244.5306818181818,97.67482164923356L248.89730113636364,99.38847106134268L253.26392045454543,101.10209553676066L257.6305397727273,102.81574494886974L261.99715909090907,104.52936942428775L266.3637784090909,106.24299389970574L270.7303977272727,107.95664331181486L275.09701704545455,109.67029272392392L279.46363636363634,111.38391719934195L283.8302556818182,113.09756661145101L288.196875,114.811191086869L292.5634943181818,116.52484049897811L296.9301136363636,118.2384649743961L301.29673295454546,119.95208944981411L305.66335227272725,121.66573886192319L310.0299715909091,123.37936333734122L314.3965909090909,125.09301274945028L318.76321022727274,126.80663722486831L323.1298295454545,128.52026170028628L327.4964488636363,130.23391111239536L331.86306818181816,131.94753558781338L336.22968749999995,133.66118499992245L340.5963068181818,135.37480947534047L344.9629261363636,137.08845888744955L349.32954545454544,138.80210829955865L353.69616477272723,140.51573277497664L358.0627840909091,142.22938218708575L362.4294034090909,143.94300666250373L366.79602272727277,145.65663113792172L371.16264204545456,147.37028055003083L375.5292613636364,149.08392996213993L379.8958806818182,150.79755443755792L384.26250000000005,152.511203849667L388.62911931818184,154.224828325085L392.9957386363637,155.9384777371941L397.3623579545455,157.6521022126121L401.72897727272726,159.36575162472118L406.0955965909091,161.0793761001392L410.4622159090909,162.7930005755572L414.82883522727275,164.5066499876663L419.19545454545454,166.22027446308428L423.5620738636364,167.9339114068478L427.9286931818182,169.64754835061137L432.2953125,171.3611852943749L436.6619318181818,173.07482223813847L441.02855113636366,174.78844671355645L445.39517045454545,176.50208365732001L449.7617897727273,178.21572060108355L454.1284090909091,179.92937001319265L458.49502840909093,181.64300695695619L462.8616477272727,183.35664390071972L467.2282670454546,185.07028084448328L471.59488636363636,186.7839177882468L475.9615056818182,188.49755473201037L480.328125,190.21120414411945L484.6947443181818,191.924841087883L489.0613636363636,193.63847803164654L493.4279829545455,195.35210250706456L497.7946022727273,197.0657394508281L502.16122159090907,198.77937639459162L506.52784090909086,200.49301333835518L510.89446022727276,202.20665028211874L515.2610795454545,203.92028722588228L519.6276988636364,205.63391170130026L523.9943181818181,207.3475486450638L528.3609375000001,209.06118558882736L532.7275568181818,210.77482253259092L537.0941761363637,212.48845947635445L541.4607954545454,214.20208395177247L545.8274147727274,215.9157458322271L550.1940340909091,217.62938277599062L554.560653409091,219.34301971975418L558.9272727272727,221.05664419517217L563.2938920454545,222.77028113893573L567.6605113636364,224.48391808269926L572.0271306818182,226.1975550264628L576.39375,227.91119197022635L580.7603693181818,229.62481644564434L585.1269886363636,231.3384533894079L589.4936079545455,233.05209033317146L593.8602272727272,234.765727276935L598.2268465909091,236.4793766890441L602.5934659090909,238.19301363280763L606.9600852272728,239.90665057657117L611.3267045454545,241.62028752033473L615.6933238636364,243.33392446409826L620.0599431818182,245.0475614078618L624.4265625,246.7611858832798" style="fill: none;" fill="none"></path></g><g><path stroke="rgb(255, 112, 67)" stroke-width="2px" d="M87.33238636363636,359.88819320309403L91.69900568181819,342.75182376545854L96.06562500000001,325.6154792645142L100.43224431818182,308.4791098268787L104.79886363636363,291.34274038924326L109.16548295454545,274.2063709516078L113.53210227272727,257.0700015139724L117.89872159090909,239.933657013028L122.2653409090909,222.79728757539255L126.63196022727271,205.6609181377571L130.99857954545453,188.5245611684672L135.36519886363635,171.38819173083175L139.73181818181817,154.25185969823295L144.0984375,137.1154653239064L148.4650568181818,119.97912082296205L152.83167613636363,102.84272644863549L157.19829545454544,85.70638194769114L161.56491477272726,68.57003744674677L165.93153409090908,51.43366800911134L170.2981534090909,34.297298571475864L174.66477272727272,34.29876983625053L179.03139204545454,34.37697129952721L183.39801136363639,34.507390193958685L187.7646306818182,34.68987689939838L192.13125000000002,34.924481289228424L196.49786931818184,35.211028806611246L200.86448863636363,35.549544388237855L205.23110795454545,35.939853477270624L209.59772727272727,36.381831390254035L213.9643465909091,36.875403317114866L218.3309659090909,37.42036976432428L222.69758522727273,38.016581111735746L227.06420454545454,38.66381292912939L231.43082386363636,39.36194053304977L235.79744318181818,40.11068961989475L240.1640625,40.90991056951779L244.5306818181818,41.75927920493467L248.89730113636364,42.65857109592552L253.26392045454543,43.60748700219717L257.6305397727273,44.60575262014754L261.99715909090907,45.65309364617466L266.3637784090909,46.749185903294176L270.7303977272727,47.893630404448665L275.09701704545455,49.08615284603599L279.46363636363634,50.326354240998626L283.8302556818182,51.613885475661284L288.196875,52.948297689584166L292.5634943181818,54.32924176909199L296.9301136363636,55.75626885374502L301.29673295454546,57.229004893176786L305.66335227272725,58.7468763434921L310.0299715909091,60.3095091543245L314.3965909090909,61.91640459185215L318.76321022727274,63.567088858944125L323.1298295454545,65.26106322177856L327.4964488636363,66.99775413646027L331.86306818181816,68.77673767924058L336.22968749999995,70.59736549615099L340.5963068181818,72.45911391667852L344.9629261363636,74.3614343336191L349.32954545454544,76.30380307645962L353.69616477272723,78.28549698115837L358.0627840909091,80.30604225058448L362.4294034090909,82.36469078400512L366.79602272727277,84.46096878428943L371.16264204545456,86.5941281507046L375.5292613636364,88.76352052928203L379.8958806818182,90.9685474394355L384.26250000000005,93.20848571712321L388.62911931818184,95.48268700837669L392.9957386363637,97.790403212463L397.3623579545455,100.1310109121048L401.72897727272726,102.50373706987808L406.0955965909091,104.90788345843218L410.4622159090909,107.34272691372531L414.82883522727275,109.8074943983335L419.19545454545454,112.30146274821497L423.5620738636364,114.82383398925465L427.9286931818182,117.37393483079293L432.2953125,119.95084261525933L436.6619318181818,122.55390898868527L441.02855113636366,125.18221129350029L445.39517045454545,127.8350762390447L449.7617897727273,130.51165597782133L454.1284090909091,133.2110777256418L458.49502840909093,135.9325933817732L462.8616477272727,138.67533016202717L467.2282670454546,141.4384651555976L471.59488636363636,144.22112557829612L475.9615056818182,147.02253839269875L480.328125,149.841805877926L484.6947443181818,152.67800537640738L489.0613636363636,155.53038878740998L493.4279829545455,158.39800851667215L497.7946022727273,161.28004165338777L502.16122159090907,164.17559047667734L506.52784090909086,167.08375726566143L510.89446022727276,170.00366923615167L515.2610795454545,172.93442866726863L519.6276988636364,175.8751503064784L523.9943181818181,178.82497383793816L528.3609375000001,181.78292673069518L532.7275568181818,184.74814866890665L537.0941761363637,187.71970452665647L541.4607954545454,190.69678386148405L545.8274147727274,193.67835180070887L550.1940340909091,196.66359790187033L554.560653409091,199.6515995073979L558.9272727272727,202.6413591496477L563.2938920454545,205.63207885450473L567.6605113636364,208.62278609101617L572.0271306818182,211.61258313830265L576.39375,214.60057227548467L580.7603693181818,217.58583084499168L585.1269886363636,220.56743618925316L589.4936079545455,223.5444656506985L593.8602272727272,226.51608385017607L598.2268465909091,229.4813431934242L602.5934659090909,232.43930855452675L606.9600852272728,235.38914455433206L611.3267045454545,238.32986619354182L615.6933238636364,241.26066302969542L620.0599431818182,244.18062487356787L624.4265625,247.08882906758862L628.7931818181818,249.98439035922374L633.1598011363636,252.86644843263042L637.5264204545455,255.73414297196592L641.8930397727273,258.58656378800515L646.259659090909,261.4228380965598L650.6262784090909,264.24215545516927L654.9928977272726,267.043593206263L659.3595170454546,269.8263284390348L663.7261363636363,272.58952577433297L668.0927556818182,275.3323061937964L672.4593749999999,278.05384678661886L676.8259943181819,280.753386983722L681.1926136363636,283.42997295667146L685.5592329545455,286.08293141480743L689.9258522727272,288.7113397005596L694.2924715909091,291.31444347902226L698.6590909090909,293.89148841528964L703.0257102272727,296.44163289603733L707.3923295454545,298.96409764966864L711.7589488636364,301.4581595121417L716.1255681818182,303.92297063595936L720.4921875,306.35790760384407L724.8588068181818,308.76216620750813L729.2254261363636,311.1349796437002L733.5920454545455,313.47568709010636L737.9586647727273,315.78348433843877L742.3252840909091,318.0577853764566L746.6919034090909,320.29784833759976L751.0585227272728,322.5029500578265L755.4251420454545,324.672479588205L759.7917613636364,326.8057324672118L764.1583806818181,328.9020541067055L768.5250000000001,330.96087407987744L772.8916193181818,332.9814910422905L777.2582386363637,334.96334080130856L781.6248579545454,336.9057687687905L785.9914772727274,338.8082076350137L790.3580965909091,340.6701087927742L794.724715909091,342.4908612931401L799.0913352272727,344.26991652890734L803.4579545454545,346.0067664149948L807.8245738636364,347.70084364167997L812.1911931818182,349.35167129474576L816.5578125,350.95871167679036L820.9244318181818,352.5214442343872L825.2910511363636,354.0394793317378L829.6576704545455,355.5122870641565L834.0242897727272,356.9394575347833L838.3909090909091,358.32055435152404L842.7575284090909,359.65508345618645L847.1241477272728,360.9427487255638L851.4907670454545,362.1830857137843L855.8573863636364,363.3757499828022L860.2240056818182,364.52035891026355L864.590625,365.6165532519623L868.9572443181818,366.66403688469154L873.3238636363636,367.66247316312166L877.6904829545455,368.6115433651695L882.0571022727273,369.51097318723293L886.423721590909,370.36046728537684L890.7903409090909,371.1598101910048L895.1569602272726,371.9087365621381L899.5235795454546,372.6069907976929L903.8901988636363,373.2544096402697L908.2568181818182,373.8507370991491L912.6234374999999,374.3958518027798" style="fill: none;" fill="none"></path></g></g></g></g></g><g><g opacity="0.231868"><span fill="rgb(0, 0, 0)" stroke="none" stroke-width="1px">Alt + Scroll to Zoom</span></g></g></g><g transform="translate(72, 377)" clip-path="url(#clip_1)"><clipPath id="clip_1"><rect width="960" height="23"></rect></clipPath><g><g><line x1="0" y1="0" x2="0" y2="5" style="visibility: inherit;" fill="rgb(0, 0, 0)" stroke="rgb(204, 204, 204)" stroke-width="1px"></line><line x1="87.33238636363636" y1="0" x2="87.33238636363636" y2="5" style="visibility: inherit;" fill="rgb(0, 0, 0)" stroke="rgb(204, 204, 204)" stroke-width="1px"></line><line x1="174.66477272727272" y1="0" x2="174.66477272727272" y2="5" style="visibility: inherit;" fill="rgb(0, 0, 0)" stroke="rgb(204, 204, 204)" stroke-width="1px"></line><line x1="261.99715909090907" y1="0" x2="261.99715909090907" y2="5" style="visibility: inherit;" fill="rgb(0, 0, 0)" stroke="rgb(204, 204, 204)" stroke-width="1px"></line><line x1="349.32954545454544" y1="0" x2="349.32954545454544" y2="5" style="visibility: inherit;" fill="rgb(0, 0, 0)" stroke="rgb(204, 204, 204)" stroke-width="1px"></line><line x1="436.6619318181818" y1="0" x2="436.6619318181818" y2="5" style="visibility: inherit;" fill="rgb(0, 0, 0)" stroke="rgb(204, 204, 204)" stroke-width="1px"></line><line x1="523.9943181818181" y1="0" x2="523.9943181818181" y2="5" style="visibility: inherit;" fill="rgb(0, 0, 0)" stroke="rgb(204, 204, 204)" stroke-width="1px"></line><line x1="611.3267045454545" y1="0" x2="611.3267045454545" y2="5" style="visibility: inherit;" fill="rgb(0, 0, 0)" stroke="rgb(204, 204, 204)" stroke-width="1px"></line><line x1="698.6590909090909" y1="0" x2="698.6590909090909" y2="5" style="visibility: inherit;" fill="rgb(0, 0, 0)" stroke="rgb(204, 204, 204)" stroke-width="1px"></line><line x1="785.9914772727274" y1="0" x2="785.9914772727274" y2="5" style="visibility: inherit;" fill="rgb(0, 0, 0)" stroke="rgb(204, 204, 204)" stroke-width="1px"></line><line x1="873.3238636363636" y1="0" x2="873.3238636363636" y2="5" style="visibility: inherit;" fill="rgb(0, 0, 0)" stroke="rgb(204, 204, 204)" stroke-width="1px"></line><line x1="960.65625" y1="0" x2="960.65625" y2="5" style="visibility: inherit;" fill="rgb(0, 0, 0)" stroke="rgb(204, 204, 204)" stroke-width="1px"></line></g><g transform="translate(0, 8)"><text x="0" y="0" dx="0em" dy="0.95em" style="text-anchor: middle; visibility: hidden; font-family: Roboto, sans-serif; font-size: 12px; font-weight: 200;" fill="rgb(33, 33, 33)" stroke="none" stroke-width="1px">-20</text><text x="87.33238636363636" y="0" dx="0em" dy="0.95em" style="text-anchor: middle; visibility: inherit; font-family: Roboto, sans-serif; font-size: 12px; font-weight: 200;" fill="rgb(33, 33, 33)" stroke="none" stroke-width="1px">0</text><text x="174.66477272727272" y="0" dx="0em" dy="0.95em" style="text-anchor: middle; visibility: inherit; font-family: Roboto, sans-serif; font-size: 12px; font-weight: 200;" fill="rgb(33, 33, 33)" stroke="none" stroke-width="1px">20</text><text x="261.99715909090907" y="0" dx="0em" dy="0.95em" style="text-anchor: middle; visibility: inherit; font-family: Roboto, sans-serif; font-size: 12px; font-weight: 200;" fill="rgb(33, 33, 33)" stroke="none" stroke-width="1px">40</text><text x="349.32954545454544" y="0" dx="0em" dy="0.95em" style="text-anchor: middle; visibility: inherit; font-family: Roboto, sans-serif; font-size: 12px; font-weight: 200;" fill="rgb(33, 33, 33)" stroke="none" stroke-width="1px">60</text><text x="436.6619318181818" y="0" dx="0em" dy="0.95em" style="text-anchor: middle; visibility: inherit; font-family: Roboto, sans-serif; font-size: 12px; font-weight: 200;" fill="rgb(33, 33, 33)" stroke="none" stroke-width="1px">80</text><text x="523.9943181818181" y="0" dx="0em" dy="0.95em" style="text-anchor: middle; visibility: inherit; font-family: Roboto, sans-serif; font-size: 12px; font-weight: 200;" fill="rgb(33, 33, 33)" stroke="none" stroke-width="1px">100</text><text x="611.3267045454545" y="0" dx="0em" dy="0.95em" style="text-anchor: middle; visibility: inherit; font-family: Roboto, sans-serif; font-size: 12px; font-weight: 200;" fill="rgb(33, 33, 33)" stroke="none" stroke-width="1px">120</text><text x="698.6590909090909" y="0" dx="0em" dy="0.95em" style="text-anchor: middle; visibility: inherit; font-family: Roboto, sans-serif; font-size: 12px; font-weight: 200;" fill="rgb(33, 33, 33)" stroke="none" stroke-width="1px">140</text><text x="785.9914772727274" y="0" dx="0em" dy="0.95em" style="text-anchor: middle; visibility: inherit; font-family: Roboto, sans-serif; font-size: 12px; font-weight: 200;" fill="rgb(33, 33, 33)" stroke="none" stroke-width="1px">160</text><text x="873.3238636363636" y="0" dx="0em" dy="0.95em" style="text-anchor: middle; visibility: inherit; font-family: Roboto, sans-serif; font-size: 12px; font-weight: 200;" fill="rgb(33, 33, 33)" stroke="none" stroke-width="1px">180</text><text x="960.65625" y="0" dx="0em" dy="0.95em" style="text-anchor: middle; visibility: hidden; font-family: Roboto, sans-serif; font-size: 12px; font-weight: 200;" fill="rgb(33, 33, 33)" stroke="none" stroke-width="1px">200</text></g><line x1="0" y1="0" x2="960.65625" y2="0" fill="rgb(0, 0, 0)" stroke="rgb(204, 204, 204)" stroke-width="1px"></line></g></g></g></g></svg>