<svg viewBox="0 0 1033 400" xmlns="http://www.w3.org/2000/svg"><g><g><g><g><g><line x1="41.171875" y1="356.81754606584786" x2="36.171875" y2="356.81754606584786" style="visibility: inherit;" fill="rgb(0, 0, 0)" stroke="rgb(204, 204, 204)" stroke-width="1px"></line><line x1="41.171875" y1="270.97584131107664" x2="36.171875" y2="270.97584131107664" style="visibility: inherit;" fill="rgb(0, 0, 0)" stroke="rgb(204, 204, 204)" stroke-width="1px"></line><line x1="41.171875" y1="210.07018251870855" x2="36.171875" y2="210.07018251870855" style="visibility: inherit;" fill="rgb(0, 0, 0)" stroke="rgb(204, 204, 204)" stroke-width="1px"></line><line x1="41.171875" y1="162.82808334223492" x2="36.171875" y2="162.82808334223492" style="visibility: inherit;" fill="rgb(0, 0, 0)" stroke="rgb(204, 204, 204)" stroke-width="1px"></line><line x1="41.171875" y1="124.2284777639373" x2="36.171875" y2="124.2284777639373" style="visibility: inherit;" fill="rgb(0, 0, 0)" stroke="rgb(204, 204, 204)" stroke-width="1px"></line><line x1="41.171875" y1="91.59297625994901" x2="36.171875" y2="91.59297625994901" style="visibility: inherit;" fill="rgb(0, 0, 0)" stroke="rgb(204, 204, 204)" stroke-width="1px"></line><line x1="41.171875" y1="63.32281897156927" x2="36.171875" y2="63.32281897156927" style="visibility: inherit;" fill="rgb(0, 0, 0)" stroke="rgb(204, 204, 204)" stroke-width="1px"></line><line x1="41.171875" y1="38.3867730091661" x2="36.171875" y2="38.3867730091661" style="visibility: inherit;" fill="rgb(0, 0, 0)" stroke="rgb(204, 204, 204)" stroke-width="1px"></line><line x1="41.171875" y1="16.080719795095572" x2="36.171875" y2="16.080719795095572" style="visibility: inherit;" fill="rgb(0, 0, 0)" stroke="rgb(204, 204, 204)" stroke-width="1px"></line></g><g transform="translate(31.171875, 0)"><text x="0" y="356.81754606584786" dx="0em" dy="0.3em" style="text-anchor: end; visibility: inherit; font-family: Roboto, sans-serif; font-size: 12px; font-weight: 200;" fill="rgb(33, 33, 33)" stroke="none" stroke-width="1px">0.2</text><text x="0" y="270.97584131107664" dx="0em" dy="0.3em" style="text-anchor: end; visibility: hidden; font-family: Roboto, sans-serif; font-size: 12px; font-weight: 200;" fill="rgb(33, 33, 33)" stroke="none" stroke-width="1px">0.3</text><text x="0" y="210.07018251870855" dx="0em" dy="0.3em" style="text-anchor: end; visibility: inherit; font-family: Roboto, sans-serif; font-size: 12px; font-weight: 200;" fill="rgb(33, 33, 33)" stroke="none" stroke-width="1px">0.4</text><text x="0" y="162.82808334223492" dx="0em" dy="0.3em" style="text-anchor: end; visibility: hidden; font-family: Roboto, sans-serif; font-size: 12px; font-weight: 200;" fill="rgb(33, 33, 33)" stroke="none" stroke-width="1px">0.5</text><text x="0" y="124.2284777639373" dx="0em" dy="0.3em" style="text-anchor: end; visibility: inherit; font-family: Roboto, sans-serif; font-size: 12px; font-weight: 200;" fill="rgb(33, 33, 33)" stroke="none" stroke-width="1px">0.6</text><text x="0" y="91.59297625994901" dx="0em" dy="0.3em" style="text-anchor: end; visibility: hidden; font-family: Roboto, sans-serif; font-size: 12px; font-weight: 200;" fill="rgb(33, 33, 33)" stroke="none" stroke-width="1px">0.7</text><text x="0" y="63.32281897156927" dx="0em" dy="0.3em" style="text-anchor: end; visibility: inherit; font-family: Roboto, sans-serif; font-size: 12px; font-weight: 200;" fill="rgb(33, 33, 33)" stroke="none" stroke-width="1px">0.8</text><text x="0" y="38.3867730091661" dx="0em" dy="0.3em" style="text-anchor: end; visibility: hidden; font-family: Roboto, sans-serif; font-size: 12px; font-weight: 200;" fill="rgb(33, 33, 33)" stroke="none" stroke-width="1px">0.9</text><text x="0" y="16.080719795095572" dx="0em" dy="0.3em" style="text-anchor: end; visibility: inherit; font-family: Roboto, sans-serif; font-size: 12px; font-weight: 200;" fill="rgb(33, 33, 33)" stroke="none" stroke-width="1px">1</text></g><line x1="41.171875" y1="0" x2="41.171875" y2="377" fill="rgb(0, 0, 0)" stroke="rgb(204, 204, 204)" stroke-width="1px"></line></g></g><g transform="translate(41, 0)" clip-path="url(#clip_0)"><clipPath id="clip_0"><rect width="991" height="377"></rect></clipPath><g><g><g><line x1="0" y1="0" x2="0" y2="377" fill="rgb(0, 0, 0)" stroke="rgb(66, 66, 66)" stroke-width="1px" opacity="0.25"></line><line x1="90.16619318181819" y1="0" x2="90.16619318181819" y2="377" fill="rgb(0, 0, 0)" stroke="rgb(66, 66, 66)" stroke-width="1px" opacity="0.25"></line><line x1="180.33238636363637" y1="0" x2="180.33238636363637" y2="377" fill="rgb(0, 0, 0)" stroke="rgb(66, 66, 66)" stroke-width="1px" opacity="0.25"></line><line x1="270.4985795454545" y1="0" x2="270.4985795454545" y2="377" fill="rgb(0, 0, 0)" stroke="rgb(66, 66, 66)" stroke-width="1px" opacity="0.25"></line><line x1="360.66477272727275" y1="0" x2="360.66477272727275" y2="377" fill="rgb(0, 0, 0)" stroke="rgb(66, 66, 66)" stroke-width="1px" opacity="0.25"></line><line x1="450.8309659090909" y1="0" x2="450.8309659090909" y2="377" fill="rgb(0, 0, 0)" stroke="rgb(66, 66, 66)" stroke-width="1px" opacity="0.25"></line><line x1="540.997159090909" y1="0" x2="540.997159090909" y2="377" fill="rgb(0, 0, 0)" stroke="rgb(66, 66, 66)" stroke-width="1px" opacity="0.25"></line><line x1="631.1633522727273" y1="0" x2="631.1633522727273" y2="377" fill="rgb(0, 0, 0)" stroke="rgb(66, 66, 66)" stroke-width="1px" opacity="0.25"></line><line x1="721.3295454545455" y1="0" x2="721.3295454545455" y2="377" fill="rgb(0, 0, 0)" stroke="rgb(66, 66, 66)" stroke-width="1px" opacity="0.25"></line><line x1="811.4957386363637" y1="0" x2="811.4957386363637" y2="377" fill="rgb(0, 0, 0)" stroke="rgb(66, 66, 66)" stroke-width="1px" opacity="0.25"></line><line x1="901.6619318181818" y1="0" x2="901.6619318181818" y2="377" fill="rgb(0, 0, 0)" stroke="rgb(66, 66, 66)" stroke-width="1px" opacity="0.25"></line><line x1="991.828125" y1="0" x2="991.828125" y2="377" fill="rgb(0, 0, 0)" stroke="rgb(66, 66, 66)" stroke-width="1px" opacity="0.25"></line></g><g><line x1="0" y1="356.81754606584786" x2="991.828125" y2="356.81754606584786" fill="rgb(0, 0, 0)" stroke="rgb(66, 66, 66)" stroke-width="1px" opacity="0.25"></line><line x1="0" y1="270.97584131107664" x2="991.828125" y2="270.97584131107664" fill="rgb(0, 0, 0)" stroke="rgb(66, 66, 66)" stroke-width="1px" opacity="0.25"></line><line x1="0" y1="210.07018251870855" x2="991.828125" y2="210.07018251870855" fill="rgb(0, 0, 0)" stroke="rgb(66, 66, 66)" stroke-width="1px" opacity="0.25"></line><line x1="0" y1="162.82808334223492" x2="991.828125" y2="162.82808334223492" fill="rgb(0, 0, 0)" stroke="rgb(66, 66, 66)" stroke-width="1px" opacity="0.25"></line><line x1="0" y1="124.2284777639373" x2="991.828125" y2="124.2284777639373" fill="rgb(0, 0, 0)" stroke="rgb(66, 66, 66)" stroke-width="1px" opacity="0.25"></line><line x1="0" y1="91.59297625994901" x2="991.828125" y2="91.59297625994901" fill="rgb(0, 0, 0)" stroke="rgb(66, 66, 66)" stroke-width="1px" opacity="0.25"></line><line x1="0" y1="63.32281897156927" x2="991.828125" y2="63.32281897156927" fill="rgb(0, 0, 0)" stroke="rgb(66, 66, 66)" stroke-width="1px" opacity="0.25"></line><line x1="0" y1="38.3867730091661" x2="991.828125" y2="38.3867730091661" fill="rgb(0, 0, 0)" stroke="rgb(66, 66, 66)" stroke-width="1px" opacity="0.25"></line><line x1="0" y1="16.080719795095572" x2="991.828125" y2="16.080719795095572" fill="rgb(0, 0, 0)" stroke="rgb(66, 66, 66)" stroke-width="1px" opacity="0.25"></line></g></g></g><g><g><line x1="90.16619318181819" y1="0" x2="90.16619318181819" y2="377" fill="rgb(0, 0, 0)" stroke="rgb(153, 153, 153)" stroke-width="1.5px"></line></g></g><g><g><g><g><g><path stroke="rgb(0, 119, 187)" stroke-width="2px" d="M90.16619318181819,-5.03281196234365L94.6745028409091,24.70680391030646L99.18281250000001,43.583390303758684L103.69112215909091,56.729351766513986L108.19943181818181,65.962925373709L112.70774147727272,72.92435281649455L117.21605113636363,78.4612692478385L121.72436079545454,83.04426423415545L126.23267045454544,87.1486089923225L130.74098011363634,90.67153771787922L135.24928977272725,93.9115737313193L139.75759943181816,96.47632540224315L144.26590909090908,98.8928600662853L148.77421875,101.01331556651326L153.2825284090909,102.91901554911578L157.7908380681818,104.74996904182267L162.29914772727273,106.47810651920142L166.80745738636364,108.03634932786133L171.31576704545455,109.38256053976123L175.82407670454546,110.78471029770115L180.33238636363637,112.10987893669082L184.8406960227273,113.20837583389351L189.3490056818182,114.24869104243166L193.8573153409091,115.30830586031894L198.36562500000002,116.4508700842563L202.87393465909093,117.57850286346053L207.38224431818182,118.56640353707162L211.8905539772727,119.60973075878412L216.39886363636361,120.57988890044682L220.90717329545453,121.7026397269012L225.41548295454544,122.76120226662157L229.92379261363635,124.07467569424786L234.43210227272726,125.2204999507166L238.94041193181818,126.58209353767676L243.4487215909091,127.89615358237542L247.95703125,129.28518203704806L252.46534090909088,130.77404831496503L256.9736505681818,132.30148247950376L261.4819602272727,133.9718285986439L265.99026988636365,135.6854568787359L270.4985795454545,137.5114411044523L275.0068892045455,139.2968269146916L279.51519886363633,141.1714129734703L284.0235085227273,143.31340110052614L288.53181818181815,145.44847463561376L293.0401278409091,147.6589854109093L297.5484375,149.8310401064608L302.05674715909095,152.28524432385385L306.5650568181818,154.8475969658137L311.07336647727277,157.4494355862319L315.5816761363636,160.1344169797807L320.0899857954546,162.8671329975266L324.59829545454545,165.6974538273374L329.10660511363636,168.471402223055L333.6149147727273,171.4031101021407L338.12322443181813,174.3414682922248L342.6315340909091,177.43779351555668L347.13984374999995,180.472839739289L351.6481534090909,183.60257668114542L356.1564630681818,186.76108818826847L360.66477272727275,189.96701604987794L365.1730823863636,193.17790759300044L369.6813920454546,196.4657267004163L374.1897017045454,199.58222271675805L378.6980113636364,203.00866287067242L383.20632102272725,206.3201853257132L387.7146306818182,209.5922122338516L392.2229403409091,212.90822705757685L396.73125000000005,216.10767208742425L401.2395596590909,219.40894430664548L405.74786931818187,222.63847784250163L410.2561789772727,226.01204505228708L414.76448863636364,229.19499920257982L419.27279829545455,232.21459090201807L423.7811079545454,235.41472291533327L428.2894176136364,238.57459101898007L432.79772727272723,241.5203347727599L437.3060369318182,244.72624796685983L441.81434659090905,247.8781025598397L446.32265625,251.0771497761074L450.8309659090909,254.08222817771846L455.33927556818185,257.0617071335629L459.8475852272727,260.335210677925L464.35589488636367,263.5171567761071L468.8642045454545,266.243862906466L473.3725142045455,268.95062706457975L477.88082386363635,271.74555624038516L482.3891335227273,274.7055719271803L486.8974431818182,277.63113647844204L491.40575284090914,280.23669451628797L495.9140625,282.8923207708027L500.42237215909086,285.4446242156464L504.93068181818177,287.89950783424206L509.43899147727274,290.68560167292475L513.9473011363636,293.1042228437424L518.4556107954545,295.71360969343465L522.9639204545454,298.2397241428404L527.4722301136364,300.7953073718976L531.9805397727273,303.26445418792997L536.4888494318182,305.55410729279544L540.997159090909,308.0194115796767L545.5054687500001,310.29254639315667L550.013778409091,312.5480819737544L554.5220880681818,314.80222609425846L559.0303977272727,316.7601351320529L563.5387073863637,318.8381731468159L568.0470170454546,320.88864589186994L572.5553267045455,323.1428571428571L577.0636363636363,325.04735831124856L581.5719460227273,327.0793760199701L586.0802556818182,329.2227748084443L590.5885653409091,331.30003660166733L595.096875,333.36736741418065L599.6051846590908,335.3544083512356L604.1134943181819,337.3094290912436L608.6218039772727,339.1588750116657L613.1301136363636,341.0144134437191L617.6384232954545,343.00356144642234L622.1467329545455,344.879835489365L626.6550426136364,346.8144904277646L631.1633522727273,348.44407472018327L635.6716619318181,350.2525795704968L640.1799715909092,351.91878772452395L644.68828125,353.6178472134826" style="fill: none;" fill="none"></path></g><g><path stroke="rgb(255, 112, 67)" stroke-width="2px" d="M121.72436079545454,-7.5324855831826465L126.23267045454544,5.721244637948893L130.74098011363634,17.56113867175898L135.24928977272725,28.56015001529067L139.75759943181816,37.85593083929248L144.26590909090908,46.55072082509907L148.77421875,53.85714285714283L153.2825284090909,60.59261871057108L157.7908380681818,66.81208509940143L162.29914772727273,72.33893152918283L166.80745738636364,77.37738580831147L171.31576704545455,81.88204770714299L175.82407670454546,85.91775692023656L180.33238636363637,89.59700518252428L184.8406960227273,92.90525188326153L189.3490056818182,96.06621832612342L193.8573153409091,98.62036492689322L198.36562500000002,101.12011508390145L202.87393465909093,103.49306805275852L207.38224431818182,105.51586586201157L211.8905539772727,107.29345620822927L216.39886363636361,108.90342335954522L220.90717329545453,110.43441875641118L225.41548295454544,111.8269113986156L229.92379261363635,113.01806642358082L234.43210227272726,114.09629240214957L238.94041193181818,115.2274784760776L243.4487215909091,116.01765147761385L247.95703125,116.90812344736642L252.46534090909088,117.72406765400606L256.9736505681818,118.62090786220257L261.4819602272727,119.3624356920007L265.99026988636365,120.13900144532234L270.4985795454545,120.59694391595663L275.0068892045455,121.19938836890825L279.51519886363633,121.75574813929022L284.0235085227273,122.17511157544473L288.53181818181815,122.68437058493814L293.0401278409091,122.84368922971198L297.5484375,123.23274006101767L302.05674715909095,123.5906512439968L306.5650568181818,123.90774685997799L311.07336647727277,124.16356790465709L315.5816761363636,124.46879460985019L320.0899857954546,124.65267190189196L324.59829545454545,124.84119844183104L329.10660511363636,125.12946258406183L333.6149147727273,125.42541653739403L338.12322443181813,125.59720718311527L342.6315340909091,125.75058818703941L347.13984374999995,125.86552508774945L351.6481534090909,125.98685180974522L356.1564630681818,126.2022492771907L360.66477272727275,126.31272203543735L365.1730823863636,126.428763311216L369.6813920454546,126.5561363562728L374.1897017045454,126.6780402196096L378.6980113636364,126.87286334512501L383.20632102272725,126.93441147439793L387.7146306818182,127.01154538346702L392.2229403409091,127.17562242891803L396.73125000000005,127.30375046350116L401.2395596590909,127.38340957291634L405.74786931818187,127.48595089937785L410.2561789772727,127.54553749283227L414.76448863636364,127.7193111183784L419.27279829545455,127.83038472620655L423.7811079545454,127.82247678413927L428.2894176136364,127.78126280421168L432.79772727272723,127.85400286520084L437.3060369318182,128.04440641978118L441.81434659090905,128.19423846129186L446.32265625,128.20088782565387L450.8309659090909,128.3427601361802L455.33927556818185,128.42078812619013L459.8475852272727,128.44820656440612L464.35589488636367,128.48075905007778L468.8642045454545,128.54742406254246L473.3725142045455,128.69117114174526L477.88082386363635,128.7600842260854L482.3891335227273,128.83935854691703L486.8974431818182,128.8773130421151L491.40575284090914,128.9068664228311L495.9140625,128.9902063754568L500.42237215909086,128.97779476330248L504.93068181818177,129.02568822316425L509.43899147727274,129.18603058880842L513.9473011363636,129.20247889395236L518.4556107954545,129.2744078701106L522.9639204545454,129.30386429499245L527.4722301136364,129.38903349793046L531.9805397727273,129.437152951681L536.4888494318182,129.47274414916131L540.997159090909,129.3872614831872L545.5054687500001,129.42940577512053L550.013778409091,129.49210405567493L554.5220880681818,129.5821919558231L559.0303977272727,129.6061330665562L563.5387073863637,129.54356926614577L568.0470170454546,129.6758381769334L572.5553267045455,129.7923118812082L577.0636363636363,129.86247950172574L581.5719460227273,129.9447353148465L586.0802556818182,129.99504426232633L590.5885653409091,130.07233483351624L595.096875,130.07016488101803L599.6051846590908,130.10543421521086L604.1134943181819,130.063770326272L608.6218039772727,130.0786023974875L613.1301136363636,130.1010699795529L617.6384232954545,130.11646426662642L622.1467329545455,130.19855934324897L626.6550426136364,130.27393919567098L631.1633522727273,130.2978117011234L635.6716619318181,130.36528155224238L640.1799715909092,130.43045153035797L644.68828125,130.47571109033132L649.1965909090909,130.57689442358426L653.7049005681818,130.6139297143573L658.2132102272727,130.6838540417376L662.7215198863637,130.73082162954563L667.2298295454545,130.80381581765337L671.7381392045454,130.83267251513186L676.2464488636363,130.7964961696552L680.7547585227273,130.80864041350682L685.2630681818182,130.83838420278468L689.771377840909,130.82705420391846L694.2796874999999,130.93122867755983L698.787997159091,130.9660974536946L703.2963068181818,130.9734209127442L707.8046164772727,131.00233087235372L712.3129261363636,131.03255507577057L716.8212357954546,131.07753759442735L721.3295454545455,131.14289292521968L725.8378551136364,131.14603535054923L730.3461647727272,131.21396653201927L734.8544744318183,131.24969269200542L739.3627840909091,131.2181759846601L743.87109375,131.29170762159032L748.3794034090909,131.27425623926L752.8877130681817,131.31023945427225L757.3960227272728,131.3519695362949L761.9043323863636,131.36415111668273L766.4126420454545,131.4197114694035L770.9209517045454,131.3651188069196L775.4292613636364,131.31745662590214L779.9375710227273,131.3092231483877L784.4458806818182,131.32694284509023L788.954190340909,131.33384019348745L793.4625000000001,131.36988107233813L797.970809659091,131.43310878187572L802.4791193181818,131.43341337177515L806.9874289772727,131.50695245264882L811.4957386363637,131.51596480701937L816.0040482954546,131.48885961116142L820.5123579545455,131.55895679333477L825.0206676136363,131.5852212971949L829.5289772727273,131.61180993356476L834.0372869318182,131.608206842691L838.5455965909091,131.5886634945092L843.05390625,131.5945091628361L847.5622159090908,131.61261221434134L852.0705255681819,131.65468095499145L856.5788352272727,131.72623155165056L861.0871448863636,131.70050045320457L865.5954545454545,131.7217867536976L870.1037642045455,131.74330997286768L874.6120738636364,131.7720406313543L879.1203835227273,131.78420880679244L883.6286931818181,131.791458121537L888.1370028409092,131.71377537721625L892.6453125,131.72646686635431L897.1536221590909,131.76728314478007L901.6619318181818,131.7177126063464L906.1702414772727,131.71999335202258L910.6785511363637,131.75023714867115L915.1868607954545,131.73901355457383L919.6951704545454,131.74675914376834L924.2034801136363,131.73316958139037L928.7117897727273,131.7418831345549L933.2200994318182,131.76048062994892L937.728409090909,131.6661220225305L942.2367187499999,131.7369692487455" style="fill: none;" fill="none"></path></g></g></g></g><g opacity="0.2"><g><g><g><path stroke="rgb(0, 119, 187)" stroke-width="2px" d="M90.16619318181819,-5.03281196234365L94.6745028409091,54.81611402044002L99.18281250000001,78.99616778502893L103.69112215909091,90.96604166905385L108.19943181818181,95.5721366307117L112.70774147727272,98.88704546300639L117.21605113636363,101.64113838396383L121.72436079545454,104.06474035168951L126.23267045454544,107.47086758113656L130.74098011363634,109.1797964430355L135.24928977272725,111.83674777268895L139.75759943181816,111.18348628077352L144.26590909090908,113.26935888307693L148.77421875,113.98922606386692L153.2825284090909,114.87057638331073L157.7908380681818,116.49841344448721L162.29914772727273,117.77883390645157L166.80745738636364,118.37805150447824L171.31576704545455,118.42071164193868L175.82407670454546,120.33508031657352L180.33238636363637,121.22810595388381L184.8406960227273,120.81077595293644L189.3490056818182,121.50371769935899L193.8573153409091,122.75729597900468L198.36562500000002,124.54967715518269L202.87393465909093,125.61587961893808L207.38224431818182,125.62453830380787L211.8905539772727,127.10522501194086L216.39886363636361,127.5669092387276L220.90717329545453,129.8406817657933L225.41548295454544,130.4472493660159L229.92379261363635,133.68524304124384L234.43210227272726,133.59573086603024L238.94041193181818,136.59773662828312L243.4487215909091,137.5701331725642L247.95703125,139.54251358361924L252.46534090909088,141.80596418034023L256.9736505681818,143.64170112877886L261.4819602272727,146.42238338240227L265.99026988636365,148.48186970365973L270.4985795454545,151.18950728329958L275.0068892045455,152.66929828290736L279.51519886363633,155.246673595165L284.0235085227273,159.49463057136043L288.53181818181815,161.5831010426124L293.0401278409091,164.3971631559372L297.5484375,166.27112265525756L302.05674715909095,170.97704463909054L306.5650568181818,174.4133286689107L311.07336647727277,177.338410019363L315.5816761363636,180.6997743981647L320.0899857954546,183.82351778190255L324.59829545454545,187.45125796668069L329.10660511363636,189.76970712285004L333.6149147727273,193.9915634447505L338.12322443181813,196.98711298327822L342.6315340909091,201.38431428863103L347.13984374999995,203.91678423660665L351.6481534090909,207.8291491220128L356.1564630681818,211.2273118374309L360.66477272727275,214.827500129645L365.1730823863636,218.0809424717343L369.6813920454546,222.0090555878829L374.1897017045454,223.70628497051567L378.6980113636364,229.71123575216475L383.20632102272725,232.06382220859592L387.7146306818182,235.00783819845654L392.2229403409091,238.69072031303102L396.73125000000005,240.92180318936227L401.2395596590909,245.0697188379643L405.74786931818187,247.70317434948464L410.2561789772727,252.27674171062043L414.76448863636364,253.87409424275273L419.27279829545455,255.54525253331386L423.7811079545454,260.2367537941443L428.2894176136364,263.063276125418L432.79772727272723,264.24508011200396L437.3060369318182,269.5968287285659L441.81434659090905,272.3009915087775L446.32265625,275.8910822422449L450.8309659090909,277.2947210114072L455.33927556818185,280.06393911330235L459.8475852272727,285.76786082363645L464.35589488636367,288.18973897179404L468.8642045454545,287.1816795105681L473.3725142045455,289.72656825049603L477.88082386363635,293.23849522114637L482.3891335227273,297.5484021325175L486.8974431818182,300.19151289180604L491.40575284090914,300.19313053110216L495.9140625,303.2538351880453L500.42237215909086,304.9712325849341L504.93068181818177,306.6422818843516L509.43899147727274,312.1067735323199L513.9473011363636,311.55608618373844L518.4556107954545,315.7011069495793L522.9639204545454,317.55536827120665L527.4722301136364,320.3484504566777L531.9805397727273,322.1218630066853L536.4888494318182,322.97490587885056L540.997159090909,326.8459652532162L545.5054687500001,327.5816983034558L550.013778409091,329.69706591622503L554.5220880681818,331.94013609802306L559.0303977272727,331.55430963438494L563.5387073863637,334.5792614190079L568.0470170454546,336.4120325131685L572.5553267045455,340.28131383373074L577.0636363636363,339.422084828539L581.5719460227273,342.457155695891L586.0802556818182,345.4810882495048L590.5885653409091,347.03500257074126L595.096875,349.0238753882033L599.6051846590908,350.3777916368284L604.1134943181819,352.08091196387585L608.6218039772727,353.1021922596717L613.1301136363636,355.0054239629417L617.6384232954545,358.04353570690176L622.1467329545455,359.03325784110496L626.6550426136364,361.42593510699544L631.1633522727273,360.67436178484036L635.6716619318181,363.87572371313973L640.1799715909092,364.4333434169651L644.68828125,366.3877565904658" style="fill: none;" fill="none"></path></g><g><path stroke="rgb(255, 112, 67)" stroke-width="2px" d="M99.18281250000001,-64.01856498393882L103.69112215909091,0.023897576958401556L108.19943181818181,34.38020425248166L112.70774147727272,50.062993459108355L117.21605113636363,64.98590591731276L121.72436079545454,76.68100039944837L126.23267045454544,81.85731142195974L130.74098011363634,89.16191571160732L135.24928977272725,98.31937781570383L139.75759943181816,97.95902192475732L144.26590909090908,104.58583591595674L148.77421875,103.06128053563943L153.2825284090909,106.83913353646268L157.7908380681818,110.19452450652716L162.29914772727273,111.21061915589185L166.80745738636364,113.1403876191568L171.31576704545455,114.03329573964537L175.82407670454546,114.85349324918032L180.33238636363637,116.10674903182435L184.8406960227273,116.81288892268273L189.3490056818182,119.0495382159537L193.8573153409091,117.11046429423104L198.36562500000002,119.32068258470944L202.87393465909093,120.82940215954893L207.38224431818182,120.266621200391L211.8905539772727,120.25099597091223L216.39886363636361,120.64604676835604L220.90717329545453,121.62193210490827L225.41548295454544,122.00485803046745L229.92379261363635,121.71242359449414L234.43210227272726,121.96683805506133L238.94041193181818,123.51002818398281L243.4487215909091,121.77444974546064L247.95703125,123.41861858346198L252.46534090909088,123.68895901009684L256.9736505681818,125.19556562094144L261.4819602272727,124.7874501578718L265.99026988636365,125.82952862741398L270.4985795454545,123.93427259023547L275.0068892045455,125.60544309293047L279.51519886363633,125.82357395018252L284.0235085227273,125.23467708454861L288.53181818181815,126.40816356787514L293.0401278409091,124.00115498880184L297.5484375,126.0730509424423L302.05674715909095,126.20286723013339L306.5650568181818,126.22086995226132L311.07336647727277,126.02792993661119L315.5816761363636,126.69586223098717L320.0899857954546,125.9913862129025L324.59829545454545,126.21411875206607L329.10660511363636,127.23313738694776L333.6149147727273,127.58581893932224L338.12322443181813,126.84833296562368L342.6315340909091,126.86734895382769L347.13984374999995,126.70182021465003L351.6481534090909,126.8698192411396L356.1564630681818,127.77282743952937L360.66477272727275,127.11663119644851L365.1730823863636,127.27333122033755L369.6813920454546,127.48342760990609L374.1897017045454,127.56545635985198L378.6980113636364,128.2931853374658L383.20632102272725,127.38196101341875L387.7146306818182,127.57261402133507L392.2229403409091,128.37117465545103L396.73125000000005,128.23672159136328L401.2395596590909,127.96291246152623L405.74786931818187,128.2322634404294L410.2561789772727,127.97886048835386L414.76448863636364,128.9858652811308L419.27279829545455,128.63896285252943L423.7811079545454,127.76504281274954L428.2894176136364,127.48212480544917L432.79772727272723,128.38314256476127L437.3060369318182,129.4326826008539L441.81434659090905,129.28583577187771L446.32265625,128.24919633947044L450.8309659090909,129.3762158612994L455.33927556818185,128.98846796128217L459.8475852272727,128.64748836302863L464.35589488636367,128.7173804267764L468.8642045454545,129.03233116143855L473.3725142045455,129.73833840996986L477.88082386363635,129.26136761033865L482.3891335227273,129.41612895805466L486.8974431818182,129.15323325273064L491.40575284090914,129.12167756175742L495.9140625,129.59660765147285L500.42237215909086,128.88765362494837L504.93068181818177,129.37393164604367L509.43899147727274,130.35448420980063L513.9473011363636,129.32200472156657L518.4556107954545,129.79766561958422L522.9639204545454,129.51797161551391L527.4722301136364,130.00877037221053L531.9805397727273,129.78704249554275L536.4888494318182,129.73147410730616L540.997159090909,128.76731132051285L545.5054687500001,129.73581283877124L550.013778409091,129.94813073926272L554.5220880681818,130.2377843171127L559.0303977272727,129.78013343265346L563.5387073863637,129.0896316090672L568.0470170454546,130.63918830790675L572.5553267045455,130.64035893686332L577.0636363636363,130.37290841372663L581.5719460227273,130.5432404222135L586.0802556818182,130.36087079692732L590.5885653409091,130.6346576012842L595.096875,130.05440201780397L599.6051846590908,130.36182338914548L604.1134943181819,129.76135055764627L608.6218039772727,130.18638059177997L613.1301136363636,130.26435645537052L617.6384232954545,130.2283290757061L622.1467329545455,130.795893352641L626.6550426136364,130.82234036329098L631.1633522727273,130.47131344858244L635.6716619318181,130.85606021145452L640.1799715909092,130.9044795011058L644.68828125,130.80478820489373L649.1965909090909,131.31339215036587L653.7049005681818,130.88316583619897L658.2132102272727,131.19251112636925L662.7215198863637,131.07232903836788L667.2298295454545,131.3348361720898L671.7381392045454,131.04241906084192L676.2464488636363,130.5338798666528L680.7547585227273,130.89688273492914L685.2630681818182,131.05458237632962L689.771377840909,130.74476604772664L694.2796874999999,131.68954291624752L698.787997159091,131.21957291314092L703.2963068181818,131.02662951331817L707.8046164772727,131.21246478357872L712.3129261363636,131.25224729397635L716.8212357954546,131.40459863905545L721.3295454545455,131.61827088496008L725.8378551136364,131.1688647824526L730.3461647727272,131.70810546380255L734.8544744318183,131.50940518216976L739.3627840909091,130.9893647694522L743.87109375,131.82664348096057L748.3794034090909,131.14752448578545L752.8877130681817,131.57182192920564L757.3960227272728,131.65536332761258L761.9043323863636,131.4526648004795L766.4126420454545,131.8237658760476L770.9209517045454,130.96895446160607L775.4292613636364,130.97153821094722L779.9375710227273,131.24942096732897L784.4458806818182,131.455711461853L788.954190340909,131.38395247083807L793.4625000000001,131.6318830347862L797.970809659091,131.8929918404289L802.4791193181818,131.435626066923L806.9874289772727,132.0419425473003L811.4957386363637,131.5814462391221L816.0040482954546,131.29205902647345L820.5123579545455,132.0688730599879L825.0206676136363,131.77611668106888L829.5289772727273,131.80506239742436L834.0372869318182,131.58203416363597L838.5455965909091,131.44674569800333L843.05390625,131.63697964886836L847.5622159090908,131.74416764651255L852.0705255681819,131.96053895082437L856.5788352272727,132.24673536064554L861.0871448863636,131.51367166367746L865.5954545454545,131.87648457105084L870.1037642045455,131.89973031635378L874.6120738636364,131.98087055371522L879.1203835227273,131.87262506491442L883.6286931818181,131.84412795159886L888.1370028409092,131.1503059911338L892.6453125,131.81868656282631L897.1536221590909,132.06402793384063L901.6619318181818,131.35795726172435L906.1702414772727,131.73656248176567L910.6785511363637,131.97007187343658L915.1868607954545,131.65749802882357L919.6951704545454,131.8030351965468L924.2034801136363,131.6344748872993L928.7117897727273,131.80519318524432L933.2200994318182,131.89563050609974L937.728409090909,130.98191695039463L942.2367187499999,132.2523492108844" style="fill: none;" fill="none"></path></g></g></g></g></g></g><g transform="translate(41, 377)" clip-path="url(#clip_1)"><clipPath id="clip_1"><rect width="991" height="23"></rect></clipPath><g><g><line x1="0" y1="0" x2="0" y2="5" style="visibility: inherit;" fill="rgb(0, 0, 0)" stroke="rgb(204, 204, 204)" stroke-width="1px"></line><line x1="90.16619318181819" y1="0" x2="90.16619318181819" y2="5" style="visibility: inherit;" fill="rgb(0, 0, 0)" stroke="rgb(204, 204, 204)" stroke-width="1px"></line><line x1="180.33238636363637" y1="0" x2="180.33238636363637" y2="5" style="visibility: inherit;" fill="rgb(0, 0, 0)" stroke="rgb(204, 204, 204)" stroke-width="1px"></line><line x1="270.4985795454545" y1="0" x2="270.4985795454545" y2="5" style="visibility: inherit;" fill="rgb(0, 0, 0)" stroke="rgb(204, 204, 204)" stroke-width="1px"></line><line x1="360.66477272727275" y1="0" x2="360.66477272727275" y2="5" style="visibility: inherit;" fill="rgb(0, 0, 0)" stroke="rgb(204, 204, 204)" stroke-width="1px"></line><line x1="450.8309659090909" y1="0" x2="450.8309659090909" y2="5" style="visibility: inherit;" fill="rgb(0, 0, 0)" stroke="rgb(204, 204, 204)" stroke-width="1px"></line><line x1="540.997159090909" y1="0" x2="540.997159090909" y2="5" style="visibility: inherit;" fill="rgb(0, 0, 0)" stroke="rgb(204, 204, 204)" stroke-width="1px"></line><line x1="631.1633522727273" y1="0" x2="631.1633522727273" y2="5" style="visibility: inherit;" fill="rgb(0, 0, 0)" stroke="rgb(204, 204, 204)" stroke-width="1px"></line><line x1="721.3295454545455" y1="0" x2="721.3295454545455" y2="5" style="visibility: inherit;" fill="rgb(0, 0, 0)" stroke="rgb(204, 204, 204)" stroke-width="1px"></line><line x1="811.4957386363637" y1="0" x2="811.4957386363637" y2="5" style="visibility: inherit;" fill="rgb(0, 0, 0)" stroke="rgb(204, 204, 204)" stroke-width="1px"></line><line x1="901.6619318181818" y1="0" x2="901.6619318181818" y2="5" style="visibility: inherit;" fill="rgb(0, 0, 0)" stroke="rgb(204, 204, 204)" stroke-width="1px"></line><line x1="991.828125" y1="0" x2="991.828125" y2="5" style="visibility: inherit;" fill="rgb(0, 0, 0)" stroke="rgb(204, 204, 204)" stroke-width="1px"></line></g><g transform="translate(0, 8)"><text x="0" y="0" dx="0em" dy="0.95em" style="text-anchor: middle; visibility: hidden; font-family: Roboto, sans-serif; font-size: 12px; font-weight: 200;" fill="rgb(33, 33, 33)" stroke="none" stroke-width="1px">-20</text><text x="90.16619318181819" y="0" dx="0em" dy="0.95em" style="text-anchor: middle; visibility: inherit; font-family: Roboto, sans-serif; font-size: 12px; font-weight: 200;" fill="rgb(33, 33, 33)" stroke="none" stroke-width="1px">0</text><text x="180.33238636363637" y="0" dx="0em" dy="0.95em" style="text-anchor: middle; visibility: inherit; font-family: Roboto, sans-serif; font-size: 12px; font-weight: 200;" fill="rgb(33, 33, 33)" stroke="none" stroke-width="1px">20</text><text x="270.4985795454545" y="0" dx="0em" dy="0.95em" style="text-anchor: middle; visibility: inherit; font-family: Roboto, sans-serif; font-size: 12px; font-weight: 200;" fill="rgb(33, 33, 33)" stroke="none" stroke-width="1px">40</text><text x="360.66477272727275" y="0" dx="0em" dy="0.95em" style="text-anchor: middle; visibility: inherit; font-family: Roboto, sans-serif; font-size: 12px; font-weight: 200;" fill="rgb(33, 33, 33)" stroke="none" stroke-width="1px">60</text><text x="450.8309659090909" y="0" dx="0em" dy="0.95em" style="text-anchor: middle; visibility: inherit; font-family: Roboto, sans-serif; font-size: 12px; font-weight: 200;" fill="rgb(33, 33, 33)" stroke="none" stroke-width="1px">80</text><text x="540.997159090909" y="0" dx="0em" dy="0.95em" style="text-anchor: middle; visibility: inherit; font-family: Roboto, sans-serif; font-size: 12px; font-weight: 200;" fill="rgb(33, 33, 33)" stroke="none" stroke-width="1px">100</text><text x="631.1633522727273" y="0" dx="0em" dy="0.95em" style="text-anchor: middle; visibility: inherit; font-family: Roboto, sans-serif; font-size: 12px; font-weight: 200;" fill="rgb(33, 33, 33)" stroke="none" stroke-width="1px">120</text><text x="721.3295454545455" y="0" dx="0em" dy="0.95em" style="text-anchor: middle; visibility: inherit; font-family: Roboto, sans-serif; font-size: 12px; font-weight: 200;" fill="rgb(33, 33, 33)" stroke="none" stroke-width="1px">140</text><text x="811.4957386363637" y="0" dx="0em" dy="0.95em" style="text-anchor: middle; visibility: inherit; font-family: Roboto, sans-serif; font-size: 12px; font-weight: 200;" fill="rgb(33, 33, 33)" stroke="none" stroke-width="1px">160</text><text x="901.6619318181818" y="0" dx="0em" dy="0.95em" style="text-anchor: middle; visibility: inherit; font-family: Roboto, sans-serif; font-size: 12px; font-weight: 200;" fill="rgb(33, 33, 33)" stroke="none" stroke-width="1px">180</text><text x="991.828125" y="0" dx="0em" dy="0.95em" style="text-anchor: middle; visibility: hidden; font-family: Roboto, sans-serif; font-size: 12px; font-weight: 200;" fill="rgb(33, 33, 33)" stroke="none" stroke-width="1px">200</text></g><line x1="0" y1="0" x2="991.828125" y2="0" fill="rgb(0, 0, 0)" stroke="rgb(204, 204, 204)" stroke-width="1px"></line></g></g></g></g></svg>