<svg viewBox="0 0 1033 400" xmlns="http://www.w3.org/2000/svg"><g><g><g><g><g><line x1="51.5625" y1="371.5314461828989" x2="46.5625" y2="371.5314461828989" style="visibility: inherit;" fill="rgb(0, 0, 0)" stroke="rgb(204, 204, 204)" stroke-width="1px"></line><line x1="51.5625" y1="355.9384183783319" x2="46.5625" y2="355.9384183783319" style="visibility: inherit;" fill="rgb(0, 0, 0)" stroke="rgb(204, 204, 204)" stroke-width="1px"></line><line x1="51.5625" y1="253.3547968798396" x2="46.5625" y2="253.3547968798396" style="visibility: inherit;" fill="rgb(0, 0, 0)" stroke="rgb(204, 204, 204)" stroke-width="1px"></line><line x1="51.5625" y1="193.34722511504899" x2="46.5625" y2="193.34722511504899" style="visibility: inherit;" fill="rgb(0, 0, 0)" stroke="rgb(204, 204, 204)" stroke-width="1px"></line><line x1="51.5625" y1="150.77117538134726" x2="46.5625" y2="150.77117538134726" style="visibility: inherit;" fill="rgb(0, 0, 0)" stroke="rgb(204, 204, 204)" stroke-width="1px"></line><line x1="51.5625" y1="117.74662554569137" x2="46.5625" y2="117.74662554569137" style="visibility: inherit;" fill="rgb(0, 0, 0)" stroke="rgb(204, 204, 204)" stroke-width="1px"></line><line x1="51.5625" y1="90.76360361655661" x2="46.5625" y2="90.76360361655661" style="visibility: inherit;" fill="rgb(0, 0, 0)" stroke="rgb(204, 204, 204)" stroke-width="1px"></line><line x1="51.5625" y1="67.94978364204526" x2="46.5625" y2="67.94978364204526" style="visibility: inherit;" fill="rgb(0, 0, 0)" stroke="rgb(204, 204, 204)" stroke-width="1px"></line><line x1="51.5625" y1="48.18755388285493" x2="46.5625" y2="48.18755388285493" style="visibility: inherit;" fill="rgb(0, 0, 0)" stroke="rgb(204, 204, 204)" stroke-width="1px"></line><line x1="51.5625" y1="30.756031851765982" x2="46.5625" y2="30.756031851765982" style="visibility: inherit;" fill="rgb(0, 0, 0)" stroke="rgb(204, 204, 204)" stroke-width="1px"></line><line x1="51.5625" y1="15.163004047199037" x2="46.5625" y2="15.163004047199037" style="visibility: inherit;" fill="rgb(0, 0, 0)" stroke="rgb(204, 204, 204)" stroke-width="1px"></line></g><g transform="translate(41.5625, 0)"><text x="0" y="371.5314461828989" dx="0em" dy="0.3em" style="text-anchor: end; visibility: hidden; font-family: Roboto, sans-serif; font-size: 12px; font-weight: 200;" fill="rgb(33, 33, 33)" stroke="none" stroke-width="1px">0.09</text><text x="0" y="355.9384183783319" dx="0em" dy="0.3em" style="text-anchor: end; visibility: inherit; font-family: Roboto, sans-serif; font-size: 12px; font-weight: 200;" fill="rgb(33, 33, 33)" stroke="none" stroke-width="1px">0.1</text><text x="0" y="253.3547968798396" dx="0em" dy="0.3em" style="text-anchor: end; visibility: hidden; font-family: Roboto, sans-serif; font-size: 12px; font-weight: 200;" fill="rgb(33, 33, 33)" stroke="none" stroke-width="1px">0.2</text><text x="0" y="193.34722511504899" dx="0em" dy="0.3em" style="text-anchor: end; visibility: inherit; font-family: Roboto, sans-serif; font-size: 12px; font-weight: 200;" fill="rgb(33, 33, 33)" stroke="none" stroke-width="1px">0.3</text><text x="0" y="150.77117538134726" dx="0em" dy="0.3em" style="text-anchor: end; visibility: hidden; font-family: Roboto, sans-serif; font-size: 12px; font-weight: 200;" fill="rgb(33, 33, 33)" stroke="none" stroke-width="1px">0.4</text><text x="0" y="117.74662554569137" dx="0em" dy="0.3em" style="text-anchor: end; visibility: inherit; font-family: Roboto, sans-serif; font-size: 12px; font-weight: 200;" fill="rgb(33, 33, 33)" stroke="none" stroke-width="1px">0.5</text><text x="0" y="90.76360361655661" dx="0em" dy="0.3em" style="text-anchor: end; visibility: hidden; font-family: Roboto, sans-serif; font-size: 12px; font-weight: 200;" fill="rgb(33, 33, 33)" stroke="none" stroke-width="1px">0.6</text><text x="0" y="67.94978364204526" dx="0em" dy="0.3em" style="text-anchor: end; visibility: inherit; font-family: Roboto, sans-serif; font-size: 12px; font-weight: 200;" fill="rgb(33, 33, 33)" stroke="none" stroke-width="1px">0.7</text><text x="0" y="48.18755388285493" dx="0em" dy="0.3em" style="text-anchor: end; visibility: hidden; font-family: Roboto, sans-serif; font-size: 12px; font-weight: 200;" fill="rgb(33, 33, 33)" stroke="none" stroke-width="1px">0.8</text><text x="0" y="30.756031851765982" dx="0em" dy="0.3em" style="text-anchor: end; visibility: inherit; font-family: Roboto, sans-serif; font-size: 12px; font-weight: 200;" fill="rgb(33, 33, 33)" stroke="none" stroke-width="1px">0.9</text><text x="0" y="15.163004047199037" dx="0em" dy="0.3em" style="text-anchor: end; visibility: hidden; font-family: Roboto, sans-serif; font-size: 12px; font-weight: 200;" fill="rgb(33, 33, 33)" stroke="none" stroke-width="1px">1</text></g><line x1="51.5625" y1="0" x2="51.5625" y2="377" fill="rgb(0, 0, 0)" stroke="rgb(204, 204, 204)" stroke-width="1px"></line></g></g><g transform="translate(51, 0)" clip-path="url(#clip_0)"><clipPath id="clip_0"><rect width="981" height="377"></rect></clipPath><g><g><g><line x1="0" y1="0" x2="0" y2="377" fill="rgb(0, 0, 0)" stroke="rgb(66, 66, 66)" stroke-width="1px" opacity="0.25"></line><line x1="89.2215909090909" y1="0" x2="89.2215909090909" y2="377" fill="rgb(0, 0, 0)" stroke="rgb(66, 66, 66)" stroke-width="1px" opacity="0.25"></line><line x1="178.4431818181818" y1="0" x2="178.4431818181818" y2="377" fill="rgb(0, 0, 0)" stroke="rgb(66, 66, 66)" stroke-width="1px" opacity="0.25"></line><line x1="267.6647727272727" y1="0" x2="267.6647727272727" y2="377" fill="rgb(0, 0, 0)" stroke="rgb(66, 66, 66)" stroke-width="1px" opacity="0.25"></line><line x1="356.8863636363636" y1="0" x2="356.8863636363636" y2="377" fill="rgb(0, 0, 0)" stroke="rgb(66, 66, 66)" stroke-width="1px" opacity="0.25"></line><line x1="446.1079545454545" y1="0" x2="446.1079545454545" y2="377" fill="rgb(0, 0, 0)" stroke="rgb(66, 66, 66)" stroke-width="1px" opacity="0.25"></line><line x1="535.3295454545454" y1="0" x2="535.3295454545454" y2="377" fill="rgb(0, 0, 0)" stroke="rgb(66, 66, 66)" stroke-width="1px" opacity="0.25"></line><line x1="624.5511363636364" y1="0" x2="624.5511363636364" y2="377" fill="rgb(0, 0, 0)" stroke="rgb(66, 66, 66)" stroke-width="1px" opacity="0.25"></line><line x1="713.7727272727273" y1="0" x2="713.7727272727273" y2="377" fill="rgb(0, 0, 0)" stroke="rgb(66, 66, 66)" stroke-width="1px" opacity="0.25"></line><line x1="802.9943181818182" y1="0" x2="802.9943181818182" y2="377" fill="rgb(0, 0, 0)" stroke="rgb(66, 66, 66)" stroke-width="1px" opacity="0.25"></line><line x1="892.215909090909" y1="0" x2="892.215909090909" y2="377" fill="rgb(0, 0, 0)" stroke="rgb(66, 66, 66)" stroke-width="1px" opacity="0.25"></line><line x1="981.4375" y1="0" x2="981.4375" y2="377" fill="rgb(0, 0, 0)" stroke="rgb(66, 66, 66)" stroke-width="1px" opacity="0.25"></line></g><g><line x1="0" y1="371.5314461828989" x2="981.4375" y2="371.5314461828989" fill="rgb(0, 0, 0)" stroke="rgb(66, 66, 66)" stroke-width="1px" opacity="0.25"></line><line x1="0" y1="355.9384183783319" x2="981.4375" y2="355.9384183783319" fill="rgb(0, 0, 0)" stroke="rgb(66, 66, 66)" stroke-width="1px" opacity="0.25"></line><line x1="0" y1="253.3547968798396" x2="981.4375" y2="253.3547968798396" fill="rgb(0, 0, 0)" stroke="rgb(66, 66, 66)" stroke-width="1px" opacity="0.25"></line><line x1="0" y1="193.34722511504899" x2="981.4375" y2="193.34722511504899" fill="rgb(0, 0, 0)" stroke="rgb(66, 66, 66)" stroke-width="1px" opacity="0.25"></line><line x1="0" y1="150.77117538134726" x2="981.4375" y2="150.77117538134726" fill="rgb(0, 0, 0)" stroke="rgb(66, 66, 66)" stroke-width="1px" opacity="0.25"></line><line x1="0" y1="117.74662554569137" x2="981.4375" y2="117.74662554569137" fill="rgb(0, 0, 0)" stroke="rgb(66, 66, 66)" stroke-width="1px" opacity="0.25"></line><line x1="0" y1="90.76360361655661" x2="981.4375" y2="90.76360361655661" fill="rgb(0, 0, 0)" stroke="rgb(66, 66, 66)" stroke-width="1px" opacity="0.25"></line><line x1="0" y1="67.94978364204526" x2="981.4375" y2="67.94978364204526" fill="rgb(0, 0, 0)" stroke="rgb(66, 66, 66)" stroke-width="1px" opacity="0.25"></line><line x1="0" y1="48.18755388285493" x2="981.4375" y2="48.18755388285493" fill="rgb(0, 0, 0)" stroke="rgb(66, 66, 66)" stroke-width="1px" opacity="0.25"></line><line x1="0" y1="30.756031851765982" x2="981.4375" y2="30.756031851765982" fill="rgb(0, 0, 0)" stroke="rgb(66, 66, 66)" stroke-width="1px" opacity="0.25"></line><line x1="0" y1="15.163004047199037" x2="981.4375" y2="15.163004047199037" fill="rgb(0, 0, 0)" stroke="rgb(66, 66, 66)" stroke-width="1px" opacity="0.25"></line></g></g></g><g><g><line x1="89.2215909090909" y1="0" x2="89.2215909090909" y2="377" fill="rgb(0, 0, 0)" stroke="rgb(153, 153, 153)" stroke-width="1.5px"></line></g></g><g><g><g><g><g><path stroke="rgb(0, 119, 187)" stroke-width="2px" d="M89.2215909090909,-0.9234050430532006L93.68267045454546,14.562597972084802L98.14375000000001,24.24476522896072L102.60482954545454,30.56823792592511L107.06590909090909,34.92870309043876L111.52698863636363,38.283463216722986L115.98806818181818,40.94861808275274L120.44914772727273,43.113646949533745L124.91022727272725,45.01605867737536L129.3713068181818,46.5390893540083L133.83238636363635,47.97560396558124L138.2934659090909,49.16240054169316L142.75454545454545,50.25369235512623L147.215625,51.23097404913464L151.67670454545456,52.14491363135222L156.1377840909091,53.03166978140675L160.59886363636363,53.857142857142875L165.05994318181817,54.6068171374999L169.52102272727274,55.284347298421956L173.98210227272727,56.022835773788685L178.4431818181818,56.80271664744499L182.90426136363638,57.55596183890702L187.36534090909092,58.26764361764618L191.82642045454546,59.08419442477058L196.28750000000002,60.01800967371757L200.74857954545456,61.026825096110414L205.20965909090907,61.983653133692556L209.67073863636364,63.08260586646755L214.13181818181818,64.34955618681143L218.5928977272727,65.68432128838377L223.05397727272725,67.01388389582307L227.51505681818182,68.61832659940956L231.97613636363636,70.23694808628288L236.4372159090909,72.01017648325902L240.89829545454546,73.84417574538267L245.359375,75.82739371938492L249.8204545454545,77.92938858563735L254.2815340909091,80.07677254445612L258.7426136363636,82.43004201098083L263.2036931818182,84.82355995138316L267.6647727272727,87.3194850627996L272.1258522727273,89.63797656851544L276.5869318181818,92.23679136494584L281.04801136363636,94.99264707105434L285.5090909090909,97.78487035031388L289.9701704545455,100.61791856890041L294.43125,103.25055209356371L298.8923295454546,106.15760849963405L303.3534090909091,109.20340516331633L307.81448863636365,112.23915025102671L312.2755681818182,115.32724018789901L316.7366477272727,118.48556493545134L321.19772727272726,121.66348561283422L325.65880681818186,124.76820391395705L330.11988636363634,127.8847176815297L334.5809659090909,130.9539886749972L339.0420454545455,134.16505696750542L343.50312499999995,137.2130809371938L347.96420454545455,140.3194348725325L352.4252840909091,143.27949250258823L356.8863636363636,146.3282404324678L361.34744318181816,149.29982477830114L365.80852272727276,152.24380904083628L370.26960227272724,155.045585432747L374.73068181818184,158.05871822668297L379.1917613636364,160.9579754090314L383.6528409090909,163.7872847656043L388.11392045454545,166.70226521021533L392.57500000000005,169.4868540086586L397.0360795454545,172.27123056358795L401.4971590909091,174.90683187734186L405.95823863636366,177.59208602765355L410.41931818181814,180.17468019798284L414.88039772727274,182.62296655890268L419.3414772727273,185.1553870091604L423.8025568181818,187.64928025130945L428.26363636363635,189.95601211469847L432.7247159090909,192.32553130320994L437.1857954545454,194.77249043575108L441.646875,197.19039507097622L446.1079545454545,199.30033132167566L450.5690340909091,201.4627243608934L455.03011363636364,203.82231090111864L459.4911931818182,206.1899772088036L463.9522727272727,208.20281026127253L468.4133522727273,210.07572390711087L472.8744318181818,212.0918569080631L477.3355113636364,214.16391525499424L481.7965909090909,216.20347439136387L486.25767045454546,218.07792053268057L490.71875,219.92963015616678L495.17982954545454,221.66593647151495L499.640909090909,223.43298890748034L504.10198863636367,225.3144769410183L508.5630681818182,226.94294986917967L513.0241477272727,228.72665615986784L517.4852272727272,230.50695673304276L521.9463068181818,232.40309777827935L526.4073863636364,234.11988629338924L530.8684659090909,235.62136605213553L535.3295454545454,237.21206844511184L539.7906250000001,238.7439713704314L544.2517045454546,240.24714445313106L548.712784090909,241.79997954152967L553.1738636363636,243.19112032928845L557.6349431818182,244.68832702662377L562.0960227272727,246.0395458508117L566.5571022727273,247.48806131258254L571.0181818181818,248.57880789934302L575.4792613636363,249.89374455862023L579.940340909091,251.35356285785974L584.4014204545455,252.703274334319L588.8625,254.09085976186225L593.3235795454545,255.3816691915963L597.7846590909091,256.7532153351419L602.2457386363636,258.0797379290339L606.7068181818182,259.28148135364233L611.1678977272727,260.56696087633765L615.6289772727273,261.721439152813L620.0900568181818,263.023569803491L624.5511363636364,264.0678409367237L629.0122159090909,265.3104186744944L633.4732954545455,266.3329972188531L637.934375,267.56455398227325" style="fill: none;" fill="none"></path></g><g><path stroke="rgb(255, 112, 67)" stroke-width="2px" d="M89.2215909090909,175.64716245940326L93.68267045454546,186.65612524699074L98.14375000000001,199.61154886506702L102.60482954545454,214.80053018937767L107.06590909090909,228.3873361215896L111.52698863636363,239.5289028034476L115.98806818181818,249.0844997843743L120.44914772727273,257.37694690229364L124.91022727272725,264.2792763695788L129.3713068181818,270.3578661567623L133.83238636363635,275.9588836268938L138.2934659090909,280.5901451635583L142.75454545454545,284.8844728545369L147.215625,288.463312687633L151.67670454545456,291.7275906261675L156.1377840909091,294.704307329995L160.59886363636363,297.3500942988402L165.05994318181817,299.7145986922127L169.52102272727274,301.7879345524977L173.98210227272727,303.6388012939331L178.4431818181818,305.30410589837174L182.90426136363638,306.8198161337998L187.36534090909092,308.2448512264683L191.82642045454546,309.3833657934435L196.28750000000002,310.49552980589135L200.74857954545456,311.51341688600604L205.20965909090907,312.4126840286878L209.67073863636364,313.1803082489465L214.13181818181818,313.8628988444026L218.5928977272727,314.48622539369796L223.05397727272725,315.0631459567762L227.51505681818182,315.55221756938647L231.97613636363636,315.98860289093096L236.4372159090909,316.4616854090864L240.89829545454546,316.8387033278237L245.359375,317.23200261931055L249.8204545454545,317.58992219365587L254.2815340909091,317.9617961585464L258.7426136363636,318.28067664906115L263.2036931818182,318.6080944929492L267.6647727272727,318.800311152783L272.1258522727273,319.0384477531549L276.5869318181818,319.2728828680722L281.04801136363636,319.44255869369744L285.5090909090909,319.6298268738813L289.9701704545455,319.70457024347775L294.43125,319.83354174102925L298.8923295454546,319.9872587677619L303.3534090909091,320.09777913183495L307.81448863636365,320.17636406687666L312.2755681818182,320.2827660272807L316.7366477272727,320.3546858633599L321.19772727272726,320.4335048078346L325.65880681818186,320.5413496288844L330.11988636363634,320.65321900666186L334.5809659090909,320.75468524718224L339.0420454545455,320.8077975712071L343.50312499999995,320.84071789701454L347.96420454545455,320.90097757104894L352.4252840909091,320.96251635522594L356.8863636363636,321.03200745585826L361.34744318181816,321.0772494720878L365.80852272727276,321.13992472665615L370.26960227272724,321.21255978393464L374.73068181818184,321.2929332793018L379.1917613636364,321.3184542529541L383.6528409090909,321.35798124822304L388.11392045454545,321.391659079153L392.57500000000005,321.4444531686054L397.0360795454545,321.4593395842249L401.4971590909091,321.50086546787725L405.95823863636366,321.52089260419444L410.41931818181814,321.5748923127158L414.88039772727274,321.6227331131996L419.3414772727273,321.62832878398L423.8025568181818,321.59393485093426L428.26363636363635,321.63928931699735L432.7247159090909,321.70573475140543L437.1857954545454,321.7840290618639L441.646875,321.78889232011716L446.1079545454545,321.8118067046572L450.5690340909091,321.8326166767566L455.03011363636364,321.8339747826915L459.4911931818182,321.8705692404259L463.9522727272727,321.9110971257465L468.4133522727273,321.9503166003076L472.8744318181818,321.97597622734725L477.3355113636364,322.0078360998969L481.7965909090909,322.026721545791L486.25767045454546,322.05030617947284L490.71875,322.0779580036015L495.17982954545454,322.0575009915856L499.640909090909,322.0840031369294L504.10198863636367,322.11812244447054L508.5630681818182,322.1615658317386L513.0241477272727,322.19732203923854L517.4852272727272,322.20642567248984L521.9463068181818,322.24259588104206L526.4073863636364,322.2482015979902L530.8684659090909,322.24015085714734L535.3295454545454,322.25143755989365L539.7906250000001,322.25840079441724L544.2517045454546,322.2960194624144L548.712784090909,322.32369547710726L553.1738636363636,322.3375367567619L557.6349431818182,322.29363343155245L562.0960227272727,322.3475357885853L566.5571022727273,322.40013134092993L571.0181818181818,322.4171144401706L575.4792613636363,322.4679065205544L579.940340909091,322.50008975115253L584.4014204545455,322.52068984746415L588.8625,322.5327162621978L593.3235795454545,322.5159746436445L597.7846590909091,322.49423966938383L602.2457386363636,322.5160450843113L606.7068181818182,322.51294388605106L611.1678977272727,322.546461258717L615.6289772727273,322.5447361379052L620.0900568181818,322.57912181790294L624.5511363636364,322.5904518850456L629.0122159090909,322.6087177636673L633.4732954545455,322.65535884110255L637.934375,322.64392713356693L642.3954545454545,322.68966150869625L646.856534090909,322.6984796818957L651.3176136363637,322.73174961764363L655.7786931818182,322.7319330506542L660.2397727272727,322.7635146290655L664.7008522727273,322.8023275575555L669.1619318181818,322.8229301449079L673.6230113636364,322.8291451277171L678.084090909091,322.8381032109571L682.5451704545454,322.840133516799L687.0062499999999,322.9000307127547L691.4673295454546,322.8825740210904L695.9284090909091,322.8696620292929L700.3894886363636,322.8935384183552L704.8505681818182,322.8956054679523L709.3116477272728,322.928702823194L713.7727272727273,322.9257698758565L718.2338068181818,322.9223400446981L722.6948863636363,322.92617506124446L727.1559659090909,322.9447436989647L731.6170454545455,322.92937991143475L736.078125,322.9750303342788L740.5392045454545,322.9820364715599L745.0002840909091,323.0091950167631L749.4613636363637,323.0211440345071L753.9224431818182,323.0221816904705L758.3835227272727,323.04086379653955L762.8446022727272,322.9885221113157L767.3056818181818,322.967004376632L771.7667613636364,322.99090973313565L776.2278409090909,323.01286137609367L780.6889204545454,323.0419576982397L785.1500000000001,323.05810793008897L789.6110795454546,323.0868636825334L794.072159090909,323.0369740916742L798.5332386363636,323.101374951449L802.9943181818182,323.1094840248419L807.4553977272727,323.1045744039095L811.9164772727273,323.11455383694994L816.3775568181818,323.13059387047207L820.8386363636363,323.13090447646493L825.299715909091,323.1390323226608L829.7607954545455,323.14589483805514L834.221875,323.1238255298759L838.6829545454545,323.1162095868147L843.1440340909091,323.1056337040843L847.6051136363636,323.1243886673385L852.0661931818182,323.1428571428571L856.5272727272727,323.1664818995083L860.9883522727273,323.1631884569344L865.4494318181818,323.16383787677495L869.9105113636364,323.1682867074453L874.3715909090909,323.15568488429255L878.8326704545455,323.11958458866616L883.29375,323.1355048931819L887.7548295454545,323.1694302849778L892.215909090909,323.15380124128774L896.6769886363637,323.1820175077857L901.1380681818182,323.1659451390861L905.5991477272727,323.1886153778697L910.0602272727273,323.178959421782L914.5213068181818,323.16444095441244L918.9823863636364,323.16494524146435L923.443465909091,323.1792352087557L927.9045454545454,323.1406221595625L932.3656249999999,323.18134912858005" style="fill: none;" fill="none"></path></g></g></g></g><g opacity="0.2"><g><g><g><path stroke="rgb(0, 119, 187)" stroke-width="2px" d="M89.2215909090909,-0.9234050430532006L93.68267045454546,29.656672450785585L98.14375000000001,41.76862771626243L102.60482954545454,46.44867543196466L107.06590909090909,48.487625558754544L111.52698863636363,50.48771337607683L115.98806818181818,51.86687881045266L120.44914772727273,52.84669574105051L124.91022727272725,54.25052654878783L129.3713068181818,54.38056737641049L133.83238636363635,55.77651682087748L138.2934659090909,55.87330271794944L142.75454545454545,56.654243704458175L147.215625,57.13820364856209L151.67670454545456,57.817337068932176L156.1377840909091,58.66512373888373L160.59886363636363,59.202153255766774L165.05994318181817,59.53835442087608L169.52102272727274,59.801678574908095L173.98210227272727,61.02051048679393L178.4431818181818,62.14777590089129L182.90426136363638,62.766897956591286L187.36534090909092,63.22871867452317L191.82642045454546,64.8364573996079L196.28750000000002,66.66203825423099L200.74857954545456,68.26179661910523L205.20965909090907,68.87094445874193L209.67073863636364,71.06051926935889L214.13181818181818,73.62788144963635L218.5928977272727,75.51241641719201L223.05397727272725,76.8319904737308L227.51505681818182,80.59380045166084L231.97613636363636,82.35178547950807L236.4372159090909,85.37079546550878L240.89829545454546,87.71300427075455L245.359375,90.91616724430325L249.8204545454545,94.00212672914603L254.2815340909091,96.53971090542397L258.7426136363636,100.6054482101597L263.2036931818182,103.35066008592526L267.6647727272727,106.71712034734617L272.1258522727273,107.57135686024922L276.5869318181818,112.52741744086812L281.04801136363636,116.62824540563136L285.5090909090909,119.74236204047033L289.9701704545455,122.93525606588068L294.43125,123.86667798358947L298.8923295454546,129.1288483076089L303.3534090909091,133.3851625804543L307.81448863636365,136.3398480302457L312.2755681818182,139.89051307848695L316.7366477272727,143.66958640557453L321.19772727272726,147.024442580983L325.65880681818186,149.49061658460255L330.11988636363634,152.71399248423023L334.5809659090909,155.37281751966313L339.0420454545455,159.83181437208412L343.50312499999995,161.45131929305626L347.96420454545455,165.06994404769367L352.4252840909091,166.75574347390756L356.8863636363636,170.5782266594507L361.34744318181816,172.879058548388L365.80852272727276,175.58462536199093L370.26960227272724,177.15964655924378L374.73068181818184,182.0026372738765L379.1917613636364,183.91410534820233L383.6528409090909,186.14046480057408L388.11392045454545,189.7957584845956L392.57500000000005,191.4566213452127L397.0360795454545,194.2396208080782L401.4971590909091,195.6043517981241L405.95823863636366,198.7128567465664L410.41931818181814,200.4227862924014L414.88039772727274,201.7378586164863L419.3414772727273,204.9793802600703L423.8025568181818,207.1483587643362L428.26363636363635,207.8872103687846L432.7247159090909,210.78082347456223L437.1857954545454,213.877019952791L441.646875,216.05111272214685L446.1079545454545,215.6029863355432L450.5690340909091,218.1976985612814L455.03011363636364,222.1950281065882L459.4911931818182,224.6302919417049L463.9522727272727,223.70926217428217L468.4133522727273,224.44299839532488L472.8744318181818,227.62536940350168L477.3355113636364,230.15566292170038L481.7965909090909,231.9287842220179L486.25767045454546,232.4577248686495L490.71875,234.12524148860805L495.17982954545454,234.930514561225L499.640909090909,236.94499128020416L504.10198863636367,239.75145035940412L508.5630681818182,239.34349594920872L513.0241477272727,242.3728970148147L517.4852272727272,244.12574942245328L521.9463068181818,246.95901698018096L526.4073863636364,247.2277129683503L530.8684659090909,247.01157413571627L535.3295454545454,249.3113337390648L539.7906250000001,250.3755309224422L544.2517045454546,251.65078468925566L548.712784090909,253.59785561494323L553.1738636363636,253.70973704393L557.6349431818182,256.0446909792711L562.0960227272727,256.2442277418024L566.5571022727273,258.4591849933801L571.0181818181818,256.753422428677L575.4792613636363,259.81376410444824L579.940340909091,262.41401741979104L584.4014204545455,262.896123226411L588.8625,264.5814978266109L593.3235795454545,265.1127332845806L597.7846590909091,267.1176614860154L602.2457386363636,268.0905968721807L606.7068181818182,268.3173501660178L611.1678977272727,270.25632096642795L615.6289772727273,270.3898758068818L620.0900568181818,272.8432676792059L624.5511363636364,271.88352193167987L629.0122159090909,274.6645602951729L633.4732954545455,273.98147826483705L637.934375,276.8327200120974" style="fill: none;" fill="none"></path></g><g><path stroke="rgb(255, 112, 67)" stroke-width="2px" d="M89.2215909090909,175.64716245940326L93.68267045454546,197.05922276962275L98.14375000000001,223.85535010564593L102.60482954545454,257.7551953511143L107.06590909090909,277.3149621820054L111.52698863636363,286.09432446746683L115.98806818181818,293.8537484951543L120.44914772727273,299.73963102365894L124.91022727272725,301.66409446791135L129.3713068181818,305.08847657485404L133.83238636363635,309.5475118298714L138.2934659090909,309.0659659157336L142.75454545454545,312.17106618326466L147.215625,311.57110270705033L151.67670454545456,313.25553493967357L156.1377840909091,314.6809595637903L160.59886363636363,315.3293031919818L165.05994318181817,315.95585498393683L169.52102272727274,316.14126146649653L173.98210227272727,316.54879893601816L178.4431818181818,316.9975968293769L182.90426136363638,317.52783104472206L187.36534090909092,318.37662843416285L191.82642045454546,317.47569820166007L196.28750000000002,318.4480625146268L200.74857954545456,318.8153092359428L205.20965909090907,318.87517793540644L209.67073863636364,318.7010115049775L214.13181818181818,318.77948198918847L218.5928977272727,318.98378608100876L223.05397727272725,319.2328689135611L227.51505681818182,319.0875225186692L231.97613636363636,319.1456095504144L236.4372159090909,319.89457717671485L240.89829545454546,319.5719341937946L245.359375,320.08896847439513L249.8204545454545,320.1908152975878L254.2815340909091,320.66836161736484L258.7426136363636,320.60050285550415L263.2036931818182,320.99277945323445L267.6647727272727,320.19609828407806L272.1258522727273,320.7711297496678L276.5869318181818,320.97950976370856L281.04801136363636,320.67618144622924L285.5090909090909,320.9926749628427L289.9701704545455,320.2470324821994L294.43125,320.7713384179232L298.8923295454546,321.10612530083245L303.3534090909091,320.9014829839273L307.81448863636365,320.7474652004566L312.2755681818182,321.05679368306227L316.7366477272727,320.8774669548392L321.19772727272726,321.0066424993641L325.65880681818186,321.3263053047341L330.11988636363634,321.4676658570452L334.5809659090909,321.4932631470292L339.0420454545455,321.1939208307052L343.50312499999995,321.0799327122669L347.96420454545455,321.33922209649944L352.4252840909091,321.41010996694325L356.8863636363636,321.53758400906196L361.34744318181816,321.40619802691157L365.80852272727276,321.59587146431846L370.26960227272724,321.7411305060658L374.73068181818184,321.8779649542698L379.1917613636364,321.5039401852574L383.6528409090909,321.6453831299926L388.11392045454545,321.6364974434204L392.57500000000005,321.82848051339687L397.0360795454545,321.5675115925631L401.4971590909091,321.80284269475794L405.95823863636366,321.66644503767515L410.41931818181814,321.96772727937775L414.88039772727274,321.9707074389787L419.3414772727273,321.6689817653413L423.8025568181818,321.3443367594023L428.26363636363635,321.96916476063456L432.7247159090909,322.1892991573733L437.1857954545454,322.35401751506976L441.646875,321.8242247483721L446.1079545454545,321.9783684776027L450.5690340909091,321.98387345044415L455.03011363636364,321.84384081496216L459.4911931818182,322.13667431098906L463.9522727272727,322.2058382468857L468.4133522727273,322.23553248162915L472.8744318181818,322.16251045631986L477.3355113636364,322.2394839673336L481.7965909090909,322.16398493761216L486.25767045454546,322.22174701316175L490.71875,322.2789870610915L495.17982954545454,321.9089777980818L499.640909090909,322.27666822450044L504.10198863636367,322.3662157546743L508.5630681818182,322.4775403770502L513.0241477272727,322.45733008252853L517.4852272727272,322.27257521524245L521.9463068181818,322.5056177422051L526.4073863636364,322.28893036323416L530.8684659090909,322.18167985904546L535.3295454545454,322.3334550355415L539.7906250000001,322.30899467822553L544.2517045454546,322.5695857651886L548.712784090909,322.52490202575774L553.1738636363636,322.4381249450573L557.6349431818182,321.97509013564553L562.0960227272727,322.73969743608126L566.5571022727273,322.78277151142186L571.0181818181818,322.54054595934986L575.4792613636363,322.83740761271866L579.940340909091,322.73409379305485L584.4014204545455,322.6704245266358L588.8625,322.6201110069896L593.3235795454545,322.3944126519508L597.7846590909091,322.3364425688513L602.2457386363636,322.67454616788535L606.7068181818182,322.4904173042976L611.1678977272727,322.79017502907897L615.6289772727273,322.5322046686042L620.0900568181818,322.8291553691642L624.5511363636364,322.6727847686907L629.0122159090909,322.74147725389173L633.4732954545455,322.9946231226219L637.934375,322.5609084262644L642.3954545454545,323.0223220672797L646.856534090909,322.7625547438526L651.3176136363637,322.9736625809205L655.7786931818182,322.7332655996606L660.2397727272727,322.9931403425213L664.7008522727273,323.0845885860279L669.1619318181818,322.97268302400266L673.6230113636364,322.87430147340035L678.084090909091,322.9031951526505L682.5451704545454,322.8548834337166L687.0062499999999,323.33588087324506L691.4673295454546,322.75582230957684L695.9284090909091,322.77589714806186L700.3894886363636,323.06710328232674L704.8505681818182,322.9106223392963L709.3116477272728,323.16935977184585L713.7727272727273,322.9044653339215L718.2338068181818,322.89742654989146L722.6948863636363,322.95403737952574L727.1559659090909,323.07970485642056L731.6170454545455,322.81781810112756L736.078125,323.30707950000647L740.5392045454545,323.03294225356495L745.0002840909091,323.20663700532106L749.4613636363637,323.1079762012819L753.9224431818182,323.0297199219945L758.3835227272727,323.1766500995407L762.8446022727272,322.6088425596597L767.3056818181818,322.81078343676654L771.7667613636364,323.1646853143167L776.2278409090909,323.17242608409987L780.6889204545454,323.25349873928093L785.1500000000001,323.17548362297634L789.6110795454546,323.2959266653508L794.072159090909,322.6750569775731L798.5332386363636,323.5700557393403L802.9943181818182,323.1684054282576L807.4553977272727,323.0689135335595L811.9164772727273,323.1870692639392L816.3775568181818,323.2471683117239L820.8386363636363,323.1331608817151L825.299715909091,323.19809016228857L829.7607954545455,323.195756880362L834.221875,322.96360257525487L838.6829545454545,323.06089561332954L843.1440340909091,323.0288282755145L847.6051136363636,323.26070479292747L852.0661931818182,323.27708992382964L856.5272727272727,323.3382163653951L860.9883522727273,323.1392655656572L865.4494318181818,323.1685556485996L869.9105113636364,323.20060908747877L874.3715909090909,323.0641716053461L878.8326704545455,322.8575993368766L883.29375,323.2512087907911L887.7548295454545,323.4161137547346L892.215909090909,323.0403141526517L896.6769886363637,323.3871551718481L901.1380681818182,323.04924038063626L905.5991477272727,323.35340681033233L910.0602272727273,323.1088329930142L914.5213068181818,323.0590148204916L918.9823863636364,323.16860866758014L923.443465909091,323.28308558425874L927.9045454545454,322.8604211072366L932.3656249999999,323.47754559426767" style="fill: none;" fill="none"></path></g></g></g></g></g></g><g transform="translate(51, 377)" clip-path="url(#clip_1)"><clipPath id="clip_1"><rect width="981" height="23"></rect></clipPath><g><g><line x1="0" y1="0" x2="0" y2="5" style="visibility: inherit;" fill="rgb(0, 0, 0)" stroke="rgb(204, 204, 204)" stroke-width="1px"></line><line x1="89.2215909090909" y1="0" x2="89.2215909090909" y2="5" style="visibility: inherit;" fill="rgb(0, 0, 0)" stroke="rgb(204, 204, 204)" stroke-width="1px"></line><line x1="178.4431818181818" y1="0" x2="178.4431818181818" y2="5" style="visibility: inherit;" fill="rgb(0, 0, 0)" stroke="rgb(204, 204, 204)" stroke-width="1px"></line><line x1="267.6647727272727" y1="0" x2="267.6647727272727" y2="5" style="visibility: inherit;" fill="rgb(0, 0, 0)" stroke="rgb(204, 204, 204)" stroke-width="1px"></line><line x1="356.8863636363636" y1="0" x2="356.8863636363636" y2="5" style="visibility: inherit;" fill="rgb(0, 0, 0)" stroke="rgb(204, 204, 204)" stroke-width="1px"></line><line x1="446.1079545454545" y1="0" x2="446.1079545454545" y2="5" style="visibility: inherit;" fill="rgb(0, 0, 0)" stroke="rgb(204, 204, 204)" stroke-width="1px"></line><line x1="535.3295454545454" y1="0" x2="535.3295454545454" y2="5" style="visibility: inherit;" fill="rgb(0, 0, 0)" stroke="rgb(204, 204, 204)" stroke-width="1px"></line><line x1="624.5511363636364" y1="0" x2="624.5511363636364" y2="5" style="visibility: inherit;" fill="rgb(0, 0, 0)" stroke="rgb(204, 204, 204)" stroke-width="1px"></line><line x1="713.7727272727273" y1="0" x2="713.7727272727273" y2="5" style="visibility: inherit;" fill="rgb(0, 0, 0)" stroke="rgb(204, 204, 204)" stroke-width="1px"></line><line x1="802.9943181818182" y1="0" x2="802.9943181818182" y2="5" style="visibility: inherit;" fill="rgb(0, 0, 0)" stroke="rgb(204, 204, 204)" stroke-width="1px"></line><line x1="892.215909090909" y1="0" x2="892.215909090909" y2="5" style="visibility: inherit;" fill="rgb(0, 0, 0)" stroke="rgb(204, 204, 204)" stroke-width="1px"></line><line x1="981.4375" y1="0" x2="981.4375" y2="5" style="visibility: inherit;" fill="rgb(0, 0, 0)" stroke="rgb(204, 204, 204)" stroke-width="1px"></line></g><g transform="translate(0, 8)"><text x="0" y="0" dx="0em" dy="0.95em" style="text-anchor: middle; visibility: hidden; font-family: Roboto, sans-serif; font-size: 12px; font-weight: 200;" fill="rgb(33, 33, 33)" stroke="none" stroke-width="1px">-20</text><text x="89.2215909090909" y="0" dx="0em" dy="0.95em" style="text-anchor: middle; visibility: inherit; font-family: Roboto, sans-serif; font-size: 12px; font-weight: 200;" fill="rgb(33, 33, 33)" stroke="none" stroke-width="1px">0</text><text x="178.4431818181818" y="0" dx="0em" dy="0.95em" style="text-anchor: middle; visibility: inherit; font-family: Roboto, sans-serif; font-size: 12px; font-weight: 200;" fill="rgb(33, 33, 33)" stroke="none" stroke-width="1px">20</text><text x="267.6647727272727" y="0" dx="0em" dy="0.95em" style="text-anchor: middle; visibility: inherit; font-family: Roboto, sans-serif; font-size: 12px; font-weight: 200;" fill="rgb(33, 33, 33)" stroke="none" stroke-width="1px">40</text><text x="356.8863636363636" y="0" dx="0em" dy="0.95em" style="text-anchor: middle; visibility: inherit; font-family: Roboto, sans-serif; font-size: 12px; font-weight: 200;" fill="rgb(33, 33, 33)" stroke="none" stroke-width="1px">60</text><text x="446.1079545454545" y="0" dx="0em" dy="0.95em" style="text-anchor: middle; visibility: inherit; font-family: Roboto, sans-serif; font-size: 12px; font-weight: 200;" fill="rgb(33, 33, 33)" stroke="none" stroke-width="1px">80</text><text x="535.3295454545454" y="0" dx="0em" dy="0.95em" style="text-anchor: middle; visibility: inherit; font-family: Roboto, sans-serif; font-size: 12px; font-weight: 200;" fill="rgb(33, 33, 33)" stroke="none" stroke-width="1px">100</text><text x="624.5511363636364" y="0" dx="0em" dy="0.95em" style="text-anchor: middle; visibility: inherit; font-family: Roboto, sans-serif; font-size: 12px; font-weight: 200;" fill="rgb(33, 33, 33)" stroke="none" stroke-width="1px">120</text><text x="713.7727272727273" y="0" dx="0em" dy="0.95em" style="text-anchor: middle; visibility: inherit; font-family: Roboto, sans-serif; font-size: 12px; font-weight: 200;" fill="rgb(33, 33, 33)" stroke="none" stroke-width="1px">140</text><text x="802.9943181818182" y="0" dx="0em" dy="0.95em" style="text-anchor: middle; visibility: inherit; font-family: Roboto, sans-serif; font-size: 12px; font-weight: 200;" fill="rgb(33, 33, 33)" stroke="none" stroke-width="1px">160</text><text x="892.215909090909" y="0" dx="0em" dy="0.95em" style="text-anchor: middle; visibility: inherit; font-family: Roboto, sans-serif; font-size: 12px; font-weight: 200;" fill="rgb(33, 33, 33)" stroke="none" stroke-width="1px">180</text><text x="981.4375" y="0" dx="0em" dy="0.95em" style="text-anchor: middle; visibility: hidden; font-family: Roboto, sans-serif; font-size: 12px; font-weight: 200;" fill="rgb(33, 33, 33)" stroke="none" stroke-width="1px">200</text></g><line x1="0" y1="0" x2="981.4375" y2="0" fill="rgb(0, 0, 0)" stroke="rgb(204, 204, 204)" stroke-width="1px"></line></g></g></g></g></svg>