<svg viewBox="0 0 1033 400" xmlns="http://www.w3.org/2000/svg"><g><g><g><g><g><line x1="30.78125" y1="377" x2="25.78125" y2="377" style="visibility: inherit;" fill="rgb(0, 0, 0)" stroke="rgb(204, 204, 204)" stroke-width="1px"></line><line x1="30.78125" y1="335.1111111111111" x2="25.78125" y2="335.1111111111111" style="visibility: inherit;" fill="rgb(0, 0, 0)" stroke="rgb(204, 204, 204)" stroke-width="1px"></line><line x1="30.78125" y1="293.22222222222223" x2="25.78125" y2="293.22222222222223" style="visibility: inherit;" fill="rgb(0, 0, 0)" stroke="rgb(204, 204, 204)" stroke-width="1px"></line><line x1="30.78125" y1="251.33333333333337" x2="25.78125" y2="251.33333333333337" style="visibility: inherit;" fill="rgb(0, 0, 0)" stroke="rgb(204, 204, 204)" stroke-width="1px"></line><line x1="30.78125" y1="209.44444444444446" x2="25.78125" y2="209.44444444444446" style="visibility: inherit;" fill="rgb(0, 0, 0)" stroke="rgb(204, 204, 204)" stroke-width="1px"></line><line x1="30.78125" y1="167.55555555555554" x2="25.78125" y2="167.55555555555554" style="visibility: inherit;" fill="rgb(0, 0, 0)" stroke="rgb(204, 204, 204)" stroke-width="1px"></line><line x1="30.78125" y1="125.66666666666669" x2="25.78125" y2="125.66666666666669" style="visibility: inherit;" fill="rgb(0, 0, 0)" stroke="rgb(204, 204, 204)" stroke-width="1px"></line><line x1="30.78125" y1="83.77777777777777" x2="25.78125" y2="83.77777777777777" style="visibility: inherit;" fill="rgb(0, 0, 0)" stroke="rgb(204, 204, 204)" stroke-width="1px"></line><line x1="30.78125" y1="41.88888888888891" x2="25.78125" y2="41.88888888888891" style="visibility: inherit;" fill="rgb(0, 0, 0)" stroke="rgb(204, 204, 204)" stroke-width="1px"></line><line x1="30.78125" y1="0" x2="25.78125" y2="0" style="visibility: inherit;" fill="rgb(0, 0, 0)" stroke="rgb(204, 204, 204)" stroke-width="1px"></line></g><g transform="translate(20.78125, 0)"><text x="0" y="377" dx="0em" dy="0.3em" style="text-anchor: end; visibility: hidden; font-family: Roboto, sans-serif; font-size: 12px; font-weight: 200;" fill="rgb(33, 33, 33)" stroke="none" stroke-width="1px">45</text><text x="0" y="335.1111111111111" dx="0em" dy="0.3em" style="text-anchor: end; visibility: inherit; font-family: Roboto, sans-serif; font-size: 12px; font-weight: 200;" fill="rgb(33, 33, 33)" stroke="none" stroke-width="1px">50</text><text x="0" y="293.22222222222223" dx="0em" dy="0.3em" style="text-anchor: end; visibility: inherit; font-family: Roboto, sans-serif; font-size: 12px; font-weight: 200;" fill="rgb(33, 33, 33)" stroke="none" stroke-width="1px">55</text><text x="0" y="251.33333333333337" dx="0em" dy="0.3em" style="text-anchor: end; visibility: inherit; font-family: Roboto, sans-serif; font-size: 12px; font-weight: 200;" fill="rgb(33, 33, 33)" stroke="none" stroke-width="1px">60</text><text x="0" y="209.44444444444446" dx="0em" dy="0.3em" style="text-anchor: end; visibility: inherit; font-family: Roboto, sans-serif; font-size: 12px; font-weight: 200;" fill="rgb(33, 33, 33)" stroke="none" stroke-width="1px">65</text><text x="0" y="167.55555555555554" dx="0em" dy="0.3em" style="text-anchor: end; visibility: inherit; font-family: Roboto, sans-serif; font-size: 12px; font-weight: 200;" fill="rgb(33, 33, 33)" stroke="none" stroke-width="1px">70</text><text x="0" y="125.66666666666669" dx="0em" dy="0.3em" style="text-anchor: end; visibility: inherit; font-family: Roboto, sans-serif; font-size: 12px; font-weight: 200;" fill="rgb(33, 33, 33)" stroke="none" stroke-width="1px">75</text><text x="0" y="83.77777777777777" dx="0em" dy="0.3em" style="text-anchor: end; visibility: inherit; font-family: Roboto, sans-serif; font-size: 12px; font-weight: 200;" fill="rgb(33, 33, 33)" stroke="none" stroke-width="1px">80</text><text x="0" y="41.88888888888891" dx="0em" dy="0.3em" style="text-anchor: end; visibility: inherit; font-family: Roboto, sans-serif; font-size: 12px; font-weight: 200;" fill="rgb(33, 33, 33)" stroke="none" stroke-width="1px">85</text><text x="0" y="0" dx="0em" dy="0.3em" style="text-anchor: end; visibility: hidden; font-family: Roboto, sans-serif; font-size: 12px; font-weight: 200;" fill="rgb(33, 33, 33)" stroke="none" stroke-width="1px">90</text></g><line x1="30.78125" y1="0" x2="30.78125" y2="377" fill="rgb(0, 0, 0)" stroke="rgb(204, 204, 204)" stroke-width="1px"></line></g></g><g transform="translate(30, 0)" clip-path="url(#clip_0)"><clipPath id="clip_0"><rect width="1002" height="377"></rect></clipPath><g><g><g><line x1="0" y1="0" x2="0" y2="377" fill="rgb(0, 0, 0)" stroke="rgb(66, 66, 66)" stroke-width="1px" opacity="0.25"></line><line x1="91.11079545454545" y1="0" x2="91.11079545454545" y2="377" fill="rgb(0, 0, 0)" stroke="rgb(66, 66, 66)" stroke-width="1px" opacity="0.25"></line><line x1="182.2215909090909" y1="0" x2="182.2215909090909" y2="377" fill="rgb(0, 0, 0)" stroke="rgb(66, 66, 66)" stroke-width="1px" opacity="0.25"></line><line x1="273.3323863636363" y1="0" x2="273.3323863636363" y2="377" fill="rgb(0, 0, 0)" stroke="rgb(66, 66, 66)" stroke-width="1px" opacity="0.25"></line><line x1="364.4431818181818" y1="0" x2="364.4431818181818" y2="377" fill="rgb(0, 0, 0)" stroke="rgb(66, 66, 66)" stroke-width="1px" opacity="0.25"></line><line x1="455.55397727272725" y1="0" x2="455.55397727272725" y2="377" fill="rgb(0, 0, 0)" stroke="rgb(66, 66, 66)" stroke-width="1px" opacity="0.25"></line><line x1="546.6647727272726" y1="0" x2="546.6647727272726" y2="377" fill="rgb(0, 0, 0)" stroke="rgb(66, 66, 66)" stroke-width="1px" opacity="0.25"></line><line x1="637.7755681818181" y1="0" x2="637.7755681818181" y2="377" fill="rgb(0, 0, 0)" stroke="rgb(66, 66, 66)" stroke-width="1px" opacity="0.25"></line><line x1="728.8863636363636" y1="0" x2="728.8863636363636" y2="377" fill="rgb(0, 0, 0)" stroke="rgb(66, 66, 66)" stroke-width="1px" opacity="0.25"></line><line x1="819.9971590909091" y1="0" x2="819.9971590909091" y2="377" fill="rgb(0, 0, 0)" stroke="rgb(66, 66, 66)" stroke-width="1px" opacity="0.25"></line><line x1="911.1079545454545" y1="0" x2="911.1079545454545" y2="377" fill="rgb(0, 0, 0)" stroke="rgb(66, 66, 66)" stroke-width="1px" opacity="0.25"></line><line x1="1002.21875" y1="0" x2="1002.21875" y2="377" fill="rgb(0, 0, 0)" stroke="rgb(66, 66, 66)" stroke-width="1px" opacity="0.25"></line></g><g><line x1="0" y1="377" x2="1002.21875" y2="377" fill="rgb(0, 0, 0)" stroke="rgb(66, 66, 66)" stroke-width="1px" opacity="0.25"></line><line x1="0" y1="335.1111111111111" x2="1002.21875" y2="335.1111111111111" fill="rgb(0, 0, 0)" stroke="rgb(66, 66, 66)" stroke-width="1px" opacity="0.25"></line><line x1="0" y1="293.22222222222223" x2="1002.21875" y2="293.22222222222223" fill="rgb(0, 0, 0)" stroke="rgb(66, 66, 66)" stroke-width="1px" opacity="0.25"></line><line x1="0" y1="251.33333333333337" x2="1002.21875" y2="251.33333333333337" fill="rgb(0, 0, 0)" stroke="rgb(66, 66, 66)" stroke-width="1px" opacity="0.25"></line><line x1="0" y1="209.44444444444446" x2="1002.21875" y2="209.44444444444446" fill="rgb(0, 0, 0)" stroke="rgb(66, 66, 66)" stroke-width="1px" opacity="0.25"></line><line x1="0" y1="167.55555555555554" x2="1002.21875" y2="167.55555555555554" fill="rgb(0, 0, 0)" stroke="rgb(66, 66, 66)" stroke-width="1px" opacity="0.25"></line><line x1="0" y1="125.66666666666669" x2="1002.21875" y2="125.66666666666669" fill="rgb(0, 0, 0)" stroke="rgb(66, 66, 66)" stroke-width="1px" opacity="0.25"></line><line x1="0" y1="83.77777777777777" x2="1002.21875" y2="83.77777777777777" fill="rgb(0, 0, 0)" stroke="rgb(66, 66, 66)" stroke-width="1px" opacity="0.25"></line><line x1="0" y1="41.88888888888891" x2="1002.21875" y2="41.88888888888891" fill="rgb(0, 0, 0)" stroke="rgb(66, 66, 66)" stroke-width="1px" opacity="0.25"></line><line x1="0" y1="0" x2="1002.21875" y2="0" fill="rgb(0, 0, 0)" stroke="rgb(66, 66, 66)" stroke-width="1px" opacity="0.25"></line></g></g></g><g><g><line x1="0" y1="754" x2="1002.21875" y2="754" fill="rgb(0, 0, 0)" stroke="rgb(153, 153, 153)" stroke-width="1.5px"></line></g></g><g><g><line x1="91.11079545454545" y1="0" x2="91.11079545454545" y2="377" fill="rgb(0, 0, 0)" stroke="rgb(153, 153, 153)" stroke-width="1.5px"></line></g></g><g><g><g><g><g><path stroke="rgb(0, 119, 187)" stroke-width="2px" d="M91.11079545454545,310.8665168762207L95.66633522727273,314.8976144218704L100.22187500000001,317.0700911545734L104.77741477272727,317.6715841256666L109.33295454545454,317.6542510261355L113.88849431818181,317.0975649268414L118.44403409090908,317.331764953582L122.99957386363636,317.108259273812L127.55511363636363,316.36194453614837L132.1106534090909,315.8278195150682L136.66619318181816,315.1654702153693L141.22173295454544,314.5507350845092L145.77727272727273,314.1448651428909L150.3328125,313.4232420507576L154.88835227272727,312.3972872094048L159.44389204545453,311.60136488133816L163.99943181818182,310.2840053964941L168.5549715909091,309.1533497833494L173.11051136363636,308.1901701637091L177.66605113636365,306.6140314696589L182.2215909090909,305.3236405174673L186.7771306818182,303.6350878422721L191.33267045454545,301.9770005741169L195.88821022727274,300.1932185330092L200.44375000000002,298.1759241092487L204.99928977272728,295.8747332231773L209.55482954545454,293.5991968769158L214.1103693181818,291.03148000274604L218.66590909090908,288.5972309822677L223.22144886363637,285.672446747861L227.77698863636363,282.8639120236817L232.3325284090909,279.4912857006438L236.88806818181817,276.2209301510507L241.44360795454546,272.8217353883059L245.9991477272727,269.2475746017439L250.5546875,265.34729413375993L255.11022727272726,261.44519436175153L259.6657670454546,257.6206976895102L264.2213068181818,253.3840535662325L268.7768465909091,248.93048915862664L273.3323863636363,244.50209027240797L277.88792613636366,240.20163297215078L282.4434659090909,235.95028762518544L286.9990056818182,231.15078398759857L291.55454545454546,226.53850426586828L296.11008522727275,221.98237302890104L300.665625,217.44630090115203L305.22116477272726,212.74968346245097L309.77670454545455,207.96078825640822L314.33224431818184,203.01988918416862L318.88778409090907,198.27421819274352L323.4433238636364,193.43954581819526L327.99886363636364,188.75697077689574L332.5544034090909,184.24796049642015L337.1099431818182,179.594041776796L341.66548295454544,174.9631327419382L346.2210227272727,170.1623408835816L350.77656249999995,165.45464580098545L355.3321022727273,161.0009017389172L359.8876420454545,156.78183426697476L364.4431818181818,152.37685461208883L368.9987215909091,148.16432450037294L373.5542613636364,143.91950361317933L378.1098011363636,139.91193643932493L382.6653409090909,135.93356019276072L387.2208806818182,132.00414014466608L391.7764204545455,128.2035442893358L396.3319602272727,124.42162574381584L400.88750000000005,120.8519034989836L405.4430397727273,117.44301860851003L409.99857954545456,114.20631914075885L414.5541193181818,110.67020210966443L419.1096590909091,107.65472936331618L423.66519886363636,104.50413017972235L428.2207386363636,101.3981534481645L432.77627840909093,98.54846235002981L437.33181818181816,95.70147404647784L441.88735795454545,92.84446100844629L446.44289772727274,90.14369189199705L450.9984375,87.28314584199731L455.55397727272725,84.76953624750762L460.10951704545454,82.18154735513914L464.6650568181818,79.50375412601412L469.2205965909091,77.27043153078803L473.77613636363634,75.13419141299393L478.3316761363637,72.89038887715789L482.8872159090909,70.7217175479953L487.4427556818182,68.66796516643176L491.9982954545454,66.58386225902136L496.55383522727277,64.49987955552301L501.109375,62.502407156519276L505.66491477272723,60.84979712816982L510.2204545454545,59.071343238840285L514.7759943181818,57.41164123996126L519.3315340909091,55.719034842035946L523.8870738636364,53.9830118194936L528.4426136363636,52.26949126461467L532.998153409091,50.57312840803622L537.5536931818182,48.97293056449275L542.1092329545454,47.480386315322306L546.6647727272726,46.08570223482477L551.2203125000001,44.60518725548801L555.7758522727273,43.31481300983427L560.3313920454545,41.731785207377705L564.8869318181818,40.37660776049424L569.4424715909091,39.11017846530095L573.9980113636364,37.723891825279175L578.5535511363636,36.416234938170426L583.1090909090909,35.39903313596494L587.6646306818182,34.222652601350816L592.2201704545455,33.03195425628073L596.7757102272727,31.83764972807886L601.33125,30.653098878411967L605.8867897727272,29.544940992798175L610.4423295454545,28.444048104279712L614.9978693181819,27.601004561894854L619.5534090909091,26.64369565650347L624.1089488636363,25.553565229869093L628.6644886363637,24.510591433481977L633.2200284090909,23.45984137547988L637.7755681818181,22.688274890727847L642.3311079545455,21.66889789929653L646.8866477272728,20.743105114281008L651.4421875,19.909433693986266" style="fill: none;" fill="none"></path></g><g><path stroke="rgb(255, 112, 67)" stroke-width="2px" d="M91.11079545454545,320.33296729193796L95.66633522727273,319.03759449630644L100.22187500000001,316.5636998528165L104.77741477272727,315.5363130595532L109.33295454545454,315.79223548991285L113.88849431818181,316.54880143930967L118.44403409090908,318.00990863583837L122.99957386363636,319.4394632694419L127.55511363636363,319.62678774490996L132.1106534090909,319.9606249029507L136.66619318181816,320.77287381766655L141.22173295454544,321.01896712937395L145.77727272727273,321.67813052110034L150.3328125,322.13709726822555L154.88835227272727,322.37945192241204L159.44389204545453,322.695696056672L163.99943181818182,322.8539837597844L168.5549715909091,323.27664246776123L173.11051136363636,323.1611341739339L177.66605113636365,323.0230562879472L182.2215909090909,323.1380445814949L186.7771306818182,323.4550714655117L191.33267045454545,323.4546724079867L195.88821022727274,323.8951114197793L200.44375000000002,324.2006170887336L204.99928977272728,324.01660021042636L209.55482954545454,323.69604712871734L214.1103693181818,323.7419310368869L218.66590909090908,323.6913804044318L223.22144886363637,323.672549084711L227.77698863636363,323.79252866312004L232.3325284090909,323.67282027413563L236.88806818181817,324.0887106545185L241.44360795454546,323.73986853629896L245.9991477272727,323.8954005398708L250.5546875,324.2603090164643L255.11022727272726,324.3728084209457L259.6657670454546,324.46620211123377L264.2213068181818,324.3620844839967L268.7768465909091,324.28930415333275L273.3323863636363,324.46783558150787L277.88792613636366,323.9231713502112L282.4434659090909,323.93758225434L286.9990056818182,324.0205518300285L291.55454545454546,323.9241700377594L296.11008522727275,323.93990341509806L300.665625,323.84026813567317L305.22116477272726,323.6538803015677L309.77670454545455,323.7793828667158L314.33224431818184,323.72822764936853L318.88778409090907,324.0303589848509L323.4433238636364,324.0095063672619L327.99886363636364,324.10076758952044L332.5544034090909,324.06912120004137L337.1099431818182,323.8668724717226L341.66548295454544,324.30173530819104L346.2210227272727,324.16575261470115L350.77656249999995,324.18134009393185L355.3321022727273,323.93535761940666L359.8876420454545,323.3880922578258L364.4431818181818,323.52375579690647L368.9987215909091,323.4836065112429L373.5542613636364,323.44042347805436L378.1098011363636,323.04205530396047L382.6653409090909,322.8774441193647L387.2208806818182,322.9325418148696L391.7764204545455,322.93065933109943L396.3319602272727,322.6481704058255L400.88750000000005,322.3219535102645L405.4430397727273,322.23655922189243L409.99857954545456,322.10951812865244L414.5541193181818,321.7786849186812L419.1096590909091,321.490109341806L423.66519886363636,321.4272450539804L428.2207386363636,321.4002463248978L432.77627840909093,321.44157298777935L437.33181818181816,321.43558382043125L441.88735795454545,321.1698928217333L446.44289772727274,321.15085589329294L450.9984375,321.08549731845676L455.55397727272725,320.93424305416625L460.10951704545454,320.87223736658706L464.6650568181818,320.82075878980737L469.2205965909091,320.82024760066764L473.77613636363634,320.6438776075455L478.3316761363637,320.52261624637697L482.8872159090909,320.53154453178223L487.4427556818182,320.478014704703L491.9982954545454,320.450738177877L496.55383522727277,320.5771821487228L501.109375,320.3921888321087L505.66491477272723,320.48784338791944L510.2204545454545,320.3862754581511L514.7759943181818,320.23248386241147L519.3315340909091,320.08017807748774L523.8870738636364,319.70122537370054L528.4426136363636,319.48158453668094L532.998153409091,319.1886741354763L537.5536931818182,319.10993167058916L542.1092329545454,318.88414183205026L546.6647727272726,318.93864085436365L551.2203125000001,318.69721589250224L555.7758522727273,318.41579175555L560.3313920454545,318.2402264970821L564.8869318181818,318.2900787490162L569.4424715909091,318.10200614639314L573.9980113636364,317.8295472724569L578.5535511363636,317.3885309149459L583.1090909090909,317.1853337188696L587.6646306818182,317.0814996697729L592.2201704545455,317.01427071672214L596.7757102272727,316.8149164080915L601.33125,316.9381972773089L605.8867897727272,317.07784519922245L610.4423295454545,317.0892415082947L614.9978693181819,317.1037948566519L619.5534090909091,316.8317477422036L624.1089488636363,316.92905524994313L628.6644886363637,316.9586175591835L633.2200284090909,316.86584333716917L637.7755681818181,316.8194187760069L642.3311079545455,316.7147480575584L646.8866477272728,316.53585870977497L651.4421875,316.6691350626713L655.9977272727273,316.1994172416089L660.5532670454545,316.36605570973325L665.1088068181818,315.93500974351895L669.6643465909091,315.78736702244L674.2198863636364,315.44281969136L678.7754261363636,315.4778108863631L683.3309659090909,315.42141754072753L687.8865056818182,315.66236011964736L692.4420454545455,315.57730990271386L696.9975852272727,315.4090814785375L701.5531249999999,315.27747330154864L706.1086647727274,315.1220794805319L710.6642045454546,315.0291970259821L715.2197443181818,315.06787508735346L719.775284090909,315.2980538012685L724.3308238636364,315.1544312411677L728.8863636363636,314.94066130948386L733.4419034090909,314.8063000366419L737.9974431818182,314.490824744995L742.5529829545455,314.4202402387703L747.1085227272728,314.3027127271167L751.6640625,313.9891223955986L756.2196022727272,313.9126309145216L760.7751420454545,313.6891912634119L765.3306818181818,313.40504555717746L769.8862215909091,313.1424739743139L774.4417613636364,312.7768698977551L778.9973011363636,312.6885874009612L783.552840909091,312.8152188778998L788.1083806818182,312.8437006513572L792.6639204545454,312.8665744766454L797.2194602272726,312.7620896634971L801.7750000000001,312.4477016046631L806.3305397727273,312.31420925234306L810.8860795454545,312.10453322461586L815.4416193181818,311.6297659495956L819.9971590909091,311.63414584182874L824.5526988636364,311.74961675116634L829.1082386363636,311.75667578186983L833.6637784090909,311.96759583612476L838.2193181818182,311.9262838958104L842.7748579545455,311.87673782283815L847.3303977272727,311.84253723313225L851.8859375,311.61164608458057L856.4414772727272,311.6699202839156L860.9970170454545,311.6305394715828L865.5525568181819,311.66897138652405L870.1080965909091,311.5503893331733L874.6636363636363,311.5584263484473L879.2191761363637,311.51141087582647L883.7747159090909,311.2123602594611L888.3302556818181,311.353310214554L892.8857954545455,311.3091221594293L897.4413352272728,311.1908603923537L901.996875,311.1452613442482L906.5524147727273,310.87485346716363L911.1079545454545,310.70691404032004L915.6634943181818,310.73585868296607L920.2190340909091,310.7233193399912L924.7745738636364,310.58354545909214L929.3301136363636,310.6779942061962L933.8856534090909,310.62745230722834L938.4411931818182,310.82939647899025L942.9967329545455,310.63405303618174L947.5522727272727,310.6395050669409L952.1078124999999,310.42629135338933" style="fill: none;" fill="none"></path></g></g></g></g><g opacity="0.2"><g><g><g><path stroke="rgb(0, 119, 187)" stroke-width="2px" d="M91.11079545454545,310.8665168762207L95.66633522727273,318.44094916449654L100.22187500000001,320.6582427978516L104.77741477272727,319.07353939480254L109.33295454545454,317.603503757053L113.88849431818181,315.17560238308374L118.44403409090908,318.2483661227756L122.99957386363636,316.14289593166774L127.55511363636363,312.87249967787L132.1106534090909,313.16316392686633L136.66619318181816,311.67874688042536L141.22173295454544,311.16587388780385L145.77727272727273,311.8237114800347L150.3328125,309.16136118570967L154.88835227272727,306.1693890041775L159.44389204545453,306.65484144422743L163.99943181818182,301.9295260111491L168.5549715909091,301.8566921657986L173.11051136363636,301.87979829576284L177.66605113636365,296.1518430074056L182.2215909090909,296.66036961873374L186.7771306818182,292.1861535814073L191.33267045454545,290.63749957614476L195.88821022727274,287.9022515190972L200.44375000000002,284.1846573723687L204.99928977272728,279.82290395100915L209.55482954545454,277.6467411465115L214.1103693181818,272.951786465115L218.66590909090908,271.39153145684134L223.22144886363637,264.9300923665364L227.77698863636363,262.88735707600915L232.3325284090909,255.44056777954103L236.88806818181817,252.846768866645L241.44360795454546,248.47852783203126L245.9991477272727,243.6068096584744L250.5546875,237.3242433336046L255.11022727272726,233.3714971754286L259.6657670454546,230.07294531928164L264.2213068181818,222.8360926310221L268.7768465909091,216.78931749131948L273.3323863636363,212.51708034939236L277.88792613636366,209.1189771864149L282.4434659090909,205.2037185668945L286.9990056818182,196.42108815511068L291.55454545454546,193.1477517022027L296.11008522727275,188.98436584472654L300.665625,184.58154551188153L305.22116477272726,178.71079881456166L309.77670454545455,173.2433068169488L314.33224431818184,167.1915461222331L318.88778409090907,163.85403662787542L323.4433238636364,158.36711374918622L327.99886363636364,154.7821801079644L332.5544034090909,151.5276353624132L337.1099431818182,145.8177686903212L341.66548295454544,141.35000830756292L346.2210227272727,135.3126290215386L350.77656249999995,131.2777170817057L355.3321022727273,128.66509450276692L359.8876420454545,126.14777272542318L364.4431818181818,120.39099070231117L368.9987215909091,117.57427995469834L373.5542613636364,113.09354434543184L378.1098011363636,110.80773128933379L382.6653409090909,107.04031355116103L387.2208806818182,103.46554277208116L391.7764204545455,100.59980740017363L396.3319602272727,96.95287390814889L400.88750000000005,94.92381693522134L405.4430397727273,92.68268212212456L409.99857954545456,90.69625803629555L414.5541193181818,84.98492126464845L419.1096590909091,85.75097096761067L423.66519886363636,81.618585035536L428.2207386363636,78.83651750352647L432.77627840909093,77.84829101562502L437.33181818181816,75.02077823215063L441.88735795454545,72.09080590142145L446.44289772727274,70.52489420572914L450.9984375,66.50359666612411L455.55397727272725,66.51011623806426L460.10951704545454,63.381744384765625L464.6650568181818,60.05152147081162L469.2205965909091,61.04690670437282L473.77613636363634,59.615860663519975L478.3316761363637,56.59065144856771L482.8872159090909,54.967725457085514L487.4427556818182,53.748757256401916L491.9982954545454,51.44415249294706L496.55383522727277,49.36102142333983L501.109375,47.991975233289914L505.66491477272723,48.844569057888464L510.2204545454545,46.15192192925348L514.7759943181818,45.354872300889774L519.3315340909091,43.42322540283203L523.8870738636364,41.371797349717895L528.4426136363636,39.82173716227214L532.998153409091,38.25000898573132L537.5536931818182,37.34839053683811L542.1092329545454,36.63788503011068L546.6647727272726,35.95409698486327L551.2203125000001,33.85006493462458L555.7758522727273,33.940955437554244L560.3313920454545,30.23195817735461L564.8869318181818,30.53198632134331L569.4424715909091,29.910262044270837L573.9980113636364,27.653275722927507L578.5535511363636,26.916819763183586L583.1090909090909,28.00961507161458L587.6646306818182,25.67688666449652L592.2201704545455,24.382176378038196L596.7757102272727,23.16167416042753L601.33125,22.047977871365L605.8867897727272,21.494773017035584L610.4423295454545,20.446655951605916L614.9978693181819,21.476748318142366L619.5534090909091,19.689362928602414L624.1089488636363,17.634355502658423L628.6644886363637,16.933948940700937L633.2200284090909,15.826708306206577L637.7755681818181,17.08325992160372L642.3311079545455,14.263672892252602L646.8866477272728,14.017718844943595L651.4421875,13.853259446885835" style="fill: none;" fill="none"></path></g><g><path stroke="rgb(255, 112, 67)" stroke-width="2px" d="M91.11079545454545,320.33296729193796L95.66633522727273,317.8989618089464L100.22187500000001,312.47771402994795L104.77741477272727,313.14168768988714L109.33295454545454,316.54151662190753L113.88849431818181,319.16085052490234L118.44403409090908,323.728322007921L122.99957386363636,325.6139803568522L127.55511363636363,320.50263595581055L132.1106534090909,321.6260796440972L136.66619318181816,325.048695119222L141.22173295454544,322.37400877210825L145.77727272727273,325.44785910712346L150.3328125,324.8477389017741L154.88835227272727,323.8506278991699L159.44389204545453,324.66110017564563L163.99943181818182,323.8578186035156L168.5549715909091,326.004259830051L173.11051136363636,322.40436952379014L177.66605113636365,322.1065145704481L182.2215909090909,323.9100390964084L186.7771306818182,325.6046164618598L191.33267045454545,323.45194329155817L195.88821022727274,326.92991121080183L200.44375000000002,326.3195003085666L204.99928977272728,322.7330006917318L209.55482954545454,321.44883677164717L214.1103693181818,324.0650067647298L218.66590909090908,323.3340796576606L223.22144886363637,323.53899875217013L227.77698863636363,324.6459197998047L232.3325284090909,322.8191613091363L236.88806818181817,327.0611974928114L241.44360795454546,321.24164861043295L245.9991477272727,325.0111756218804L250.5546875,326.88213297526045L255.11022727272726,325.1821865505642L259.6657670454546,325.13891448974607L264.2213068181818,323.6113532172309L268.7768465909091,323.76405181884763L273.3323863636363,325.75731506347654L277.88792613636366,319.986471218533L282.4434659090909,324.0418047587077L286.9990056818182,324.6209281073676L291.55454545454546,323.22641084459093L296.11008522727275,324.0538531833225L300.665625,323.1183904859755L305.22116477272726,322.3030285305447L309.77670454545455,324.68922381930884L314.33224431818184,323.3572816636827L318.88778409090907,326.22170672946504L323.4433238636364,323.8582340664334L327.99886363636364,324.76292054918076L332.5544034090909,323.83947431776255L337.1099431818182,322.39903242323135L341.66548295454544,327.4581563313802L346.2210227272727,323.1786326090495L350.77656249999995,324.2945020887587L355.3321022727273,322.1494350857205L359.8876420454545,319.4144746568468L364.4431818181818,324.5088489956326L368.9987215909091,323.1920552571614L373.5542613636364,323.1268275790744L378.1098011363636,320.1489811367459L382.6653409090909,321.68194342719187L387.2208806818182,323.3327054341634L391.7764204545455,322.9169868469238L396.3319602272727,320.59640274047854L400.88750000000005,319.95253109402125L405.4430397727273,321.6163002861871L409.99857954545456,321.18674358791776L414.5541193181818,319.37561289469403L419.1096590909091,319.39395718044705L423.66519886363636,320.9706069946289L428.2207386363636,321.20412911309137L432.77627840909093,321.7417700873481L437.33181818181816,321.39207814534507L441.88735795454545,319.2398843553331L446.44289772727274,321.0125687493218L450.9984375,320.6107202317979L455.55397727272725,319.8354983859592L460.10951704545454,320.4218124389648L464.6650568181818,320.4468041314019L469.2205965909091,320.81653416951497L473.77613636363634,319.36266962687176L478.3316761363637,319.641732872857L482.8872159090909,320.59640274047854L487.4427556818182,320.0891544765896L491.9982954545454,320.25259119669596L496.55383522727277,321.4957201639811L501.109375,319.0483239915636L505.66491477272723,321.18271679348413L510.2204545454545,319.648444196913L514.7759943181818,319.11527743869357L519.3315340909091,318.97376437717014L523.8870738636364,316.94835069444446L528.4426136363636,317.88601854112414L532.998153409091,317.06084526909723L537.5536931818182,318.5379118177626L542.1092329545454,317.2439046223958L546.6647727272726,319.33454598320856L551.2203125000001,316.94339709811743L555.7758522727273,316.3714005364312L560.3313920454545,316.9648413764106L564.8869318181818,318.6522280375163L569.4424715909091,316.7357615152995L573.9980113636364,315.85028220282663L578.5535511363636,314.18478724161787L583.1090909090909,315.70921656290693L587.6646306818182,316.3272016737196L592.2201704545455,316.52588882446287L596.7757102272727,315.3667153252496L601.33125,317.83376608954535L605.8867897727272,318.09231185913086L610.4423295454545,317.1720295376248L614.9978693181819,317.20951707628035L619.5534090909091,314.8554722256131L624.1089488636363,317.63594182332355L628.6644886363637,317.173371802436L633.2200284090909,316.1918885972765L637.7755681818181,316.482169342041L642.3311079545455,315.9543716430664L646.8866477272728,315.2363238864475L651.4421875,317.63731604682073L655.9977272727273,312.787169986301L660.5532670454545,317.576594543457L665.1088068181818,312.80369262695314L669.6643465909091,314.7148220486111L674.2198863636364,312.9398685879178L678.7754261363636,315.7320031060113L683.3309659090909,315.0117502000597L687.8865056818182,317.412678443061L692.4420454545455,314.95946578979493L696.9975852272727,314.18699239095054L701.5531249999999,314.3214106241862L706.1086647727274,313.9932268778483L710.6642045454546,314.35445590549045L715.2197443181818,315.34885041978623L719.775284090909,316.9701784769694L724.3308238636364,314.1110905117459L728.8863636363636,313.3877376132541L733.4419034090909,313.8302375793457L737.9974431818182,312.1990662468804L742.5529829545455,313.90748172336157L747.1085227272728,313.44893849690754L751.6640625,311.7110571119521L756.2196022727272,313.3569613986545L760.7751420454545,312.0660222371419L765.3306818181818,311.34087965223523L769.8862215909091,311.2350324842665L774.4417613636364,310.1209526909722L778.9973011363636,312.0472624884711L783.552840909091,313.73512852986653L788.1083806818182,313.0506054348416L792.6639204545454,313.03274052937826L797.2194602272726,312.0030636257595L801.7750000000001,310.1638412475586L806.3305397727273,311.34445902506513L810.8860795454545,310.5813495212131L815.4416193181818,308.18083674112955L819.9971590909091,311.665963406033L824.5526988636364,312.5884508768718L829.1082386363636,311.80795584784613L833.6637784090909,313.49981672498916L838.2193181818182,311.62617484198677L842.7748579545455,311.5168122185601L847.3303977272727,311.59408832126195L851.8859375,309.93434592352975L856.4414772727272,312.09325103759767L860.9970170454545,311.34445902506513L865.5525568181819,311.94815860324434L870.1080965909091,310.6889544169108L874.6636363636363,311.61681094699435L879.2191761363637,311.1698687235514L883.7747159090909,309.0399181789822L888.3302556818181,312.3772359212239L892.8857954545455,310.988119676378L897.4413352272728,310.3317521837023L901.996875,310.8140087551541L906.5524147727273,308.91048550075953L911.1079545454545,309.4869243197971L915.6634943181818,310.94612596299913L920.2190340909091,310.6322277492947L924.7745738636364,309.5681632995605L929.3301136363636,311.36411361694337L933.8856534090909,310.2602925618489L938.4411931818182,312.29641240437826L942.9967329545455,309.2149878607856L947.5522727272727,310.6791111416287L952.1078124999999,308.8774082607693" style="fill: none;" fill="none"></path></g></g></g></g></g></g><g transform="translate(30, 377)" clip-path="url(#clip_1)"><clipPath id="clip_1"><rect width="1002" height="23"></rect></clipPath><g><g><line x1="0" y1="0" x2="0" y2="5" style="visibility: inherit;" fill="rgb(0, 0, 0)" stroke="rgb(204, 204, 204)" stroke-width="1px"></line><line x1="91.11079545454545" y1="0" x2="91.11079545454545" y2="5" style="visibility: inherit;" fill="rgb(0, 0, 0)" stroke="rgb(204, 204, 204)" stroke-width="1px"></line><line x1="182.2215909090909" y1="0" x2="182.2215909090909" y2="5" style="visibility: inherit;" fill="rgb(0, 0, 0)" stroke="rgb(204, 204, 204)" stroke-width="1px"></line><line x1="273.3323863636363" y1="0" x2="273.3323863636363" y2="5" style="visibility: inherit;" fill="rgb(0, 0, 0)" stroke="rgb(204, 204, 204)" stroke-width="1px"></line><line x1="364.4431818181818" y1="0" x2="364.4431818181818" y2="5" style="visibility: inherit;" fill="rgb(0, 0, 0)" stroke="rgb(204, 204, 204)" stroke-width="1px"></line><line x1="455.55397727272725" y1="0" x2="455.55397727272725" y2="5" style="visibility: inherit;" fill="rgb(0, 0, 0)" stroke="rgb(204, 204, 204)" stroke-width="1px"></line><line x1="546.6647727272726" y1="0" x2="546.6647727272726" y2="5" style="visibility: inherit;" fill="rgb(0, 0, 0)" stroke="rgb(204, 204, 204)" stroke-width="1px"></line><line x1="637.7755681818181" y1="0" x2="637.7755681818181" y2="5" style="visibility: inherit;" fill="rgb(0, 0, 0)" stroke="rgb(204, 204, 204)" stroke-width="1px"></line><line x1="728.8863636363636" y1="0" x2="728.8863636363636" y2="5" style="visibility: inherit;" fill="rgb(0, 0, 0)" stroke="rgb(204, 204, 204)" stroke-width="1px"></line><line x1="819.9971590909091" y1="0" x2="819.9971590909091" y2="5" style="visibility: inherit;" fill="rgb(0, 0, 0)" stroke="rgb(204, 204, 204)" stroke-width="1px"></line><line x1="911.1079545454545" y1="0" x2="911.1079545454545" y2="5" style="visibility: inherit;" fill="rgb(0, 0, 0)" stroke="rgb(204, 204, 204)" stroke-width="1px"></line><line x1="1002.21875" y1="0" x2="1002.21875" y2="5" style="visibility: inherit;" fill="rgb(0, 0, 0)" stroke="rgb(204, 204, 204)" stroke-width="1px"></line></g><g transform="translate(0, 8)"><text x="0" y="0" dx="0em" dy="0.95em" style="text-anchor: middle; visibility: hidden; font-family: Roboto, sans-serif; font-size: 12px; font-weight: 200;" fill="rgb(33, 33, 33)" stroke="none" stroke-width="1px">-20</text><text x="91.11079545454545" y="0" dx="0em" dy="0.95em" style="text-anchor: middle; visibility: inherit; font-family: Roboto, sans-serif; font-size: 12px; font-weight: 200;" fill="rgb(33, 33, 33)" stroke="none" stroke-width="1px">0</text><text x="182.2215909090909" y="0" dx="0em" dy="0.95em" style="text-anchor: middle; visibility: inherit; font-family: Roboto, sans-serif; font-size: 12px; font-weight: 200;" fill="rgb(33, 33, 33)" stroke="none" stroke-width="1px">20</text><text x="273.3323863636363" y="0" dx="0em" dy="0.95em" style="text-anchor: middle; visibility: inherit; font-family: Roboto, sans-serif; font-size: 12px; font-weight: 200;" fill="rgb(33, 33, 33)" stroke="none" stroke-width="1px">40</text><text x="364.4431818181818" y="0" dx="0em" dy="0.95em" style="text-anchor: middle; visibility: inherit; font-family: Roboto, sans-serif; font-size: 12px; font-weight: 200;" fill="rgb(33, 33, 33)" stroke="none" stroke-width="1px">60</text><text x="455.55397727272725" y="0" dx="0em" dy="0.95em" style="text-anchor: middle; visibility: inherit; font-family: Roboto, sans-serif; font-size: 12px; font-weight: 200;" fill="rgb(33, 33, 33)" stroke="none" stroke-width="1px">80</text><text x="546.6647727272726" y="0" dx="0em" dy="0.95em" style="text-anchor: middle; visibility: inherit; font-family: Roboto, sans-serif; font-size: 12px; font-weight: 200;" fill="rgb(33, 33, 33)" stroke="none" stroke-width="1px">100</text><text x="637.7755681818181" y="0" dx="0em" dy="0.95em" style="text-anchor: middle; visibility: inherit; font-family: Roboto, sans-serif; font-size: 12px; font-weight: 200;" fill="rgb(33, 33, 33)" stroke="none" stroke-width="1px">120</text><text x="728.8863636363636" y="0" dx="0em" dy="0.95em" style="text-anchor: middle; visibility: inherit; font-family: Roboto, sans-serif; font-size: 12px; font-weight: 200;" fill="rgb(33, 33, 33)" stroke="none" stroke-width="1px">140</text><text x="819.9971590909091" y="0" dx="0em" dy="0.95em" style="text-anchor: middle; visibility: inherit; font-family: Roboto, sans-serif; font-size: 12px; font-weight: 200;" fill="rgb(33, 33, 33)" stroke="none" stroke-width="1px">160</text><text x="911.1079545454545" y="0" dx="0em" dy="0.95em" style="text-anchor: middle; visibility: inherit; font-family: Roboto, sans-serif; font-size: 12px; font-weight: 200;" fill="rgb(33, 33, 33)" stroke="none" stroke-width="1px">180</text><text x="1002.21875" y="0" dx="0em" dy="0.95em" style="text-anchor: middle; visibility: hidden; font-family: Roboto, sans-serif; font-size: 12px; font-weight: 200;" fill="rgb(33, 33, 33)" stroke="none" stroke-width="1px">200</text></g><line x1="0" y1="0" x2="1002.21875" y2="0" fill="rgb(0, 0, 0)" stroke="rgb(204, 204, 204)" stroke-width="1px"></line></g></g></g></g></svg>